G04*
G04 #@! TF.GenerationSoftware,Altium Limited,Altium Designer,18.0.7 (293)*
G04*
G04 Layer_Physical_Order=2*
G04 Layer_Color=16711680*
%FSTAX24Y24*%
%MOIN*%
G70*
G01*
G75*
%ADD15R,0.0500X0.0550*%
%ADD29C,0.0197*%
%ADD30C,0.0394*%
%ADD31O,0.0700X0.1000*%
%ADD32R,0.0700X0.1000*%
%ADD33O,0.0900X0.0600*%
%ADD34R,0.0900X0.0600*%
%ADD35C,0.0750*%
%ADD36C,0.1000*%
%ADD37R,0.1000X0.1000*%
%ADD38R,0.1000X0.1600*%
%ADD39R,0.1600X0.1000*%
%ADD40C,0.0535*%
%ADD41R,0.0535X0.0535*%
%ADD42C,0.0591*%
%ADD43C,0.0276*%
%ADD44C,0.0433*%
%ADD45R,0.0550X0.0500*%
%ADD46R,0.0591X0.0591*%
%ADD47R,0.0670X0.0210*%
G36*
X074551Y049295D02*
X074505Y049276D01*
X074211Y049571D01*
X074149Y049618D01*
X074077Y049648D01*
X074Y049658D01*
X07112D01*
X07112Y049658D01*
X071081Y049653D01*
X071043Y049648D01*
X070971Y049618D01*
X070909Y049571D01*
X067837Y046498D01*
X065826D01*
Y047076D01*
X065826Y04712D01*
X065826D01*
Y047126D01*
X065826D01*
Y047275D01*
X066D01*
X066077Y047286D01*
X066149Y047315D01*
X066211Y047363D01*
X066778Y04793D01*
X066825Y047991D01*
X066855Y048063D01*
X066865Y04814D01*
X066865Y04814D01*
Y048448D01*
X066957Y048519D01*
X067045Y048633D01*
X0671Y048766D01*
X067118Y048909D01*
Y049209D01*
X0671Y049352D01*
X067045Y049485D01*
X066957Y049599D01*
X066843Y049687D01*
X06671Y049742D01*
X066567Y049761D01*
X066424Y049742D01*
X066291Y049687D01*
X066177Y049599D01*
X066095Y049493D01*
X066067Y049488D01*
X066038Y049493D01*
X065957Y049599D01*
X065843Y049687D01*
X06571Y049742D01*
X065567Y049761D01*
X065424Y049742D01*
X065291Y049687D01*
X065177Y049599D01*
X065095Y049493D01*
X065067Y049488D01*
X065038Y049493D01*
X064964Y04959D01*
Y049623D01*
X06495Y049726D01*
X064911Y049822D01*
X064848Y049904D01*
X064531Y050221D01*
X064449Y050284D01*
X064353Y050324D01*
X06425Y050337D01*
X05325D01*
X053147Y050324D01*
X053051Y050284D01*
X052969Y050221D01*
X052651Y049903D01*
X052588Y04982D01*
X052548Y049725D01*
X052538Y049644D01*
X05246Y049543D01*
X052432Y049538D01*
X052403Y049543D01*
X052322Y049649D01*
X052208Y049737D01*
X052075Y049792D01*
X051932Y049811D01*
X051789Y049792D01*
X051656Y049737D01*
X051542Y049649D01*
X05146Y049543D01*
X051432Y049538D01*
X051403Y049543D01*
X051322Y049649D01*
X051208Y049737D01*
X051075Y049792D01*
X050932Y049811D01*
X050789Y049792D01*
X050656Y049737D01*
X050542Y049649D01*
X050454Y049535D01*
X050399Y049402D01*
X05038Y049259D01*
Y048959D01*
X050399Y048816D01*
X050423Y048759D01*
X050395Y048718D01*
X0495D01*
X049423Y048708D01*
X049351Y048678D01*
X049289Y048631D01*
X049002Y048343D01*
X048955Y048282D01*
X048925Y04821D01*
X048915Y048133D01*
Y04802D01*
X048741D01*
Y047126D01*
X048741D01*
Y04712D01*
X048741D01*
Y046971D01*
X048D01*
X048Y046971D01*
X047923Y046961D01*
X047851Y046931D01*
X047789Y046884D01*
X047789Y046884D01*
X047318Y046412D01*
X047268Y046433D01*
Y04718D01*
X047258Y047257D01*
X047228Y047329D01*
X047181Y047391D01*
X047181Y047391D01*
X043991Y050581D01*
X043929Y050628D01*
X043857Y050658D01*
X04378Y050668D01*
X01193D01*
X011853Y050658D01*
X011781Y050628D01*
X011719Y050581D01*
X010099Y048961D01*
X010099Y048961D01*
X008392Y047253D01*
X008346Y047272D01*
Y04802D01*
X008271D01*
X008251Y048066D01*
X008478Y048293D01*
X008526Y048355D01*
X008555Y048427D01*
X008557Y048442D01*
X008658Y048519D01*
X008745Y048633D01*
X0088Y048766D01*
X008819Y048909D01*
Y049209D01*
X0088Y049352D01*
X008745Y049485D01*
X008658Y049599D01*
X008543Y049687D01*
X00841Y049742D01*
X008268Y049761D01*
X008125Y049742D01*
X007992Y049687D01*
X007878Y049599D01*
X007796Y049493D01*
X007768Y049488D01*
X007739Y049493D01*
X007658Y049599D01*
X007544Y049687D01*
X00741Y049742D01*
X007268Y049761D01*
X007125Y049742D01*
X006992Y049687D01*
X006878Y049599D01*
X006796Y049493D01*
X006768Y049488D01*
X006739Y049493D01*
X006658Y049599D01*
X006543Y049687D01*
X00641Y049742D01*
X006268Y049761D01*
X006125Y049742D01*
X005992Y049687D01*
X005878Y049599D01*
X005796Y049493D01*
X005768Y049488D01*
X005739Y049493D01*
X005658Y049599D01*
X005544Y049687D01*
X00541Y049742D01*
X005268Y049761D01*
X005125Y049742D01*
X004992Y049687D01*
X004878Y049599D01*
X004796Y049493D01*
X004768Y049488D01*
X004739Y049493D01*
X004658Y049599D01*
X004543Y049687D01*
X00441Y049742D01*
X004268Y049761D01*
X004125Y049742D01*
X003992Y049687D01*
X003878Y049599D01*
X00379Y049485D01*
X003735Y049352D01*
X003716Y049209D01*
Y048909D01*
X003735Y048766D01*
X00375Y048729D01*
X003722Y048688D01*
X0025D01*
X0025Y048688D01*
X002423Y048678D01*
X002351Y048648D01*
X002289Y048601D01*
X002289Y048601D01*
X001758Y048069D01*
X00172Y04802D01*
X001497D01*
Y047126D01*
X001497D01*
Y04712D01*
X001497D01*
Y046226D01*
X001671D01*
Y045354D01*
X001639Y045323D01*
X001592Y045261D01*
X001562Y04519D01*
X001552Y045113D01*
Y042698D01*
X001562Y042621D01*
X001592Y042549D01*
X001639Y042488D01*
X002351Y041776D01*
X002351Y041751D01*
X002343Y041717D01*
X002342Y041715D01*
X002289Y041675D01*
X002289Y041675D01*
X001758Y041144D01*
X001711Y041082D01*
X001681Y04101D01*
X001671Y040933D01*
Y037981D01*
X001497D01*
Y037087D01*
X001497D01*
Y037081D01*
X001497D01*
Y036187D01*
X001696D01*
X001711Y036153D01*
X001758Y036091D01*
X002289Y035559D01*
X002289Y035559D01*
X002351Y035512D01*
X002423Y035482D01*
X0025Y035472D01*
X0025Y035472D01*
X003721D01*
Y034362D01*
X004815D01*
Y034524D01*
X004862Y03454D01*
X004878Y034519D01*
X004992Y034431D01*
X005125Y034376D01*
X005268Y034357D01*
X00541Y034376D01*
X005544Y034431D01*
X005658Y034519D01*
X005739Y034625D01*
X005768Y03463D01*
X005796Y034625D01*
X005878Y034519D01*
X005992Y034431D01*
X006125Y034376D01*
X006268Y034357D01*
X00641Y034376D01*
X006543Y034431D01*
X006658Y034519D01*
X006739Y034625D01*
X006768Y03463D01*
X006796Y034625D01*
X006878Y034519D01*
X006992Y034431D01*
X007125Y034376D01*
X007268Y034357D01*
X00741Y034376D01*
X007544Y034431D01*
X007658Y034519D01*
X007739Y034625D01*
X007768Y03463D01*
X007796Y034625D01*
X007878Y034519D01*
X007992Y034431D01*
X008125Y034376D01*
X008268Y034357D01*
X00841Y034376D01*
X008543Y034431D01*
X008658Y034519D01*
X008745Y034633D01*
X0088Y034766D01*
X008819Y034909D01*
Y035209D01*
X0088Y035352D01*
X008745Y035485D01*
X008658Y035599D01*
X008561Y035673D01*
X008555Y035717D01*
X008526Y035789D01*
X008478Y035851D01*
X008192Y036137D01*
X008213Y036187D01*
X008346D01*
Y037081D01*
X008346Y037081D01*
Y037087D01*
X008346D01*
X008346Y037131D01*
Y037981D01*
X008271D01*
Y039D01*
X008258Y039103D01*
X008218Y039199D01*
X008155Y039281D01*
X00669Y040745D01*
X006608Y040808D01*
X006512Y040848D01*
X006409Y040862D01*
X005918D01*
Y041165D01*
X006958D01*
X007261Y040862D01*
X007268Y040835D01*
X007312Y040759D01*
X007375Y040697D01*
X007451Y040653D01*
X007536Y04063D01*
X007624D01*
X007709Y040653D01*
X007785Y040697D01*
X007848Y040759D01*
X007892Y040835D01*
X007915Y040921D01*
Y041009D01*
X007892Y041094D01*
X007848Y04117D01*
X007785Y041232D01*
X007709Y041276D01*
X007682Y041284D01*
X007292Y041673D01*
X007231Y041721D01*
X007159Y04175D01*
X007082Y041761D01*
X005918D01*
Y041766D01*
X005821D01*
Y041915D01*
X004951D01*
Y041766D01*
X004855D01*
Y041163D01*
Y040663D01*
Y040163D01*
X005133D01*
X005188Y040121D01*
X005284Y040081D01*
X005386Y040067D01*
X006245D01*
X007477Y038836D01*
Y037981D01*
X007402D01*
Y037931D01*
X007394D01*
X007291Y037917D01*
X007195Y037878D01*
X007113Y037815D01*
X006829Y037531D01*
X006766Y037449D01*
X006726Y037353D01*
X006713Y03725D01*
Y036217D01*
X006255Y035759D01*
X006125Y035742D01*
X005992Y035687D01*
X005878Y035599D01*
X005796Y035493D01*
X005768Y035488D01*
X005739Y035493D01*
X005658Y035599D01*
X005566Y03567D01*
Y036D01*
X005555Y036077D01*
X005531Y036137D01*
X005553Y036187D01*
X006377D01*
Y037037D01*
X006377Y037081D01*
X006377D01*
Y037087D01*
X006377D01*
Y037981D01*
X006203D01*
Y038559D01*
X006193Y038636D01*
X006163Y038708D01*
X006116Y03877D01*
X004211Y040675D01*
X004149Y040722D01*
X004077Y040752D01*
X004Y040762D01*
X003878D01*
Y041163D01*
Y041663D01*
Y042163D01*
Y042663D01*
Y043163D01*
Y043766D01*
X003781D01*
Y043915D01*
X003346D01*
Y043965D01*
X003296D01*
Y04417D01*
X003161D01*
X003142Y044216D01*
X004016Y04509D01*
X007038D01*
X007115Y0451D01*
X007187Y04513D01*
X007248Y045177D01*
X007781Y045709D01*
X007781Y045709D01*
X007828Y045771D01*
X007858Y045843D01*
X007868Y04592D01*
X007868Y04592D01*
Y046226D01*
X008072D01*
Y043523D01*
X007537Y042988D01*
X007483Y04299D01*
X007425Y043048D01*
X007349Y043092D01*
X007264Y043115D01*
X007187D01*
X00716Y043158D01*
X007436Y043434D01*
X007464Y043442D01*
X00754Y043486D01*
X007602Y043548D01*
X007646Y043624D01*
X007669Y043709D01*
Y043798D01*
X007646Y043883D01*
X007602Y043959D01*
X00754Y044021D01*
X007464Y044065D01*
X007378Y044088D01*
X00729D01*
X007205Y044065D01*
X007129Y044021D01*
X007099Y043991D01*
X007043Y044006D01*
X007032Y044046D01*
X006988Y044123D01*
X006926Y044185D01*
X00685Y044229D01*
X006765Y044252D01*
X00673D01*
X006729Y044252D01*
X006652Y044262D01*
X005918D01*
Y044266D01*
X004855D01*
Y044047D01*
X004808Y044028D01*
X004785Y044051D01*
X004691Y044106D01*
X004586Y044134D01*
X004477D01*
X004372Y044106D01*
X004278Y044051D01*
X004201Y043974D01*
X004146Y04388D01*
X004118Y043775D01*
Y043666D01*
X004146Y043561D01*
X004201Y043467D01*
X004278Y04339D01*
X004357Y043344D01*
X004437Y043264D01*
X004519Y043201D01*
X004615Y043161D01*
X004718Y043148D01*
X004855D01*
Y042663D01*
Y042163D01*
X004951D01*
Y042015D01*
X005821D01*
Y042163D01*
X005918D01*
Y042167D01*
X006357D01*
X007355Y042106D01*
X007364Y042106D01*
X007373Y042105D01*
X007403Y042109D01*
X007432Y042111D01*
X007441Y042114D01*
X00745Y042115D01*
X007478Y042127D01*
X007506Y042136D01*
X007513Y042142D01*
X007522Y042145D01*
X007546Y042163D01*
X00757Y04218D01*
X007576Y042187D01*
X007584Y042192D01*
X008521Y04313D01*
X008567Y043111D01*
Y042682D01*
X008577Y042605D01*
X008607Y042533D01*
X008655Y042472D01*
X009388Y041738D01*
X00945Y041691D01*
X009485Y041676D01*
X009497Y041617D01*
X009279Y041399D01*
X009232Y041338D01*
X009202Y041266D01*
X009192Y041189D01*
Y03916D01*
X009202Y039083D01*
X009232Y039011D01*
X009235Y039007D01*
Y03809D01*
X009086D01*
Y037146D01*
X00998D01*
Y037146D01*
X009986D01*
Y037146D01*
X01088D01*
Y03732D01*
X011237D01*
X012648Y035909D01*
X012648Y035909D01*
X012709Y035862D01*
X012781Y035832D01*
X012858Y035822D01*
X015409D01*
X015421Y035806D01*
X015396Y035756D01*
X015381D01*
Y034362D01*
X016474D01*
Y034524D01*
X016522Y03454D01*
X016538Y034519D01*
X016652Y034431D01*
X016785Y034376D01*
X016928Y034357D01*
X01707Y034376D01*
X017203Y034431D01*
X017318Y034519D01*
X017399Y034625D01*
X017428Y03463D01*
X017456Y034625D01*
X017538Y034519D01*
X017652Y034431D01*
X017785Y034376D01*
X017928Y034357D01*
X01807Y034376D01*
X018203Y034431D01*
X018318Y034519D01*
X018399Y034625D01*
X018428Y03463D01*
X018456Y034625D01*
X018538Y034519D01*
X018652Y034431D01*
X018785Y034376D01*
X018928Y034357D01*
X01907Y034376D01*
X019203Y034431D01*
X019318Y034519D01*
X019399Y034625D01*
X019428Y03463D01*
X019456Y034625D01*
X019538Y034519D01*
X019652Y034431D01*
X019785Y034376D01*
X019928Y034357D01*
X02007Y034376D01*
X020203Y034431D01*
X020318Y034519D01*
X020405Y034633D01*
X02046Y034766D01*
X020479Y034909D01*
Y035209D01*
X02046Y035352D01*
X020405Y035485D01*
X020318Y035599D01*
X020225Y03567D01*
Y03602D01*
X020225Y03602D01*
X02022Y036059D01*
X020215Y036097D01*
X020185Y036169D01*
X020138Y036231D01*
X019589Y03678D01*
Y037146D01*
X019738D01*
Y03809D01*
X018844D01*
Y037146D01*
X018994D01*
Y036656D01*
X019004Y036579D01*
X019033Y036507D01*
X019081Y036446D01*
X01963Y035897D01*
Y03567D01*
X019538Y035599D01*
X019456Y035493D01*
X019428Y035488D01*
X019399Y035493D01*
X019318Y035599D01*
X019203Y035687D01*
X01907Y035742D01*
X018928Y035761D01*
X018785Y035742D01*
X018652Y035687D01*
X018538Y035599D01*
X018456Y035493D01*
X018428Y035488D01*
X018399Y035493D01*
X018325Y03559D01*
Y03608D01*
X018311Y036183D01*
X018271Y036279D01*
X018208Y036361D01*
X017301Y037269D01*
Y03821D01*
X017287Y038313D01*
X017247Y038409D01*
X017184Y038491D01*
X017102Y038554D01*
X017006Y038594D01*
X016904Y038607D01*
X016364D01*
X014242Y04073D01*
X01416Y040793D01*
X014064Y040832D01*
X013961Y040846D01*
X013412D01*
X013397Y040886D01*
X013397Y040896D01*
X013457Y040956D01*
X013501Y041032D01*
X013524Y041117D01*
Y041205D01*
X013501Y041291D01*
X013457Y041367D01*
X013394Y041429D01*
X013318Y041473D01*
X013262Y041488D01*
X013097Y041653D01*
X013036Y0417D01*
X012964Y04173D01*
X012933Y041734D01*
Y041751D01*
X012837D01*
Y041899D01*
X012402D01*
Y041999D01*
X012837D01*
Y042147D01*
X012915D01*
X012921Y042137D01*
X012983Y042075D01*
X01306Y042031D01*
X013145Y042008D01*
X013233D01*
X013318Y042031D01*
X013394Y042075D01*
X013457Y042137D01*
X013475Y042169D01*
X013525Y042176D01*
X013644Y042057D01*
X013657Y042026D01*
X013704Y041965D01*
X014415Y041254D01*
X014415Y041254D01*
X014477Y041207D01*
X014548Y041177D01*
X014625Y041167D01*
X014625Y041167D01*
X016075D01*
X016094Y041121D01*
X015767Y040793D01*
X015704Y040711D01*
X015664Y040615D01*
X01565Y040512D01*
Y040205D01*
X015634Y040144D01*
Y040036D01*
X015662Y03993D01*
X015717Y039836D01*
X015794Y039759D01*
X015888Y039705D01*
X015993Y039677D01*
X016102D01*
X016207Y039705D01*
X016301Y039759D01*
X016378Y039836D01*
X016433Y03993D01*
X016461Y040036D01*
Y040144D01*
X016445Y040205D01*
Y040346D01*
X016478Y040373D01*
X016523Y040354D01*
Y040163D01*
X017312D01*
Y040043D01*
X017238Y039969D01*
X017211Y039962D01*
X017135Y039918D01*
X017072Y039855D01*
X017028Y039779D01*
X017005Y039694D01*
Y039606D01*
X017028Y039521D01*
X017072Y039445D01*
X017135Y039382D01*
X017211Y039338D01*
X017296Y039315D01*
X017384D01*
X017469Y039338D01*
X017545Y039382D01*
X017608Y039445D01*
X017652Y039521D01*
X017659Y039548D01*
X017821Y039709D01*
X017821Y039709D01*
X017868Y039771D01*
X017898Y039843D01*
X017908Y03992D01*
X017908Y03992D01*
Y041965D01*
X017898Y042042D01*
X017868Y042113D01*
X017821Y042175D01*
X017759Y042222D01*
X017687Y042252D01*
X01761Y042262D01*
X017586D01*
Y042266D01*
X017489D01*
Y042415D01*
X017054D01*
X016619D01*
Y042266D01*
X016523D01*
Y041762D01*
X014749D01*
X014185Y042326D01*
X014173Y042356D01*
X014125Y042418D01*
X013508Y043035D01*
X013501Y043062D01*
X013457Y043139D01*
X013394Y043201D01*
X013318Y043245D01*
X013233Y043268D01*
X013145D01*
X01306Y043245D01*
X013051Y04324D01*
X012933D01*
Y043647D01*
Y043651D01*
X01394D01*
X014837Y042754D01*
X014899Y042707D01*
X014971Y042677D01*
X015048Y042667D01*
X015048Y042667D01*
X016523D01*
Y042663D01*
X016619D01*
Y042515D01*
X017054D01*
X017489D01*
Y042663D01*
X017586D01*
Y043163D01*
Y043663D01*
Y044266D01*
X017308D01*
X017253Y044308D01*
X017157Y044348D01*
X017054Y044362D01*
X015046D01*
X014758Y04465D01*
X014675Y044713D01*
X01458Y044752D01*
X014477Y044766D01*
X0117D01*
X011597Y044752D01*
X011501Y044713D01*
X011419Y04465D01*
X011356Y044567D01*
X011316Y044472D01*
X011303Y044369D01*
Y043749D01*
X011316Y043646D01*
X011356Y04355D01*
X011419Y043468D01*
X011442Y043445D01*
X011406Y043397D01*
X011366Y043302D01*
X011353Y043199D01*
Y040699D01*
X011356Y040675D01*
X011309Y040651D01*
X011301Y040659D01*
X011239Y040707D01*
X011167Y040736D01*
X01109Y040747D01*
X010893D01*
Y041147D01*
Y041647D01*
Y042147D01*
Y042647D01*
Y043147D01*
Y043751D01*
X010797D01*
Y043899D01*
X010362D01*
Y043999D01*
X010797D01*
Y044154D01*
X0104D01*
X010381Y0442D01*
X011493Y045312D01*
X018001D01*
X018078Y045322D01*
X01815Y045352D01*
X018212Y045399D01*
X018602Y045789D01*
X018602Y045789D01*
X018649Y045851D01*
X018679Y045923D01*
X018689Y046D01*
Y046201D01*
X018838D01*
Y046201D01*
X018844D01*
Y046201D01*
X019738D01*
Y047145D01*
X019589D01*
Y047417D01*
X020138Y047966D01*
X020185Y048027D01*
X020215Y048099D01*
X02022Y048138D01*
X020225Y048176D01*
X020225Y048176D01*
Y048448D01*
X020318Y048519D01*
X020405Y048633D01*
X02046Y048766D01*
X020479Y048909D01*
Y049209D01*
X02046Y049352D01*
X020405Y049485D01*
X020403Y049488D01*
X020425Y049533D01*
X027089D01*
X027116Y049491D01*
X027079Y049402D01*
X027066Y049298D01*
X024289D01*
X024212Y049288D01*
X02414Y049258D01*
X024079Y049211D01*
X022657Y047789D01*
X022607Y047809D01*
Y047932D01*
X021713D01*
Y046989D01*
X022537D01*
X022558Y046939D01*
X019882Y044262D01*
X019626D01*
Y044266D01*
X018563D01*
Y043663D01*
Y043163D01*
Y042663D01*
Y042163D01*
Y041663D01*
Y041163D01*
Y040663D01*
X018659D01*
Y040515D01*
X019094D01*
X019529D01*
Y040663D01*
X019626D01*
Y040667D01*
X021326D01*
X021403Y040677D01*
X021475Y040707D01*
X021537Y040754D01*
X022887Y042105D01*
X022894Y042102D01*
X022933Y042079D01*
X022955Y041971D01*
X023Y041861D01*
X023065Y041763D01*
X023149Y04168D01*
X023247Y041614D01*
X023356Y041569D01*
X023472Y041546D01*
X023482D01*
Y042146D01*
X023582D01*
Y041546D01*
X023591D01*
X023645Y041556D01*
X023677Y041518D01*
X023672Y041507D01*
X023662Y04143D01*
Y039883D01*
X021459Y037681D01*
X021412Y037619D01*
X021382Y037547D01*
X021372Y03747D01*
Y037303D01*
X020813D01*
Y036359D01*
X021663D01*
X021707Y036359D01*
Y036359D01*
X021713D01*
Y036359D01*
X022607D01*
Y036485D01*
X022657Y036505D01*
X023603Y035559D01*
X023603Y035559D01*
X023664Y035512D01*
X023736Y035482D01*
X023813Y035472D01*
X027064D01*
X027091Y035431D01*
X027079Y035402D01*
X027061Y035259D01*
Y034959D01*
X027079Y034816D01*
X027134Y034683D01*
X027222Y034569D01*
X027336Y034481D01*
X027469Y034426D01*
X027612Y034407D01*
X027755Y034426D01*
X027888Y034481D01*
X028002Y034569D01*
X028084Y034675D01*
X028112Y03468D01*
X028141Y034675D01*
X028222Y034569D01*
X028336Y034481D01*
X028469Y034426D01*
X028612Y034407D01*
X028755Y034426D01*
X028888Y034481D01*
X029002Y034569D01*
X029084Y034675D01*
X029112Y03468D01*
X029141Y034675D01*
X029215Y034578D01*
Y0345D01*
X029229Y034397D01*
X029268Y034301D01*
X029331Y034219D01*
X030211Y033339D01*
X030294Y033276D01*
X030389Y033236D01*
X030492Y033223D01*
X033D01*
X033103Y033236D01*
X033199Y033276D01*
X033281Y033339D01*
X034336Y034394D01*
X034399Y034477D01*
X034439Y034572D01*
X034452Y034675D01*
Y036187D01*
X034527D01*
Y036237D01*
X036339D01*
Y036187D01*
X036414D01*
Y03596D01*
X036427Y035857D01*
X036467Y035761D01*
X03653Y035679D01*
X03889Y033319D01*
X038972Y033256D01*
X039068Y033216D01*
X039171Y033203D01*
X0405D01*
X040603Y033216D01*
X040699Y033256D01*
X040781Y033319D01*
X041528Y034066D01*
X041591Y034149D01*
X041631Y034244D01*
X041644Y034347D01*
Y034528D01*
X041719Y034625D01*
X041747Y03463D01*
X041776Y034625D01*
X041857Y034519D01*
X041971Y034431D01*
X042104Y034376D01*
X042247Y034357D01*
X04239Y034376D01*
X042523Y034431D01*
X042637Y034519D01*
X042719Y034625D01*
X042747Y03463D01*
X042776Y034625D01*
X042857Y034519D01*
X042971Y034431D01*
X043104Y034376D01*
X043247Y034357D01*
X04339Y034376D01*
X043523Y034431D01*
X043637Y034519D01*
X043725Y034633D01*
X04378Y034766D01*
X043799Y034909D01*
Y035209D01*
X04378Y035352D01*
X043725Y035485D01*
X043637Y035599D01*
X043565Y035655D01*
X043562Y035713D01*
X043839Y03599D01*
X044763D01*
Y03684D01*
X044763Y036884D01*
X044763Y036934D01*
Y037661D01*
X045437Y038335D01*
X045541D01*
X045659Y038367D01*
X045765Y038428D01*
X045852Y038514D01*
X045913Y03862D01*
X045944Y038738D01*
Y03886D01*
X045913Y038978D01*
X045852Y039084D01*
X045765Y039171D01*
X045659Y039232D01*
X045541Y039263D01*
X045419D01*
X045301Y039232D01*
X045195Y039171D01*
X045109Y039084D01*
X045048Y038978D01*
X045016Y03886D01*
Y038775D01*
X044994Y038758D01*
X044944Y038784D01*
Y03886D01*
X044913Y038978D01*
X044852Y039084D01*
X044765Y039171D01*
X044659Y039232D01*
X044541Y039263D01*
X044419D01*
X044301Y039232D01*
X044195Y039171D01*
X044109Y039084D01*
X044048Y038978D01*
X044016Y03886D01*
Y038775D01*
X043994Y038758D01*
X043944Y038784D01*
Y03886D01*
X043913Y038978D01*
X043852Y039084D01*
X043765Y039171D01*
X043659Y039232D01*
X043541Y039263D01*
X043419D01*
X043301Y039232D01*
X043195Y039171D01*
X043109Y039084D01*
X043048Y038978D01*
X043016Y03886D01*
Y038775D01*
X042994Y038758D01*
X042944Y038784D01*
Y03886D01*
X042913Y038978D01*
X042852Y039084D01*
X042765Y039171D01*
X042659Y039232D01*
X042541Y039263D01*
X042419D01*
X042301Y039232D01*
X042195Y039171D01*
X042122Y039097D01*
X041D01*
X040923Y039087D01*
X040851Y039057D01*
X040789Y03901D01*
X03975Y03797D01*
X039703Y037909D01*
X039673Y037837D01*
X039666Y037784D01*
X039489D01*
Y036934D01*
X039489Y03689D01*
X039489Y03684D01*
Y036053D01*
X039192Y035756D01*
X0387D01*
Y034698D01*
X038654Y034678D01*
X037208Y036124D01*
Y036187D01*
X037283D01*
Y037037D01*
X037283Y037081D01*
X037283Y037131D01*
Y037981D01*
X037109D01*
Y039269D01*
X037109Y039269D01*
X037099Y039346D01*
X037069Y039418D01*
X037022Y03948D01*
X034899Y041602D01*
X034886Y041701D01*
X034836Y041821D01*
X034756Y041925D01*
X034653Y042005D01*
X034559Y042044D01*
Y042098D01*
X034653Y042137D01*
X034756Y042217D01*
X034836Y04232D01*
X034886Y042441D01*
X034903Y042571D01*
X034886Y042701D01*
X034836Y042821D01*
X034756Y042925D01*
X034653Y043005D01*
X034559Y043044D01*
Y043098D01*
X034653Y043137D01*
X034756Y043217D01*
X034836Y04332D01*
X034886Y043441D01*
X034903Y043571D01*
X034886Y043701D01*
X034836Y043821D01*
X034756Y043925D01*
X034653Y044005D01*
X034532Y044055D01*
X034402Y044072D01*
X034102D01*
X033972Y044055D01*
X033851Y044005D01*
X033748Y043925D01*
X033668Y043821D01*
X033618Y043701D01*
X033601Y043571D01*
X033618Y043441D01*
X033668Y04332D01*
X033748Y043217D01*
X033851Y043137D01*
X033945Y043098D01*
Y043044D01*
X033851Y043005D01*
X033748Y042925D01*
X033668Y042821D01*
X033618Y042701D01*
X033601Y042571D01*
X033618Y042441D01*
X033668Y04232D01*
X033748Y042217D01*
X033851Y042137D01*
X033945Y042098D01*
Y042044D01*
X033851Y042005D01*
X033748Y041925D01*
X033668Y041821D01*
X033618Y041701D01*
X033601Y041571D01*
X033618Y041441D01*
X033668Y04132D01*
X033748Y041217D01*
X033851Y041137D01*
X033945Y041098D01*
Y041044D01*
X033851Y041005D01*
X033748Y040925D01*
X033668Y040821D01*
X033618Y040701D01*
X033601Y040571D01*
X033618Y040441D01*
X033668Y04032D01*
X033748Y040216D01*
X033851Y040137D01*
X033954Y040094D01*
Y03927D01*
X033845Y039161D01*
X033797Y039099D01*
X033767Y039027D01*
X033757Y03895D01*
Y037981D01*
X033583D01*
Y037131D01*
X033583Y037087D01*
X033583Y037037D01*
Y036187D01*
X033658D01*
Y03484D01*
X032836Y034017D01*
X030657D01*
X030047Y034627D01*
X030084Y034675D01*
X030112Y03468D01*
X030141Y034675D01*
X030222Y034569D01*
X030336Y034481D01*
X030469Y034426D01*
X030612Y034407D01*
X030755Y034426D01*
X030888Y034481D01*
X031002Y034569D01*
X031084Y034675D01*
X031112Y03468D01*
X031141Y034675D01*
X031222Y034569D01*
X031336Y034481D01*
X031469Y034426D01*
X031612Y034407D01*
X031755Y034426D01*
X031888Y034481D01*
X032002Y034569D01*
X03209Y034683D01*
X032145Y034816D01*
X032164Y034959D01*
Y035259D01*
X032145Y035402D01*
X03209Y035535D01*
X032002Y035649D01*
X031909Y035721D01*
X0319Y035787D01*
X03187Y035859D01*
X031823Y035921D01*
X031435Y036309D01*
X031455Y036359D01*
X031549D01*
Y037303D01*
X030656D01*
Y037303D01*
X030649D01*
Y037303D01*
X0305D01*
Y038608D01*
X0305Y038608D01*
X03049Y038685D01*
X03046Y038757D01*
X030413Y038818D01*
X030413Y038818D01*
X027437Y041794D01*
X027439Y041802D01*
X027498Y041837D01*
X027519Y041831D01*
Y042096D01*
X027255D01*
X027261Y042074D01*
X027225Y042015D01*
X027218Y042014D01*
X025453Y043778D01*
X025472Y043824D01*
X026551D01*
X026628Y043834D01*
X0267Y043864D01*
X026762Y043911D01*
X029839Y046989D01*
X030649D01*
Y046989D01*
X030656D01*
Y046989D01*
X031549D01*
Y047932D01*
X031501D01*
X031482Y047979D01*
X031823Y048319D01*
X03187Y048381D01*
X031883Y048412D01*
X032159D01*
Y049533D01*
X034786D01*
X037026Y047292D01*
X037108Y047229D01*
X037204Y04719D01*
X037307Y047176D01*
X037913D01*
X037914Y047126D01*
Y04712D01*
X037914D01*
Y046226D01*
X038088D01*
Y046D01*
X038098Y045923D01*
X038128Y045851D01*
X038175Y045789D01*
X039301Y044664D01*
X039301Y044664D01*
X039362Y044616D01*
X039434Y044587D01*
X039511Y044577D01*
X039511Y044577D01*
X042016D01*
Y04441D01*
X042944D01*
Y044895D01*
X042994Y04492D01*
X043016Y044903D01*
Y044813D01*
X043048Y044695D01*
X043109Y044589D01*
X043195Y044503D01*
X043301Y044442D01*
X043419Y04441D01*
X043541D01*
X043659Y044442D01*
X043765Y044503D01*
X043852Y044589D01*
X043913Y044695D01*
X043944Y044813D01*
Y04489D01*
X043994Y044915D01*
X044016Y044899D01*
Y044813D01*
X044048Y044695D01*
X044109Y044589D01*
X044195Y044503D01*
X044301Y044442D01*
X044419Y04441D01*
X044541D01*
X044659Y044442D01*
X044765Y044503D01*
X044852Y044589D01*
X044913Y044695D01*
X044944Y044813D01*
Y04489D01*
X044994Y044915D01*
X045016Y044899D01*
Y044813D01*
X045048Y044695D01*
X045109Y044589D01*
X045195Y044503D01*
X045301Y044442D01*
X045419Y04441D01*
X045541D01*
X045659Y044442D01*
X045765Y044503D01*
X045852Y044589D01*
X045913Y044695D01*
X045944Y044813D01*
Y04489D01*
X045994Y044915D01*
X046016Y044899D01*
Y044813D01*
X046048Y044695D01*
X046109Y044589D01*
X046195Y044503D01*
X046301Y044442D01*
X046419Y04441D01*
X046541D01*
X04663Y044434D01*
X046673Y044425D01*
X046691Y044402D01*
X046712Y044351D01*
X046759Y044289D01*
X047349Y043699D01*
X047411Y043652D01*
X047483Y043622D01*
X04756Y043612D01*
X048246D01*
X052547Y039311D01*
X052524Y039263D01*
X052419D01*
X052301Y039232D01*
X052195Y039171D01*
X052109Y039084D01*
X052048Y038978D01*
X052016Y03886D01*
Y038738D01*
X052037Y03866D01*
X052025Y038639D01*
X051998Y038613D01*
X051847D01*
X051832Y03864D01*
X051824Y038663D01*
X051847Y038749D01*
X05148D01*
Y038799D01*
X05143D01*
Y039166D01*
X051339Y039142D01*
X051291Y039114D01*
X051228Y039134D01*
X051222Y039149D01*
X051175Y039211D01*
X051175Y039211D01*
X050892Y039494D01*
X05083Y039541D01*
X050758Y039571D01*
X050681Y039581D01*
X049964D01*
X049887Y039571D01*
X049815Y039541D01*
X049754Y039494D01*
X049754Y039494D01*
X049523Y039263D01*
X049419D01*
X049301Y039232D01*
X049195Y039171D01*
X049109Y039084D01*
X049048Y038978D01*
X049016Y03886D01*
Y038784D01*
X048966Y038758D01*
X048944Y038775D01*
Y03886D01*
X048913Y038978D01*
X048852Y039084D01*
X048765Y039171D01*
X048659Y039232D01*
X048541Y039263D01*
X048419D01*
X048301Y039232D01*
X04822Y039185D01*
X048201Y039211D01*
X047911Y039501D01*
X047849Y039548D01*
X047777Y039578D01*
X0477Y039588D01*
X046971D01*
X046971Y039588D01*
X046894Y039578D01*
X046822Y039548D01*
X046761Y039501D01*
X046761Y039501D01*
X046523Y039263D01*
X046419D01*
X046301Y039232D01*
X046195Y039171D01*
X046109Y039084D01*
X046048Y038978D01*
X046016Y03886D01*
Y038738D01*
X046048Y03862D01*
X046109Y038514D01*
X046195Y038428D01*
X046301Y038367D01*
X046419Y038335D01*
X046541D01*
X046659Y038367D01*
X046765Y038428D01*
X046852Y038514D01*
X046913Y03862D01*
X046944Y038738D01*
Y038824D01*
X046966Y03884D01*
X047016Y038815D01*
Y038738D01*
X047048Y03862D01*
X047109Y038514D01*
X047182Y038441D01*
Y03667D01*
X047193Y036593D01*
X047222Y036521D01*
X04727Y036459D01*
X047969Y035759D01*
X048031Y035712D01*
X048103Y035682D01*
X048141Y035677D01*
X04818Y035672D01*
X04818Y035672D01*
X04913D01*
X049207Y035682D01*
X049279Y035712D01*
X049341Y035759D01*
X049639Y036058D01*
X049639Y036058D01*
X049675Y036105D01*
X049725Y036088D01*
Y03599D01*
X049899D01*
Y034693D01*
X049909Y034616D01*
X049939Y034544D01*
X049986Y034483D01*
X050289Y034179D01*
X050289Y034179D01*
X050351Y034132D01*
X050423Y034102D01*
X0505Y034092D01*
X0505Y034092D01*
X051932D01*
X052009Y034102D01*
X052081Y034132D01*
X052142Y034179D01*
X05219Y034241D01*
X05222Y034313D01*
X05223Y03439D01*
Y034498D01*
X052322Y034569D01*
X052403Y034675D01*
X052432Y03468D01*
X05246Y034675D01*
X052539Y034572D01*
X052548Y034505D01*
X052588Y03441D01*
X052651Y034327D01*
X052969Y034009D01*
X053051Y033946D01*
X053147Y033906D01*
X05325Y033893D01*
X05525D01*
X055353Y033906D01*
X055449Y033946D01*
X055531Y034009D01*
X055881Y034359D01*
X055944Y034441D01*
X055984Y034537D01*
X055997Y03464D01*
Y034966D01*
X056043Y034985D01*
X057199Y033829D01*
X057281Y033766D01*
X057377Y033726D01*
X05748Y033713D01*
X064327D01*
X06443Y033726D01*
X064525Y033766D01*
X064608Y033829D01*
X064848Y034069D01*
X064911Y034151D01*
X06495Y034247D01*
X064964Y03435D01*
Y034528D01*
X065038Y034625D01*
X065067Y03463D01*
X065095Y034625D01*
X065177Y034519D01*
X065291Y034431D01*
X065424Y034376D01*
X065567Y034357D01*
X06571Y034376D01*
X065843Y034431D01*
X065957Y034519D01*
X066038Y034625D01*
X066067Y03463D01*
X066095Y034625D01*
X066177Y034519D01*
X066291Y034431D01*
X066424Y034376D01*
X066567Y034357D01*
X06671Y034376D01*
X066843Y034431D01*
X066957Y034519D01*
X067045Y034633D01*
X0671Y034766D01*
X067118Y034909D01*
Y035209D01*
X0671Y035352D01*
X067045Y035485D01*
X066957Y035599D01*
X066865Y03567D01*
Y03587D01*
X066865Y03587D01*
X066855Y035947D01*
X066825Y036019D01*
X066778Y036081D01*
X066211Y036648D01*
X066149Y036695D01*
X066077Y036725D01*
X066Y036735D01*
X065826D01*
Y036884D01*
X065826D01*
Y03689D01*
X065826D01*
Y037784D01*
X065047D01*
X064685Y038146D01*
X064704Y038192D01*
X068524D01*
X070704Y036013D01*
X070688Y035953D01*
Y035803D01*
X070727Y035657D01*
X070802Y035527D01*
X070909Y03542D01*
X071039Y035345D01*
X071185Y035306D01*
X071335D01*
X071481Y035345D01*
X071611Y03542D01*
X071717Y035527D01*
X071793Y035657D01*
X071832Y035803D01*
Y035953D01*
X071793Y036099D01*
X071717Y036229D01*
X071611Y036336D01*
X071481Y036411D01*
X071335Y03645D01*
X071185D01*
X071125Y036434D01*
X068943Y038616D01*
X068962Y038662D01*
X07221D01*
X072287Y038672D01*
X072359Y038702D01*
X072421Y038749D01*
X072691Y039019D01*
X072691Y039019D01*
X072738Y039081D01*
X072768Y039153D01*
X072778Y03923D01*
X072778Y03923D01*
Y041137D01*
X073227Y041585D01*
X073275Y041573D01*
X073286Y041531D01*
X073361Y041401D01*
X073468Y041294D01*
X073598Y041219D01*
X073744Y04118D01*
X073894D01*
X07404Y041219D01*
X07417Y041294D01*
X074276Y041401D01*
X074352Y041531D01*
X074391Y041677D01*
Y041827D01*
X074352Y041973D01*
X074276Y042103D01*
X07417Y04221D01*
X07404Y042285D01*
X073998Y042296D01*
X073985Y042344D01*
X074505Y042864D01*
X074551Y042845D01*
Y032752D01*
X000252D01*
Y051933D01*
X074551D01*
Y049295D01*
D02*
G37*
G36*
X074122Y048817D02*
Y044287D01*
X074079Y044262D01*
X07404Y044285D01*
X073894Y044324D01*
X073744D01*
X073598Y044285D01*
X073468Y04421D01*
X073361Y044103D01*
X073286Y043973D01*
X073247Y043827D01*
Y043677D01*
X073286Y043531D01*
X073361Y043401D01*
X073468Y043294D01*
X073598Y043219D01*
X073744Y04318D01*
X073894D01*
X073917Y043186D01*
X073942Y043143D01*
X072269Y041471D01*
X072222Y041409D01*
X072192Y041337D01*
X072182Y04126D01*
Y039353D01*
X072087Y039258D01*
X071598D01*
X071584Y039308D01*
X07167Y039357D01*
X071776Y039464D01*
X071852Y039594D01*
X071891Y03974D01*
Y03989D01*
X071852Y040036D01*
X071776Y040166D01*
X07167Y040273D01*
X07154Y040348D01*
X071394Y040387D01*
X071244D01*
X071098Y040348D01*
X070968Y040273D01*
X070861Y040166D01*
X070831Y040113D01*
X065663D01*
X061413Y044363D01*
X061436Y04441D01*
X061541D01*
X061659Y044442D01*
X061765Y044503D01*
X061852Y044589D01*
X061913Y044695D01*
X061944Y044813D01*
Y044936D01*
X061913Y045054D01*
X061852Y045159D01*
X061765Y045246D01*
X061659Y045307D01*
X061541Y045339D01*
X061419D01*
X061301Y045307D01*
X061195Y045246D01*
X061109Y045159D01*
X061048Y045054D01*
X061016Y044936D01*
Y044859D01*
X060966Y044834D01*
X060944Y04485D01*
Y044936D01*
X060913Y045054D01*
X060852Y045159D01*
X060765Y045246D01*
X060659Y045307D01*
X060541Y045339D01*
X060419D01*
X060301Y045307D01*
X060195Y045246D01*
X060109Y045159D01*
X060048Y045054D01*
X060016Y044936D01*
Y044813D01*
X060048Y044695D01*
X060109Y044589D01*
X060195Y044503D01*
X060301Y044442D01*
X060419Y04441D01*
X060523D01*
X065329Y039604D01*
X065391Y039557D01*
X065463Y039527D01*
X065501Y039522D01*
X06554Y039517D01*
X06554Y039517D01*
X070831D01*
X070861Y039464D01*
X070968Y039357D01*
X071054Y039308D01*
X07104Y039258D01*
X063518D01*
X058413Y044363D01*
X058436Y04441D01*
X058541D01*
X058659Y044442D01*
X058765Y044503D01*
X058852Y044589D01*
X058913Y044695D01*
X058944Y044813D01*
Y044936D01*
X058913Y045054D01*
X058852Y045159D01*
X058765Y045246D01*
X058659Y045307D01*
X058541Y045339D01*
X058419D01*
X058301Y045307D01*
X058195Y045246D01*
X058109Y045159D01*
X058048Y045054D01*
X058016Y044936D01*
Y044859D01*
X057966Y044834D01*
X057944Y04485D01*
Y044936D01*
X057913Y045054D01*
X057852Y045159D01*
X057765Y045246D01*
X057659Y045307D01*
X057541Y045339D01*
X057419D01*
X057301Y045307D01*
X057195Y045246D01*
X057109Y045159D01*
X057048Y045054D01*
X057016Y044936D01*
Y044813D01*
X057048Y044695D01*
X057109Y044589D01*
X057195Y044503D01*
X057301Y044442D01*
X057419Y04441D01*
X057523D01*
X0623Y039634D01*
X06228Y039588D01*
X060971D01*
X060971Y039588D01*
X060894Y039578D01*
X060822Y039548D01*
X060761Y039501D01*
X06076Y039501D01*
X060523Y039263D01*
X060419D01*
X060301Y039232D01*
X060195Y039171D01*
X060109Y039084D01*
X060048Y038978D01*
X060016Y03886D01*
Y038738D01*
X060048Y03862D01*
X060109Y038514D01*
X060157Y038466D01*
X060136Y038416D01*
X059825D01*
X059804Y038466D01*
X059852Y038514D01*
X059913Y03862D01*
X059944Y038738D01*
Y03886D01*
X059913Y038978D01*
X059852Y039084D01*
X059765Y039171D01*
X059659Y039232D01*
X059541Y039263D01*
X059419D01*
X059301Y039232D01*
X059195Y039171D01*
X059109Y039084D01*
X059048Y038978D01*
X059016Y03886D01*
Y038784D01*
X058966Y038758D01*
X058944Y038775D01*
Y03886D01*
X058913Y038978D01*
X058852Y039084D01*
X058765Y039171D01*
X058659Y039232D01*
X058541Y039263D01*
X058419D01*
X058301Y039232D01*
X058195Y039171D01*
X058109Y039084D01*
X058048Y038978D01*
X058016Y03886D01*
Y038784D01*
X057966Y038758D01*
X057944Y038775D01*
Y03886D01*
X057913Y038978D01*
X057852Y039084D01*
X057765Y039171D01*
X057659Y039232D01*
X057541Y039263D01*
X057419D01*
X057301Y039232D01*
X057195Y039171D01*
X057109Y039084D01*
X057048Y038978D01*
X057016Y03886D01*
Y038738D01*
X057048Y03862D01*
X057109Y038514D01*
X057195Y038428D01*
X057301Y038367D01*
X057419Y038335D01*
X057523D01*
X058177Y037681D01*
X058158Y037635D01*
X057066D01*
X056413Y038288D01*
X056436Y038335D01*
X056541D01*
X056659Y038367D01*
X056765Y038428D01*
X056852Y038514D01*
X056913Y03862D01*
X056944Y038738D01*
Y03886D01*
X056913Y038978D01*
X056852Y039084D01*
X056765Y039171D01*
X056659Y039232D01*
X056541Y039263D01*
X056419D01*
X056301Y039232D01*
X056195Y039171D01*
X056109Y039084D01*
X056048Y038978D01*
X056016Y03886D01*
Y038784D01*
X055966Y038758D01*
X055944Y038775D01*
Y03886D01*
X055913Y038978D01*
X055852Y039084D01*
X055765Y039171D01*
X055659Y039232D01*
X055541Y039263D01*
X055419D01*
X055301Y039232D01*
X055195Y039171D01*
X055109Y039084D01*
X055048Y038978D01*
X055016Y03886D01*
Y038738D01*
X055048Y03862D01*
X055109Y038514D01*
X055195Y038428D01*
X055301Y038367D01*
X055419Y038335D01*
X055479D01*
X055481Y038332D01*
X055455Y038282D01*
X053466D01*
X053464Y038285D01*
X053492Y038335D01*
X053541D01*
X053659Y038367D01*
X053765Y038428D01*
X053852Y038514D01*
X053913Y03862D01*
X053944Y038738D01*
Y03886D01*
X053913Y038978D01*
X053852Y039084D01*
X053765Y039171D01*
X053659Y039232D01*
X053541Y039263D01*
X053437D01*
X04858Y044121D01*
X048518Y044168D01*
X048447Y044198D01*
X04837Y044208D01*
X047683D01*
X047525Y044366D01*
X047549Y044412D01*
X047659Y044442D01*
X047765Y044503D01*
X047852Y044589D01*
X047913Y044695D01*
X047944Y044813D01*
Y044936D01*
X047913Y045054D01*
X047852Y045159D01*
X047778Y045233D01*
Y04603D01*
X048123Y046375D01*
X048741D01*
Y046226D01*
X049346D01*
X049365Y04618D01*
X048523Y045339D01*
X048419D01*
X048301Y045307D01*
X048195Y045246D01*
X048109Y045159D01*
X048048Y045054D01*
X048016Y044936D01*
Y044813D01*
X048048Y044695D01*
X048109Y044589D01*
X048195Y044503D01*
X048301Y044442D01*
X048419Y04441D01*
X048541D01*
X048659Y044442D01*
X048765Y044503D01*
X048852Y044589D01*
X048913Y044695D01*
X048944Y044813D01*
Y044899D01*
X048966Y044915D01*
X049016Y04489D01*
Y044813D01*
X049048Y044695D01*
X049109Y044589D01*
X049195Y044503D01*
X049301Y044442D01*
X049419Y04441D01*
X049541D01*
X049659Y044442D01*
X049765Y044503D01*
X049852Y044589D01*
X049913Y044695D01*
X049944Y044813D01*
Y044936D01*
X049913Y045054D01*
X049852Y045159D01*
X049765Y045246D01*
X049659Y045307D01*
X049541Y045339D01*
X049436D01*
X049413Y045386D01*
X050253Y046226D01*
X051062D01*
Y04712D01*
X051062D01*
Y047126D01*
X051062D01*
Y047275D01*
X051173D01*
X05125Y047286D01*
X051322Y047315D01*
X051384Y047363D01*
X051647Y047626D01*
X051694Y047607D01*
Y04717D01*
X051694Y047126D01*
X051694Y047076D01*
Y046226D01*
X05179D01*
X051809Y04618D01*
X05127Y045641D01*
X051222Y045579D01*
X051193Y045507D01*
X051182Y04543D01*
Y045233D01*
X051109Y045159D01*
X051048Y045054D01*
X051016Y044936D01*
Y044813D01*
X051048Y044695D01*
X051109Y044589D01*
X051195Y044503D01*
X051301Y044442D01*
X051419Y04441D01*
X051541D01*
X051659Y044442D01*
X051718Y044476D01*
X051732Y044471D01*
X051779Y044409D01*
X052039Y044149D01*
X052039Y044149D01*
X052101Y044102D01*
X052173Y044072D01*
X05225Y044062D01*
X05225Y044062D01*
X055966D01*
X056043Y044072D01*
X056115Y044102D01*
X056176Y044149D01*
X056437Y04441D01*
X056541D01*
X056659Y044442D01*
X056765Y044503D01*
X056852Y044589D01*
X056913Y044695D01*
X056944Y044813D01*
Y044936D01*
X056913Y045054D01*
X056852Y045159D01*
X056765Y045246D01*
X056659Y045307D01*
X056541Y045339D01*
X056419D01*
X056301Y045307D01*
X056195Y045246D01*
X056109Y045159D01*
X056048Y045054D01*
X056016Y044936D01*
Y04485D01*
X055994Y044834D01*
X055944Y044859D01*
Y044936D01*
X055913Y045054D01*
X055852Y045159D01*
X055765Y045246D01*
X055659Y045307D01*
X055541Y045339D01*
X055419D01*
X055301Y045307D01*
X055195Y045246D01*
X055109Y045159D01*
X055048Y045054D01*
X055016Y044936D01*
Y044813D01*
X055044Y044708D01*
X055018Y044658D01*
X054942D01*
X054916Y044708D01*
X054944Y044813D01*
Y044936D01*
X054913Y045054D01*
X054852Y045159D01*
X054765Y045246D01*
X054659Y045307D01*
X054541Y045339D01*
X054419D01*
X054301Y045307D01*
X054195Y045246D01*
X054109Y045159D01*
X054048Y045054D01*
X054016Y044936D01*
Y044813D01*
X054044Y044708D01*
X054018Y044658D01*
X053829D01*
X053804Y044701D01*
X053823Y044733D01*
X053847Y044824D01*
X05348D01*
X053113D01*
X053138Y044733D01*
X053156Y044701D01*
X053131Y044658D01*
X052942D01*
X052916Y044708D01*
X052944Y044813D01*
Y044936D01*
X052913Y045054D01*
X052852Y045159D01*
X052765Y045246D01*
X052678Y045296D01*
X052664Y045353D01*
X052993Y045682D01*
X062132D01*
X062209Y045692D01*
X06228Y045722D01*
X062342Y045769D01*
X062612Y046039D01*
X062612Y046039D01*
X06266Y046101D01*
X062689Y046173D01*
X062696Y046226D01*
X062873D01*
Y047076D01*
X062873Y04712D01*
X062873Y04717D01*
Y047283D01*
X062894Y047286D01*
X062965Y047315D01*
X063027Y047363D01*
X063458Y047794D01*
X063505Y047775D01*
Y04717D01*
X063505Y047126D01*
X063505D01*
Y04712D01*
X063505D01*
Y046226D01*
X063679D01*
Y0462D01*
X063689Y046123D01*
X063718Y046051D01*
X063766Y045989D01*
X063827Y045942D01*
X063899Y045912D01*
X063976Y045902D01*
X06796D01*
X068037Y045912D01*
X068109Y045942D01*
X068171Y045989D01*
X071243Y049062D01*
X071892D01*
X071935Y049045D01*
X071935Y049012D01*
Y048495D01*
X072835D01*
X073735D01*
Y049012D01*
X073735Y049045D01*
X073777Y049062D01*
X073877D01*
X074122Y048817D01*
D02*
G37*
%LPC*%
G36*
X02161Y047836D02*
X02131D01*
Y047511D01*
X02161D01*
Y047836D01*
D02*
G37*
G36*
X02121D02*
X02091D01*
Y047511D01*
X02121D01*
Y047836D01*
D02*
G37*
G36*
X02161Y047411D02*
X02131D01*
Y047086D01*
X02161D01*
Y047411D01*
D02*
G37*
G36*
X02121D02*
X02091D01*
Y047086D01*
X02121D01*
Y047411D01*
D02*
G37*
G36*
X003781Y04417D02*
X003396D01*
Y044015D01*
X003781D01*
Y04417D01*
D02*
G37*
G36*
X027619Y04246D02*
Y042196D01*
X027884D01*
X027864Y042268D01*
X027823Y04234D01*
X027764Y042399D01*
X027692Y042441D01*
X027619Y04246D01*
D02*
G37*
G36*
X027519D02*
X027447Y042441D01*
X027375Y042399D01*
X027316Y04234D01*
X027274Y042268D01*
X027255Y042196D01*
X027519D01*
Y04246D01*
D02*
G37*
G36*
X027884Y042096D02*
X027619D01*
Y041831D01*
X027692Y041851D01*
X027764Y041892D01*
X027823Y041951D01*
X027864Y042023D01*
X027884Y042096D01*
D02*
G37*
G36*
X03564Y045517D02*
X032958D01*
X032855Y045504D01*
X03276Y045464D01*
X032677Y045401D01*
X031215Y043939D01*
X031152Y043857D01*
X031112Y043761D01*
X031099Y043658D01*
Y042843D01*
X030799D01*
Y041449D01*
X032193D01*
Y042843D01*
X031893D01*
Y043494D01*
X033123Y044723D01*
X035363D01*
Y04237D01*
X035376Y042267D01*
X035416Y042171D01*
X035479Y042089D01*
X036278Y04129D01*
X036361Y041227D01*
X036456Y041187D01*
X036559Y041174D01*
X036803D01*
X036851Y041137D01*
X036972Y041087D01*
X037102Y04107D01*
X037402D01*
X037532Y041087D01*
X037653Y041137D01*
X037756Y041217D01*
X037836Y04132D01*
X037886Y041441D01*
X037903Y041571D01*
X037886Y041701D01*
X037836Y041821D01*
X037756Y041925D01*
X037653Y042005D01*
X037559Y042044D01*
Y042098D01*
X037653Y042137D01*
X037756Y042217D01*
X037836Y04232D01*
X037886Y042441D01*
X037903Y042571D01*
X037886Y042701D01*
X037836Y042821D01*
X037756Y042925D01*
X037653Y043005D01*
X037606Y043024D01*
X037616Y043074D01*
X037899D01*
Y044068D01*
X036605D01*
Y043074D01*
X036888D01*
X036898Y043024D01*
X036851Y043005D01*
X036748Y042925D01*
X036668Y042821D01*
X036618Y042701D01*
X036601Y042571D01*
X036618Y042441D01*
X036668Y04232D01*
X036748Y042217D01*
X036851Y042137D01*
X036945Y042098D01*
Y042044D01*
X036851Y042005D01*
X036803Y041968D01*
X036724D01*
X036157Y042534D01*
Y045D01*
X036144Y045103D01*
X036104Y045199D01*
X036041Y045281D01*
X035921Y045401D01*
X035838Y045464D01*
X035743Y045504D01*
X03564Y045517D01*
D02*
G37*
G36*
X037402Y040974D02*
X037302D01*
Y040621D01*
X037799D01*
X037792Y040675D01*
X037751Y040773D01*
X037687Y040856D01*
X037604Y04092D01*
X037506Y040961D01*
X037402Y040974D01*
D02*
G37*
G36*
X037202D02*
X037102D01*
X036998Y040961D01*
X0369Y04092D01*
X036817Y040856D01*
X036753Y040773D01*
X036712Y040675D01*
X036705Y040621D01*
X037202D01*
Y040974D01*
D02*
G37*
G36*
X019529Y040415D02*
X019144D01*
Y04026D01*
X019529D01*
Y040415D01*
D02*
G37*
G36*
X019044D02*
X018659D01*
Y04026D01*
X019044D01*
Y040415D01*
D02*
G37*
G36*
X037799Y040521D02*
X037302D01*
Y040167D01*
X037402D01*
X037506Y040181D01*
X037604Y040221D01*
X037687Y040286D01*
X037751Y040369D01*
X037792Y040466D01*
X037799Y040521D01*
D02*
G37*
G36*
X037202D02*
X036705D01*
X036712Y040466D01*
X036753Y040369D01*
X036817Y040286D01*
X0369Y040221D01*
X036998Y040181D01*
X037102Y040167D01*
X037202D01*
Y040521D01*
D02*
G37*
G36*
X040435Y040276D02*
X040305D01*
X04018Y040242D01*
X040068Y040177D01*
X039976Y040086D01*
X039911Y039973D01*
X039896Y039915D01*
X039844D01*
X039829Y039973D01*
X039764Y040086D01*
X039672Y040177D01*
X03956Y040242D01*
X039435Y040276D01*
X039305D01*
X03918Y040242D01*
X039068Y040177D01*
X038976Y040086D01*
X038911Y039973D01*
X038878Y039848D01*
Y039719D01*
X038911Y039594D01*
X038976Y039481D01*
X039068Y03939D01*
X03918Y039325D01*
X039305Y039291D01*
X039435D01*
X03956Y039325D01*
X039672Y03939D01*
X039764Y039481D01*
X039829Y039594D01*
X039844Y039651D01*
X039896D01*
X039911Y039594D01*
X039976Y039481D01*
X040068Y03939D01*
X04018Y039325D01*
X040305Y039291D01*
X040435D01*
X04056Y039325D01*
X040672Y03939D01*
X040764Y039481D01*
X040829Y039594D01*
X040862Y039719D01*
Y039848D01*
X040829Y039973D01*
X040764Y040086D01*
X040672Y040177D01*
X04056Y040242D01*
X040435Y040276D01*
D02*
G37*
G36*
X073894Y040387D02*
X073744D01*
X073598Y040348D01*
X073468Y040273D01*
X073361Y040166D01*
X073286Y040036D01*
X073247Y03989D01*
Y03974D01*
X073286Y039594D01*
X073361Y039464D01*
X073468Y039357D01*
X073598Y039282D01*
X073744Y039243D01*
X073894D01*
X07404Y039282D01*
X07417Y039357D01*
X074276Y039464D01*
X074352Y039594D01*
X074391Y03974D01*
Y03989D01*
X074352Y040036D01*
X074276Y040166D01*
X07417Y040273D01*
X07404Y040348D01*
X073894Y040387D01*
D02*
G37*
G36*
X05153Y039166D02*
Y038849D01*
X051847D01*
X051823Y038941D01*
X051774Y039025D01*
X051706Y039093D01*
X051622Y039142D01*
X05153Y039166D01*
D02*
G37*
G36*
X071381Y03829D02*
X071369D01*
Y037865D01*
X071794D01*
Y037877D01*
X071762Y037998D01*
X071699Y038107D01*
X071611Y038195D01*
X071502Y038258D01*
X071381Y03829D01*
D02*
G37*
G36*
X071269D02*
X071256D01*
X071136Y038258D01*
X071027Y038195D01*
X070939Y038107D01*
X070876Y037998D01*
X070844Y037877D01*
Y037865D01*
X071269D01*
Y03829D01*
D02*
G37*
G36*
X018741Y037993D02*
X018441D01*
Y037668D01*
X018741D01*
Y037993D01*
D02*
G37*
G36*
X018341D02*
X018041D01*
Y037668D01*
X018341D01*
Y037993D01*
D02*
G37*
G36*
X071794Y037765D02*
X071369D01*
Y03734D01*
X071381D01*
X071502Y037372D01*
X071611Y037435D01*
X071699Y037523D01*
X071762Y037632D01*
X071794Y037752D01*
Y037765D01*
D02*
G37*
G36*
X071269D02*
X070844D01*
Y037752D01*
X070876Y037632D01*
X070939Y037523D01*
X071027Y037435D01*
X071136Y037372D01*
X071256Y03734D01*
X071269D01*
Y037765D01*
D02*
G37*
G36*
X073894Y038387D02*
X073744D01*
X073598Y038348D01*
X073468Y038273D01*
X073361Y038166D01*
X073286Y038036D01*
X073247Y03789D01*
Y03774D01*
X073286Y037594D01*
X073361Y037464D01*
X073468Y037357D01*
X073598Y037282D01*
X073744Y037243D01*
X073894D01*
X07404Y037282D01*
X07417Y037357D01*
X074276Y037464D01*
X074352Y037594D01*
X074391Y03774D01*
Y03789D01*
X074352Y038036D01*
X074276Y038166D01*
X07417Y038273D01*
X07404Y038348D01*
X073894Y038387D01*
D02*
G37*
G36*
X018741Y037568D02*
X018441D01*
Y037243D01*
X018741D01*
Y037568D01*
D02*
G37*
G36*
X018341D02*
X018041D01*
Y037243D01*
X018341D01*
Y037568D01*
D02*
G37*
G36*
X073835Y03645D02*
X073685D01*
X073539Y036411D01*
X073409Y036336D01*
X073302Y036229D01*
X073227Y036099D01*
X073188Y035953D01*
Y035803D01*
X073227Y035657D01*
X073302Y035527D01*
X073409Y03542D01*
X073539Y035345D01*
X073685Y035306D01*
X073835D01*
X073981Y035345D01*
X074111Y03542D01*
X074217Y035527D01*
X074293Y035657D01*
X074332Y035803D01*
Y035953D01*
X074293Y036099D01*
X074217Y036229D01*
X074111Y036336D01*
X073981Y036411D01*
X073835Y03645D01*
D02*
G37*
G36*
X071322Y034353D02*
X07131D01*
Y033928D01*
X071735D01*
Y03394D01*
X071702Y034061D01*
X07164Y03417D01*
X071551Y034258D01*
X071443Y034321D01*
X071322Y034353D01*
D02*
G37*
G36*
X07121D02*
X071197D01*
X071076Y034321D01*
X070968Y034258D01*
X07088Y03417D01*
X070817Y034061D01*
X070785Y03394D01*
Y033928D01*
X07121D01*
Y034353D01*
D02*
G37*
G36*
X071735Y033828D02*
X07131D01*
Y033403D01*
X071322D01*
X071443Y033435D01*
X071551Y033498D01*
X07164Y033586D01*
X071702Y033695D01*
X071735Y033815D01*
Y033828D01*
D02*
G37*
G36*
X07121D02*
X070785D01*
Y033815D01*
X070817Y033695D01*
X07088Y033586D01*
X070968Y033498D01*
X071076Y033435D01*
X071197Y033403D01*
X07121D01*
Y033828D01*
D02*
G37*
G36*
X073835Y03445D02*
X073685D01*
X073539Y034411D01*
X073409Y034336D01*
X073302Y034229D01*
X073227Y034099D01*
X073188Y033953D01*
Y033803D01*
X073227Y033657D01*
X073302Y033527D01*
X073409Y03342D01*
X073539Y033345D01*
X073685Y033306D01*
X073835D01*
X073981Y033345D01*
X074111Y03342D01*
X074217Y033527D01*
X074293Y033657D01*
X074332Y033803D01*
Y033953D01*
X074293Y034099D01*
X074217Y034229D01*
X074111Y034336D01*
X073981Y034411D01*
X073835Y03445D01*
D02*
G37*
G36*
X073735Y048395D02*
X072885D01*
Y047845D01*
X073735D01*
Y048395D01*
D02*
G37*
G36*
X072785D02*
X071935D01*
Y047845D01*
X072785D01*
Y048395D01*
D02*
G37*
G36*
X071435Y047845D02*
X070885D01*
Y046995D01*
X071435D01*
Y047845D01*
D02*
G37*
G36*
X070785D02*
X070235D01*
Y046995D01*
X070785D01*
Y047845D01*
D02*
G37*
G36*
X071435Y046895D02*
X070885D01*
Y046045D01*
X071435D01*
Y046895D01*
D02*
G37*
G36*
X070785D02*
X070235D01*
Y046045D01*
X070785D01*
Y046895D01*
D02*
G37*
G36*
X073831Y046642D02*
X071838D01*
Y045248D01*
X073831D01*
Y046642D01*
D02*
G37*
G36*
X05353Y045241D02*
Y044924D01*
X053847D01*
X053823Y045016D01*
X053774Y0451D01*
X053706Y045168D01*
X053622Y045217D01*
X05353Y045241D01*
D02*
G37*
G36*
X05343D02*
X053339Y045217D01*
X053255Y045168D01*
X053186Y0451D01*
X053138Y045016D01*
X053113Y044924D01*
X05343D01*
Y045241D01*
D02*
G37*
G36*
X059541Y045339D02*
X059419D01*
X059301Y045307D01*
X059195Y045246D01*
X059109Y045159D01*
X059048Y045054D01*
X059016Y044936D01*
Y044813D01*
X059048Y044695D01*
X059109Y044589D01*
X059195Y044503D01*
X059301Y044442D01*
X059419Y04441D01*
X059541D01*
X059659Y044442D01*
X059765Y044503D01*
X059852Y044589D01*
X059913Y044695D01*
X059944Y044813D01*
Y044936D01*
X059913Y045054D01*
X059852Y045159D01*
X059765Y045246D01*
X059659Y045307D01*
X059541Y045339D01*
D02*
G37*
G36*
X050541D02*
X050419D01*
X050301Y045307D01*
X050195Y045246D01*
X050109Y045159D01*
X050048Y045054D01*
X050016Y044936D01*
Y044813D01*
X050048Y044695D01*
X050109Y044589D01*
X050195Y044503D01*
X050301Y044442D01*
X050419Y04441D01*
X050541D01*
X050659Y044442D01*
X050765Y044503D01*
X050852Y044589D01*
X050913Y044695D01*
X050944Y044813D01*
Y044936D01*
X050913Y045054D01*
X050852Y045159D01*
X050765Y045246D01*
X050659Y045307D01*
X050541Y045339D01*
D02*
G37*
G36*
X071394Y044324D02*
X071244D01*
X071098Y044285D01*
X070968Y04421D01*
X070861Y044103D01*
X070786Y043973D01*
X070747Y043827D01*
Y043677D01*
X070786Y043531D01*
X070861Y043401D01*
X070968Y043294D01*
X071098Y043219D01*
X071244Y04318D01*
X071394D01*
X07154Y043219D01*
X07167Y043294D01*
X071776Y043401D01*
X071852Y043531D01*
X071891Y043677D01*
Y043827D01*
X071852Y043973D01*
X071776Y044103D01*
X07167Y04421D01*
X07154Y044285D01*
X071394Y044324D01*
D02*
G37*
G36*
X071381Y042227D02*
X071369D01*
Y041802D01*
X071794D01*
Y041814D01*
X071762Y041935D01*
X071699Y042044D01*
X071611Y042132D01*
X071502Y042195D01*
X071381Y042227D01*
D02*
G37*
G36*
X071269D02*
X071256D01*
X071136Y042195D01*
X071027Y042132D01*
X070939Y042044D01*
X070876Y041935D01*
X070844Y041814D01*
Y041802D01*
X071269D01*
Y042227D01*
D02*
G37*
G36*
X071794Y041702D02*
X071369D01*
Y041277D01*
X071381D01*
X071502Y041309D01*
X071611Y041372D01*
X071699Y04146D01*
X071762Y041569D01*
X071794Y041689D01*
Y041702D01*
D02*
G37*
G36*
X071269D02*
X070844D01*
Y041689D01*
X070876Y041569D01*
X070939Y04146D01*
X071027Y041372D01*
X071136Y041309D01*
X071256Y041277D01*
X071269D01*
Y041702D01*
D02*
G37*
G36*
X054541Y039263D02*
X054419D01*
X054301Y039232D01*
X054195Y039171D01*
X054109Y039084D01*
X054048Y038978D01*
X054016Y03886D01*
Y038738D01*
X054048Y03862D01*
X054109Y038514D01*
X054195Y038428D01*
X054301Y038367D01*
X054419Y038335D01*
X054541D01*
X054659Y038367D01*
X054765Y038428D01*
X054852Y038514D01*
X054913Y03862D01*
X054944Y038738D01*
Y03886D01*
X054913Y038978D01*
X054852Y039084D01*
X054765Y039171D01*
X054659Y039232D01*
X054541Y039263D01*
D02*
G37*
%LPD*%
D15*
X02725Y036831D02*
D03*
X02815D02*
D03*
X030202Y047461D02*
D03*
X031102D02*
D03*
X030202Y036831D02*
D03*
X031102D02*
D03*
X02725Y047461D02*
D03*
X02815D02*
D03*
X024213D02*
D03*
X025113D02*
D03*
X02126Y036831D02*
D03*
X02216D02*
D03*
X024297D02*
D03*
X025197D02*
D03*
X009533Y046673D02*
D03*
X010433D02*
D03*
X012486D02*
D03*
X013386D02*
D03*
X009533Y037618D02*
D03*
X010433D02*
D03*
X012486D02*
D03*
X013386D02*
D03*
X015439D02*
D03*
X016339D02*
D03*
X018391Y046673D02*
D03*
X019291D02*
D03*
X015354D02*
D03*
X016254D02*
D03*
X02216Y047461D02*
D03*
X02126D02*
D03*
X018391Y037618D02*
D03*
X019291D02*
D03*
D29*
X006652Y043965D02*
X006699Y043917D01*
X00672D01*
X005386Y043965D02*
X006652D01*
X01318Y042942D02*
X013915Y042207D01*
Y042175D02*
X014625Y041465D01*
X012408Y042942D02*
X01318D01*
X012402Y042949D02*
X012408Y042942D01*
X013915Y042175D02*
Y042207D01*
X013168Y042343D02*
X013189D01*
X012402Y042449D02*
X013061D01*
X013168Y042343D01*
X012887Y041442D02*
X013168Y041161D01*
X013189D01*
X012402Y041449D02*
X012408Y041442D01*
X012887D01*
X0049Y03696D02*
X005906D01*
X00757Y04592D02*
Y046673D01*
X01031Y04875D02*
X01193Y05037D01*
X024289Y049D02*
X027612D01*
X06486Y04699D02*
X065354D01*
X055118Y037337D02*
X055596D01*
X056496Y036437D01*
X005906Y036634D02*
Y03696D01*
X005268Y048552D02*
Y049059D01*
X004289Y047573D02*
X005268Y048552D01*
X003937Y047573D02*
X004289D01*
X02815Y047461D02*
X029121D01*
X030032Y048372D01*
X030612D01*
Y049109D01*
X040247Y035059D02*
Y035707D01*
X040977Y036437D01*
X041339D01*
X051932Y048332D02*
Y049109D01*
X051173Y047573D02*
X051932Y048332D01*
X050591Y047573D02*
X051173D01*
X003346Y040465D02*
X004D01*
X005906Y038559D01*
Y037534D02*
Y038559D01*
X009859Y042949D02*
X010362D01*
X009495Y043312D02*
X009859Y042949D01*
X009495Y043312D02*
Y044539D01*
X009633Y044677D01*
X009917D01*
X01133Y04609D01*
X015354D01*
Y046673D01*
X042913D02*
X043327D01*
X04463Y04537D01*
X044985D01*
X04548Y044874D01*
X044682Y046673D02*
X04648Y044874D01*
X044291Y046673D02*
X044682D01*
X063976Y0462D02*
Y046673D01*
Y0462D02*
X06796D01*
X07112Y04936D01*
X074D01*
X07442Y04894D01*
Y0432D02*
Y04894D01*
X07248Y04126D02*
X07442Y0432D01*
X07248Y03923D02*
Y04126D01*
X07221Y03896D02*
X07248Y03923D01*
X063395Y03896D02*
X07221D01*
X05748Y044874D02*
X063395Y03896D01*
X017054Y041965D02*
X01761D01*
Y03992D02*
Y041965D01*
X01734Y03965D02*
X01761Y03992D01*
X01031Y04875D02*
X01358D01*
X00837Y04681D02*
X01031Y04875D01*
X007373Y042403D02*
X00837Y0434D01*
X005386Y042465D02*
X006366D01*
X007373Y042403D01*
X00837Y0434D02*
Y04681D01*
X01193Y05037D02*
X04378D01*
X04697Y04718D01*
Y0445D02*
Y04718D01*
Y0445D02*
X04756Y04391D01*
X04837D01*
X05348Y038799D01*
X06048Y044874D02*
X06554Y039815D01*
X071319D01*
X06048Y038799D02*
X060971Y03929D01*
X06258D01*
X06338Y03849D01*
X068648D01*
X07126Y035878D01*
X006545Y042965D02*
X007334Y043753D01*
X005386Y042965D02*
X006545D01*
X00673Y04278D01*
X00722D01*
X014625Y041465D02*
X017054D01*
X034252Y041571D02*
X034509D01*
X036811Y039269D01*
Y037534D02*
Y039269D01*
X024297Y036831D02*
Y041114D01*
X024563Y04138D01*
Y042864D01*
X02425Y043177D02*
X024563Y042864D01*
X022997Y043177D02*
X02425D01*
X021284Y041465D02*
X022997Y043177D01*
X019094Y041465D02*
X021284D01*
X02126Y036831D02*
X02167D01*
Y03747D01*
X02396Y03976D01*
Y04143D01*
X024248Y041718D01*
Y0425D01*
X023886Y042862D02*
X024248Y0425D01*
X023224Y042862D02*
X023886D01*
X021326Y040965D02*
X023224Y042862D01*
X019094Y040965D02*
X021326D01*
X019094Y043465D02*
X020253D01*
X021225Y044437D01*
X023216D01*
X02624Y047461D01*
X02725D01*
Y036831D02*
Y0408D01*
X024558Y043492D02*
X02725Y0408D01*
X022567Y043492D02*
X024558D01*
X02104Y041965D02*
X022567Y043492D01*
X019094Y041965D02*
X02104D01*
X027612Y049D02*
Y049109D01*
X02275Y047461D02*
X024289Y049D01*
X02216Y047461D02*
X02275D01*
X053543Y046673D02*
X05448D01*
X065354D02*
Y04699D01*
X06454Y04731D02*
X06486Y04699D01*
X05997Y04649D02*
X060153Y046673D01*
X061024D01*
X063583Y03597D02*
Y036437D01*
Y03597D02*
X06525D01*
X065567Y035653D01*
Y035059D02*
Y035653D01*
X062008Y036437D02*
X062383D01*
X063567Y035253D01*
Y035059D02*
Y035253D01*
X02815Y036831D02*
X028619D01*
X02937Y03608D01*
X030282D01*
X030612Y03575D01*
Y035109D02*
Y03575D01*
X025197Y036831D02*
X026149D01*
X02665Y03633D01*
X028D01*
X028612Y035718D01*
Y035109D02*
Y035718D01*
X065073Y037337D02*
X065354D01*
X064292Y038119D02*
X065073Y037337D01*
X059161Y038119D02*
X064292D01*
X05848Y038799D02*
X059161Y038119D01*
X005178Y046673D02*
X005906D01*
X004208Y045703D02*
X005178Y046673D01*
X003498Y045703D02*
X004208D01*
X00248Y044685D02*
X003498Y045703D01*
X00248Y043415D02*
Y044685D01*
Y043415D02*
X00293Y042965D01*
X003346D01*
X05748Y038799D02*
X058476Y037804D01*
X062638D01*
X063105Y037337D01*
X063583D01*
X062008D02*
X062583D01*
X06279Y03713D01*
X055966Y04436D02*
X05648Y044874D01*
X05225Y04436D02*
X055966D01*
X05199Y04462D02*
X05225Y04436D01*
X05199Y04462D02*
Y0451D01*
X05287Y04598D01*
X062132D01*
X062402Y04625D01*
Y046673D01*
X025113Y047461D02*
Y04781D01*
X025273Y04797D01*
X028082D01*
X028612Y0485D01*
Y049109D01*
X002584Y041965D02*
X003346D01*
X00185Y042698D02*
X002584Y041965D01*
X00185Y042698D02*
Y045113D01*
X001969Y045231D01*
Y046673D01*
X003283D02*
X003937D01*
X00248Y04587D02*
X003283Y046673D01*
X00248Y045231D02*
Y04587D01*
X002165Y044916D02*
X00248Y045231D01*
X002165Y043055D02*
Y044916D01*
Y043055D02*
X002755Y042465D01*
X003346D01*
X00757Y046673D02*
X007874D01*
X007038Y045388D02*
X00757Y04592D01*
X003893Y045388D02*
X007038D01*
X002795Y04429D02*
X003893Y045388D01*
X002795Y04364D02*
Y04429D01*
Y04364D02*
X002945D01*
X00312Y043465D01*
X003346D01*
X005268Y035059D02*
Y036D01*
X004634Y036634D02*
X005268Y036D01*
X003937Y036634D02*
X004634D01*
X051772Y037337D02*
Y037702D01*
X0515Y037974D02*
X051772Y037702D01*
X051121Y037974D02*
X0515D01*
X050965Y03813D02*
X051121Y037974D01*
X04915Y03813D02*
X050965D01*
X04848Y038799D02*
X04915Y03813D01*
X05299Y037337D02*
X053346D01*
X052012Y038315D02*
X05299Y037337D01*
X05128Y038315D02*
X052012D01*
X050964Y038631D02*
X05128Y038315D01*
X050964Y038631D02*
Y039D01*
X050681Y039283D02*
X050964Y039D01*
X049964Y039283D02*
X050681D01*
X04948Y038799D02*
X049964Y039283D01*
X054932Y035109D02*
Y035505D01*
X054Y036437D02*
X054932Y035505D01*
X053346Y036437D02*
X054D01*
X051772Y03584D02*
Y036437D01*
Y03584D02*
X053772D01*
X053932Y03568D01*
Y035109D02*
Y03568D01*
X009533Y037618D02*
Y039117D01*
X00949Y03916D02*
X009533Y039117D01*
X00949Y03916D02*
Y041189D01*
X00975Y041449D01*
X010362D01*
X018928Y048451D02*
Y049059D01*
X01715Y046673D02*
X018928Y048451D01*
X016254Y046673D02*
X01715D01*
X016339Y03682D02*
Y037618D01*
X015928Y035059D02*
Y03575D01*
X015558Y03612D02*
X015928Y03575D01*
X012858Y03612D02*
X015558D01*
X01136Y037618D02*
X012858Y03612D01*
X010433Y037618D02*
X01136D01*
X016928Y035059D02*
Y035232D01*
X014542Y037618D02*
X016928Y035232D01*
X013386Y037618D02*
X014542D01*
X02989Y047461D02*
X030202D01*
X026551Y044122D02*
X02989Y047461D01*
X02154Y044122D02*
X026551D01*
X02154Y043543D02*
Y044122D01*
X020961Y042965D02*
X02154Y043543D01*
X019094Y042965D02*
X020961D01*
X023501Y047461D02*
X024213D01*
X020005Y043965D02*
X023501Y047461D01*
X019094Y043965D02*
X020005D01*
X030202Y036831D02*
Y038608D01*
X025003Y043807D02*
X030202Y038608D01*
X021855Y043807D02*
X025003D01*
X021855Y04323D02*
Y043807D01*
X02109Y042465D02*
X021855Y04323D01*
X019094Y042465D02*
X02109D01*
X039511Y044874D02*
X04248D01*
X038386Y046D02*
X039511Y044874D01*
X038386Y046D02*
Y046673D01*
X015928Y0485D02*
Y049059D01*
X015348Y04792D02*
X015928Y0485D01*
X011947Y04792D02*
X015348D01*
X0107Y046673D02*
X011947Y04792D01*
X010433Y046673D02*
X0107D01*
X018391Y046D02*
Y046673D01*
X018001Y04561D02*
X018391Y046D01*
X01137Y04561D02*
X018001D01*
X01012Y04436D02*
X01137Y04561D01*
X00995Y04436D02*
X01012D01*
X00981Y04422D02*
X00995Y04436D01*
X00981Y043449D02*
Y04422D01*
Y043449D02*
X010362D01*
X009533Y046003D02*
Y046673D01*
X008865Y045335D02*
X009533Y046003D01*
X008865Y042682D02*
Y045335D01*
Y042682D02*
X009599Y041949D01*
X010362D01*
X009731Y042449D02*
X010362D01*
X00918Y043D02*
X009731Y042449D01*
X00918Y043D02*
Y04477D01*
X00943Y04502D01*
X009815D01*
X011468Y046673D01*
X012486D01*
X015048Y042965D02*
X017054D01*
X014063Y043949D02*
X015048Y042965D01*
X012402Y043949D02*
X014063D01*
X007082Y041463D02*
X00758Y040965D01*
X005541Y041463D02*
X007082D01*
X005539Y041465D02*
X005541Y041463D01*
X005386Y041465D02*
X005539D01*
X019291Y036656D02*
Y037618D01*
Y036656D02*
X019928Y03602D01*
Y035059D02*
Y03602D01*
X015439Y037618D02*
Y038D01*
X014932Y038506D02*
X015439Y038D01*
X013033Y038506D02*
X014932D01*
X01109Y040449D02*
X013033Y038506D01*
X010362Y040449D02*
X01109D01*
X05248Y038799D02*
X053296Y037984D01*
X05585D01*
X057397Y036437D01*
X057874D01*
X041339Y037337D02*
X041648D01*
X042523Y038212D01*
X042893D01*
X04348Y038799D01*
X041339Y04614D02*
Y046673D01*
Y04614D02*
X043215D01*
X04448Y044874D01*
X054932Y0485D02*
Y049109D01*
X054005Y047573D02*
X054932Y0485D01*
X053543Y047573D02*
X054005D01*
X007268Y048495D02*
Y049059D01*
X006346Y047573D02*
X007268Y048495D01*
X005906Y047573D02*
X006346D01*
X027612Y035109D02*
Y03577D01*
X023813D02*
X027612D01*
X022753Y036831D02*
X023813Y03577D01*
X02216Y036831D02*
X022753D01*
X048Y046673D02*
X049213D01*
X04748Y046154D02*
X048Y046673D01*
X04748Y044874D02*
Y046154D01*
X063567Y048324D02*
Y049059D01*
X062816Y047573D02*
X063567Y048324D01*
X062402Y047573D02*
X062816D01*
X062567Y04839D02*
Y049059D01*
X061414Y04839D02*
X062567D01*
X061024Y048D02*
X061414Y04839D01*
X061024Y047573D02*
Y048D01*
X065567Y0485D02*
Y049059D01*
X065267Y0482D02*
X065567Y0485D01*
X064596Y0482D02*
X065267D01*
X063976Y04758D02*
X064596Y0482D01*
X063976Y047573D02*
Y04758D01*
X042913Y037337D02*
Y03785D01*
X043531D01*
X04448Y038799D01*
X050932Y04842D02*
Y049109D01*
X0495Y04842D02*
X050932D01*
X049213Y048133D02*
X0495Y04842D01*
X049213Y047573D02*
Y048133D01*
X066567Y035059D02*
Y03587D01*
X066Y036437D02*
X066567Y03587D01*
X065354Y036437D02*
X066D01*
X053932Y04839D02*
Y049109D01*
X0525Y04839D02*
X053932D01*
X052165Y048055D02*
X0525Y04839D01*
X052165Y047573D02*
Y048055D01*
X050279Y046673D02*
X050591D01*
X04848Y044874D02*
X050279Y046673D01*
X066567Y04814D02*
Y049059D01*
X066Y047573D02*
X066567Y04814D01*
X065354Y047573D02*
X066D01*
X044291Y037337D02*
Y03761D01*
X04548Y038799D01*
X051932Y03439D02*
Y035109D01*
X0505Y03439D02*
X051932D01*
X050197Y034693D02*
X0505Y03439D01*
X050197Y034693D02*
Y036437D01*
X043864D02*
X044291D01*
X043247Y03582D02*
X043864Y036437D01*
X043247Y035059D02*
Y03582D01*
X041014Y047573D02*
X041339D01*
X040247Y04834D02*
X041014Y047573D01*
X040247Y04834D02*
Y049059D01*
X043247Y048293D02*
Y049059D01*
Y048293D02*
X043967Y047573D01*
X044291D01*
X004268Y035059D02*
Y03577D01*
X0025D02*
X004268D01*
X001969Y036302D02*
X0025Y03577D01*
X001969Y036302D02*
Y036634D01*
X04825Y037337D02*
X048622D01*
X04799Y037597D02*
X04825Y037337D01*
X04799Y037597D02*
Y039D01*
X0477Y03929D02*
X04799Y039D01*
X046971Y03929D02*
X0477D01*
X04648Y038799D02*
X046971Y03929D01*
X016928Y048D02*
Y049059D01*
X016188Y04726D02*
X016928Y048D01*
X014787Y04726D02*
X016188D01*
X0142Y046673D02*
X014787Y04726D01*
X013386Y046673D02*
X0142D01*
X004268Y04839D02*
Y049059D01*
X0025Y04839D02*
X004268D01*
X001969Y047859D02*
X0025Y04839D01*
X001969Y047573D02*
Y047859D01*
X062567Y035059D02*
Y03567D01*
X06075D02*
X062567D01*
X060433Y035987D02*
X06075Y03567D01*
X060433Y035987D02*
Y036437D01*
X00981Y040949D02*
X010362D01*
X00981Y04D02*
Y040949D01*
Y04D02*
X012192Y037618D01*
X012486D01*
X041Y038799D02*
X04248D01*
X039961Y03776D02*
X041Y038799D01*
X039961Y037337D02*
Y03776D01*
X049747Y037337D02*
X050197D01*
X049429Y037019D02*
X049747Y037337D01*
X049429Y036269D02*
Y037019D01*
X04913Y03597D02*
X049429Y036269D01*
X04818Y03597D02*
X04913D01*
X04748Y03667D02*
X04818Y03597D01*
X04748Y03667D02*
Y038799D01*
X050932Y035109D02*
Y037532D01*
X05066Y037804D02*
X050932Y037532D01*
X049417Y037804D02*
X05066D01*
X049114Y0375D02*
X049417Y037804D01*
X049114Y036621D02*
Y0375D01*
X04893Y036437D02*
X049114Y036621D01*
X048622Y036437D02*
X04893D01*
X042575Y04578D02*
X04348Y044874D01*
X0405Y04578D02*
X042575D01*
X039961Y046319D02*
X0405Y04578D01*
X039961Y046319D02*
Y046673D01*
X05548Y038799D02*
X056943Y037337D01*
X060433D01*
X0025Y041465D02*
X003346D01*
X001969Y040933D02*
X0025Y041465D01*
X001969Y037534D02*
Y040933D01*
X00279Y040965D02*
X003346D01*
X00279Y03907D02*
Y040965D01*
Y03907D02*
X003937Y037923D01*
Y037534D02*
Y037923D01*
X007874Y036034D02*
Y036634D01*
Y036034D02*
X008268Y03564D01*
Y035059D02*
Y03564D01*
Y048504D02*
Y049059D01*
X007874Y04811D02*
X008268Y048504D01*
X007874Y047573D02*
Y04811D01*
X019928Y048176D02*
Y049059D01*
X019291Y04754D02*
X019928Y048176D01*
X019291Y046673D02*
Y04754D01*
X031612Y04853D02*
Y049109D01*
X031102Y04802D02*
X031612Y04853D01*
X031102Y047461D02*
Y04802D01*
Y03622D02*
Y036831D01*
Y03622D02*
X031612Y03571D01*
Y035109D02*
Y03571D01*
X039961Y036103D02*
Y036437D01*
X039247Y03539D02*
X039961Y036103D01*
X039247Y035059D02*
Y03539D01*
X042913Y036076D02*
Y036437D01*
X042247Y03541D02*
X042913Y036076D01*
X042247Y035059D02*
Y03541D01*
Y048646D02*
Y049059D01*
Y048646D02*
X042913Y04798D01*
Y047573D02*
Y04798D01*
X039247Y048663D02*
Y049059D01*
Y048663D02*
X039961Y04795D01*
Y047573D02*
Y04795D01*
X034252Y039147D02*
Y040571D01*
X034055Y03895D02*
X034252Y039147D01*
X034055Y037534D02*
Y03895D01*
X052165Y046115D02*
Y046673D01*
X05148Y04543D02*
X052165Y046115D01*
X05148Y044874D02*
Y04543D01*
D30*
X012402Y041949D02*
X012461Y04189D01*
X013288D02*
X016427Y038751D01*
X012461Y04189D02*
X013288D01*
X004531Y043721D02*
X004542D01*
X004718Y043545D01*
X005306D02*
X005386Y043465D01*
X004718Y043545D02*
X005306D01*
X07062Y042451D02*
Y04695D01*
X070835D01*
X07003D02*
X07062D01*
X01771Y04505D02*
X01975D01*
X01771Y042465D02*
X0181D01*
X0206Y039214D02*
X02185Y040465D01*
X018391Y040226D02*
Y042173D01*
Y038D02*
Y040226D01*
X0556Y03599D02*
Y036267D01*
Y03464D02*
Y03599D01*
X072335Y048445D02*
X072835D01*
X070835Y046945D02*
X072335Y048445D01*
X02126Y04656D02*
Y047461D01*
X01975Y04505D02*
X02126Y04656D01*
X010883Y043949D02*
X011184Y04425D01*
X010362Y043949D02*
X010883D01*
X0181Y042465D02*
X018391Y042173D01*
Y040226D02*
X019094Y040465D01*
X005386Y041965D02*
X008252D01*
X00889Y041326D01*
Y03571D02*
Y041326D01*
Y03571D02*
X01041Y03419D01*
X02029D01*
X0206Y0345D01*
Y039214D01*
X017054Y042465D02*
X01771D01*
Y04505D01*
X011569D02*
X01771D01*
X011569Y044881D02*
Y04505D01*
X011399Y044881D02*
X011569D01*
X011184Y044665D02*
X011399Y044881D01*
X011184Y04425D02*
Y044665D01*
X029612Y049109D02*
Y04993D01*
X018218D02*
X029612D01*
X017928Y049059D02*
X018218Y04993D01*
X012402Y040449D02*
X013961D01*
X0162Y03821D01*
X016904D01*
Y037104D02*
Y03821D01*
Y037104D02*
X017928Y03608D01*
Y035059D02*
Y03608D01*
X027569Y042146D02*
X028525Y04119D01*
X03217D01*
X03287Y04189D01*
Y044D01*
X03312Y04425D01*
X03497D01*
X03508Y04414D01*
Y041651D02*
Y04414D01*
Y041651D02*
X03616Y040571D01*
X037252D01*
X070835Y046945D02*
Y04695D01*
X06864Y04556D02*
X07003Y04695D01*
X054166Y04556D02*
X06864D01*
X05348Y044874D02*
X054166Y04556D01*
X037252Y040571D02*
X050703D01*
X05148Y039793D01*
Y038799D02*
Y039793D01*
X019094Y040465D02*
X02185D01*
X023531Y042146D01*
X031496D02*
Y043658D01*
X032958Y04512D01*
X03564D01*
X03576Y045D01*
Y04237D02*
Y045D01*
Y04237D02*
X036559Y041571D01*
X037252D01*
X012Y040449D02*
X012402D01*
X01175Y040699D02*
X012Y040449D01*
X01175Y040699D02*
Y043199D01*
X012Y043449D01*
X0165Y040965D02*
X017054D01*
X016048Y040512D02*
X0165Y040965D01*
X016048Y04009D02*
Y040512D01*
X018391Y037618D02*
Y038D01*
X01764Y038751D02*
X018391Y038D01*
X016427Y038751D02*
X01764D01*
X014881Y043965D02*
X017054D01*
X014477Y044369D02*
X014881Y043965D01*
X0117Y044369D02*
X014477D01*
X0117Y043749D02*
Y044369D01*
Y043749D02*
X012Y043449D01*
X012402D01*
X037307Y047573D02*
X038386D01*
X03495Y04993D02*
X037307Y047573D01*
X029612Y04993D02*
X03495D01*
X007394Y037534D02*
X007874D01*
X00711Y03725D02*
X007394Y037534D01*
X00711Y036052D02*
Y03725D01*
X006268Y03521D02*
X00711Y036052D01*
X006268Y035059D02*
Y03521D01*
X005Y041965D02*
X005386D01*
X004Y042965D02*
X005Y041965D01*
X004Y042965D02*
Y043715D01*
X00375Y043965D02*
X004Y043715D01*
X003346Y043965D02*
X00375D01*
X055118Y03599D02*
Y036437D01*
Y03599D02*
X0556D01*
X05748Y03411D01*
X064327D01*
X064567Y03435D01*
Y035059D01*
X052932Y049109D02*
Y049622D01*
X05325Y04994D01*
X06425D01*
X064567Y049623D01*
Y049059D02*
Y049623D01*
X052932Y034608D02*
Y035109D01*
Y034608D02*
X05325Y03429D01*
X05525D01*
X0556Y03464D01*
X05543Y036437D02*
X0556Y036267D01*
X055118Y036437D02*
X05543D01*
X07062Y042451D02*
X071319Y041752D01*
X007874Y037534D02*
Y039D01*
X006409Y040465D02*
X007874Y039D01*
X005386Y040465D02*
X006409D01*
X041247Y034347D02*
Y035059D01*
X0405Y0336D02*
X041247Y034347D01*
X039171Y0336D02*
X0405D01*
X036811Y03596D02*
X039171Y0336D01*
X036811Y03596D02*
Y036634D01*
X029612Y0345D02*
Y035109D01*
Y0345D02*
X030492Y03362D01*
X033D01*
X034055Y034675D01*
Y036634D01*
X036811D01*
D31*
X050932Y035109D02*
D03*
X051932D02*
D03*
X052932D02*
D03*
X053932D02*
D03*
X054932D02*
D03*
X050932Y049109D02*
D03*
X051932D02*
D03*
X052932D02*
D03*
X053932D02*
D03*
X043247Y049059D02*
D03*
X042247D02*
D03*
X041247D02*
D03*
X040247D02*
D03*
X039247D02*
D03*
X043247Y035059D02*
D03*
X042247D02*
D03*
X041247D02*
D03*
X040247D02*
D03*
X030612Y049109D02*
D03*
X029612D02*
D03*
X028612D02*
D03*
X027612D02*
D03*
X031612Y035109D02*
D03*
X030612D02*
D03*
X029612D02*
D03*
X028612D02*
D03*
X027612D02*
D03*
X019928Y049059D02*
D03*
X018928D02*
D03*
X017928D02*
D03*
X016928D02*
D03*
X015928D02*
D03*
X019928Y035059D02*
D03*
X018928D02*
D03*
X017928D02*
D03*
X016928D02*
D03*
X063567D02*
D03*
X064567D02*
D03*
X065567D02*
D03*
X066567D02*
D03*
X062567Y049059D02*
D03*
X063567D02*
D03*
X064567D02*
D03*
X065567D02*
D03*
X066567D02*
D03*
X008268D02*
D03*
X007268D02*
D03*
X006268D02*
D03*
X005268D02*
D03*
X004268D02*
D03*
X008268Y035059D02*
D03*
X007268D02*
D03*
X006268D02*
D03*
X005268D02*
D03*
D32*
X054932Y049109D02*
D03*
X039247Y035059D02*
D03*
X031612Y049109D02*
D03*
X015928Y035059D02*
D03*
X062567D02*
D03*
X004268D02*
D03*
D33*
X034252Y040571D02*
D03*
Y041571D02*
D03*
Y042571D02*
D03*
Y043571D02*
D03*
X037252Y040571D02*
D03*
Y041571D02*
D03*
Y042571D02*
D03*
D34*
Y043571D02*
D03*
D35*
X071319Y041752D02*
D03*
X073819Y043752D02*
D03*
Y041752D02*
D03*
X071319Y043752D02*
D03*
Y037815D02*
D03*
X073819Y039815D02*
D03*
Y037815D02*
D03*
X071319Y039815D02*
D03*
X07126Y033878D02*
D03*
X07376Y035878D02*
D03*
Y033878D02*
D03*
X07126Y035878D02*
D03*
D36*
X023531Y042146D02*
D03*
D37*
X031496D02*
D03*
D38*
X070835Y046945D02*
D03*
D39*
X072835Y048445D02*
D03*
Y045945D02*
D03*
D40*
X04248Y038799D02*
D03*
X04348D02*
D03*
X04448D02*
D03*
X04548D02*
D03*
X04648D02*
D03*
X04748D02*
D03*
X04848D02*
D03*
X04948D02*
D03*
X05048D02*
D03*
X05148D02*
D03*
X05248D02*
D03*
X05348D02*
D03*
X05448D02*
D03*
X05548D02*
D03*
X05648D02*
D03*
X05748D02*
D03*
X05848D02*
D03*
X05948D02*
D03*
X06048D02*
D03*
X06148D02*
D03*
Y044874D02*
D03*
X06048D02*
D03*
X05948D02*
D03*
X05848D02*
D03*
X05748D02*
D03*
X05648D02*
D03*
X05548D02*
D03*
X05448D02*
D03*
X05348D02*
D03*
X05248D02*
D03*
X05148D02*
D03*
X05048D02*
D03*
X04948D02*
D03*
X04848D02*
D03*
X04748D02*
D03*
X04648D02*
D03*
X04548D02*
D03*
X04448D02*
D03*
X04348D02*
D03*
D41*
X04248D02*
D03*
D42*
X03937Y039783D02*
D03*
X04037D02*
D03*
D43*
X00672Y043917D02*
D03*
X013189Y042933D02*
D03*
Y042343D02*
D03*
Y041161D02*
D03*
X0049Y03696D02*
D03*
X01734Y03965D02*
D03*
X01358Y04875D02*
D03*
X007334Y043753D02*
D03*
X00722Y04278D02*
D03*
X05448Y046673D02*
D03*
X06454Y04731D02*
D03*
X05997Y04649D02*
D03*
X06279Y03713D02*
D03*
X016339Y03682D02*
D03*
X00758Y040965D02*
D03*
D44*
X004531Y043721D02*
D03*
X027569Y042146D02*
D03*
X016048Y04009D02*
D03*
D45*
X048622Y036437D02*
D03*
Y037337D02*
D03*
X060433Y036437D02*
D03*
Y037337D02*
D03*
X038386Y046673D02*
D03*
Y047573D02*
D03*
X055118Y037337D02*
D03*
Y036437D02*
D03*
X051772D02*
D03*
Y037337D02*
D03*
X053346Y036437D02*
D03*
Y037337D02*
D03*
X063976Y047573D02*
D03*
Y046673D02*
D03*
X050591Y047573D02*
D03*
Y046673D02*
D03*
X062402Y047573D02*
D03*
Y046673D02*
D03*
X050197Y036437D02*
D03*
Y037337D02*
D03*
X036811Y036634D02*
D03*
Y037534D02*
D03*
X042913Y037337D02*
D03*
Y036437D02*
D03*
X041339Y037337D02*
D03*
Y036437D02*
D03*
X034055Y036634D02*
D03*
Y037534D02*
D03*
X061024Y046673D02*
D03*
Y047573D02*
D03*
X062008Y037337D02*
D03*
Y036437D02*
D03*
X063583Y037337D02*
D03*
Y036437D02*
D03*
X065354Y046673D02*
D03*
Y047573D02*
D03*
X053543Y046673D02*
D03*
Y047573D02*
D03*
X052165Y046673D02*
D03*
Y047573D02*
D03*
X039961Y046673D02*
D03*
Y047573D02*
D03*
X041339Y046673D02*
D03*
Y047573D02*
D03*
X039961Y037337D02*
D03*
Y036437D02*
D03*
X044291Y046673D02*
D03*
Y047573D02*
D03*
X042913Y046673D02*
D03*
Y047573D02*
D03*
X003937Y046673D02*
D03*
Y047573D02*
D03*
X001969Y037534D02*
D03*
Y036634D02*
D03*
X003937Y037534D02*
D03*
Y036634D02*
D03*
X005906Y037534D02*
D03*
Y036634D02*
D03*
X007874Y046673D02*
D03*
Y047573D02*
D03*
X005906Y046673D02*
D03*
Y047573D02*
D03*
X065354Y037337D02*
D03*
Y036437D02*
D03*
X049213Y046673D02*
D03*
Y047573D02*
D03*
X044291Y037337D02*
D03*
Y036437D02*
D03*
X007874Y037534D02*
D03*
Y036634D02*
D03*
X001969Y046673D02*
D03*
Y047573D02*
D03*
D46*
X056496Y036437D02*
D03*
X057874D02*
D03*
D47*
X005386Y040465D02*
D03*
Y040965D02*
D03*
Y041465D02*
D03*
Y041965D02*
D03*
Y042465D02*
D03*
Y042965D02*
D03*
Y043465D02*
D03*
Y043965D02*
D03*
X003346D02*
D03*
Y043465D02*
D03*
Y042965D02*
D03*
Y042465D02*
D03*
Y041965D02*
D03*
Y041465D02*
D03*
Y040965D02*
D03*
Y040465D02*
D03*
X017054Y043965D02*
D03*
Y043465D02*
D03*
Y042965D02*
D03*
Y042465D02*
D03*
Y041965D02*
D03*
Y041465D02*
D03*
Y040965D02*
D03*
Y040465D02*
D03*
X019094D02*
D03*
Y040965D02*
D03*
Y041465D02*
D03*
Y041965D02*
D03*
Y042465D02*
D03*
Y042965D02*
D03*
Y043465D02*
D03*
Y043965D02*
D03*
X010362Y040449D02*
D03*
Y040949D02*
D03*
Y041449D02*
D03*
Y041949D02*
D03*
Y042449D02*
D03*
Y042949D02*
D03*
Y043449D02*
D03*
Y043949D02*
D03*
X012402D02*
D03*
Y043449D02*
D03*
Y042949D02*
D03*
Y042449D02*
D03*
Y041949D02*
D03*
Y041449D02*
D03*
Y040949D02*
D03*
Y040449D02*
D03*
M02*
