G04*
G04 #@! TF.GenerationSoftware,Altium Limited,Altium Designer,18.0.7 (293)*
G04*
G04 Layer_Color=2752767*
%FSTAX24Y24*%
%MOIN*%
G70*
G01*
G75*
%ADD57C,0.0020*%
%ADD58C,0.0027*%
D57*
X050852Y035029D02*
Y035189D01*
X051012D01*
Y035029D01*
X050852D01*
X051852D02*
Y035189D01*
X052012D01*
Y035029D01*
X051852D01*
X052852D02*
Y035189D01*
X053012D01*
Y035029D01*
X052852D01*
X053852D02*
Y035189D01*
X054012D01*
Y035029D01*
X053852D01*
X054852D02*
Y035189D01*
X055012D01*
Y035029D01*
X054852D01*
X050852Y049029D02*
Y049189D01*
X051012D01*
Y049029D01*
X050852D01*
X051852D02*
Y049189D01*
X052012D01*
Y049029D01*
X051852D01*
X052852D02*
Y049189D01*
X053012D01*
Y049029D01*
X052852D01*
X053852D02*
Y049189D01*
X054012D01*
Y049029D01*
X053852D01*
X054852D02*
Y049189D01*
X055012D01*
Y049029D01*
X054852D01*
X043167Y048979D02*
Y049139D01*
X043327D01*
Y048979D01*
X043167D01*
X042167D02*
Y049139D01*
X042327D01*
Y048979D01*
X042167D01*
X041167D02*
Y049139D01*
X041327D01*
Y048979D01*
X041167D01*
X040167D02*
Y049139D01*
X040327D01*
Y048979D01*
X040167D01*
X039167D02*
Y049139D01*
X039327D01*
Y048979D01*
X039167D01*
X043167Y034979D02*
Y035139D01*
X043327D01*
Y034979D01*
X043167D01*
X042167D02*
Y035139D01*
X042327D01*
Y034979D01*
X042167D01*
X041167D02*
Y035139D01*
X041327D01*
Y034979D01*
X041167D01*
X040167D02*
Y035139D01*
X040327D01*
Y034979D01*
X040167D01*
X039167D02*
Y035139D01*
X039327D01*
Y034979D01*
X039167D01*
X031532Y049029D02*
Y049189D01*
X031692D01*
Y049029D01*
X031532D01*
X030532D02*
Y049189D01*
X030692D01*
Y049029D01*
X030532D01*
X029532D02*
Y049189D01*
X029692D01*
Y049029D01*
X029532D01*
X028532D02*
Y049189D01*
X028692D01*
Y049029D01*
X028532D01*
X027532D02*
Y049189D01*
X027692D01*
Y049029D01*
X027532D01*
X031532Y035029D02*
Y035189D01*
X031692D01*
Y035029D01*
X031532D01*
X030532D02*
Y035189D01*
X030692D01*
Y035029D01*
X030532D01*
X029532D02*
Y035189D01*
X029692D01*
Y035029D01*
X029532D01*
X028532D02*
Y035189D01*
X028692D01*
Y035029D01*
X028532D01*
X027532D02*
Y035189D01*
X027692D01*
Y035029D01*
X027532D01*
X019848Y048979D02*
Y049139D01*
X020008D01*
Y048979D01*
X019848D01*
X018848D02*
Y049139D01*
X019008D01*
Y048979D01*
X018848D01*
X017848D02*
Y049139D01*
X018008D01*
Y048979D01*
X017848D01*
X016848D02*
Y049139D01*
X017008D01*
Y048979D01*
X016848D01*
X015848D02*
Y049139D01*
X016008D01*
Y048979D01*
X015848D01*
X019848Y034979D02*
Y035139D01*
X020008D01*
Y034979D01*
X019848D01*
X018848D02*
Y035139D01*
X019008D01*
Y034979D01*
X018848D01*
X017848D02*
Y035139D01*
X018008D01*
Y034979D01*
X017848D01*
X016848D02*
Y035139D01*
X017008D01*
Y034979D01*
X016848D01*
X015848D02*
Y035139D01*
X016008D01*
Y034979D01*
X015848D01*
X062487D02*
Y035139D01*
X062647D01*
Y034979D01*
X062487D01*
X063487D02*
Y035139D01*
X063647D01*
Y034979D01*
X063487D01*
X064487D02*
Y035139D01*
X064647D01*
Y034979D01*
X064487D01*
X065487D02*
Y035139D01*
X065647D01*
Y034979D01*
X065487D01*
X066487D02*
Y035139D01*
X066647D01*
Y034979D01*
X066487D01*
X062487Y048979D02*
Y049139D01*
X062647D01*
Y048979D01*
X062487D01*
X063487D02*
Y049139D01*
X063647D01*
Y048979D01*
X063487D01*
X064487D02*
Y049139D01*
X064647D01*
Y048979D01*
X064487D01*
X065487D02*
Y049139D01*
X065647D01*
Y048979D01*
X065487D01*
X066487D02*
Y049139D01*
X066647D01*
Y048979D01*
X066487D01*
X023531Y042066D02*
X023451Y042226D01*
X023612D01*
X023531Y042066D01*
X031496D02*
X031416Y042226D01*
X031576D01*
X031496Y042066D01*
X070835Y046865D02*
X070875Y046905D01*
X070915D01*
X070875Y046945D01*
X070915Y046985D01*
X070875D01*
X070835Y047025D01*
X070795Y046985D01*
X070755D01*
X070795Y046945D01*
X070755Y046905D01*
X070795D01*
X070835Y046865D01*
X072835Y048365D02*
X072875Y048405D01*
X072915D01*
X072875Y048445D01*
X072915Y048485D01*
X072875D01*
X072835Y048525D01*
X072795Y048485D01*
X072755D01*
X072795Y048445D01*
X072755Y048405D01*
X072795D01*
X072835Y048365D01*
Y045865D02*
X072875Y045905D01*
X072915D01*
X072875Y045945D01*
X072915Y045985D01*
X072875D01*
X072835Y046025D01*
X072795Y045985D01*
X072755D01*
X072795Y045945D01*
X072755Y045905D01*
X072795D01*
X072835Y045865D01*
X008188Y048979D02*
Y049139D01*
X008348D01*
Y048979D01*
X008188D01*
X007188D02*
Y049139D01*
X007348D01*
Y048979D01*
X007188D01*
X006188D02*
Y049139D01*
X006348D01*
Y048979D01*
X006188D01*
X005188D02*
Y049139D01*
X005348D01*
Y048979D01*
X005188D01*
X004188D02*
Y049139D01*
X004348D01*
Y048979D01*
X004188D01*
X008188Y034979D02*
Y035139D01*
X008348D01*
Y034979D01*
X008188D01*
X007188D02*
Y035139D01*
X007348D01*
Y034979D01*
X007188D01*
X006188D02*
Y035139D01*
X006348D01*
Y034979D01*
X006188D01*
X005188D02*
Y035139D01*
X005348D01*
Y034979D01*
X005188D01*
X004188D02*
Y035139D01*
X004348D01*
Y034979D01*
X004188D01*
X0424Y038719D02*
X04244Y038799D01*
X0424Y038879D01*
X04248Y038839D01*
X04256Y038879D01*
X04252Y038799D01*
X04256Y038719D01*
X04248Y038759D01*
X0424Y038719D01*
X0434D02*
X04344Y038799D01*
X0434Y038879D01*
X04348Y038839D01*
X04356Y038879D01*
X04352Y038799D01*
X04356Y038719D01*
X04348Y038759D01*
X0434Y038719D01*
X0444D02*
X04444Y038799D01*
X0444Y038879D01*
X04448Y038839D01*
X04456Y038879D01*
X04452Y038799D01*
X04456Y038719D01*
X04448Y038759D01*
X0444Y038719D01*
X0454D02*
X04544Y038799D01*
X0454Y038879D01*
X04548Y038839D01*
X04556Y038879D01*
X04552Y038799D01*
X04556Y038719D01*
X04548Y038759D01*
X0454Y038719D01*
X0464D02*
X04644Y038799D01*
X0464Y038879D01*
X04648Y038839D01*
X04656Y038879D01*
X04652Y038799D01*
X04656Y038719D01*
X04648Y038759D01*
X0464Y038719D01*
X0474D02*
X04744Y038799D01*
X0474Y038879D01*
X04748Y038839D01*
X04756Y038879D01*
X04752Y038799D01*
X04756Y038719D01*
X04748Y038759D01*
X0474Y038719D01*
X0484D02*
X04844Y038799D01*
X0484Y038879D01*
X04848Y038839D01*
X04856Y038879D01*
X04852Y038799D01*
X04856Y038719D01*
X04848Y038759D01*
X0484Y038719D01*
X0494D02*
X04944Y038799D01*
X0494Y038879D01*
X04948Y038839D01*
X04956Y038879D01*
X04952Y038799D01*
X04956Y038719D01*
X04948Y038759D01*
X0494Y038719D01*
X0504D02*
X05044Y038799D01*
X0504Y038879D01*
X05048Y038839D01*
X05056Y038879D01*
X05052Y038799D01*
X05056Y038719D01*
X05048Y038759D01*
X0504Y038719D01*
X0514D02*
X05144Y038799D01*
X0514Y038879D01*
X05148Y038839D01*
X05156Y038879D01*
X05152Y038799D01*
X05156Y038719D01*
X05148Y038759D01*
X0514Y038719D01*
X0524D02*
X05244Y038799D01*
X0524Y038879D01*
X05248Y038839D01*
X05256Y038879D01*
X05252Y038799D01*
X05256Y038719D01*
X05248Y038759D01*
X0524Y038719D01*
X0534D02*
X05344Y038799D01*
X0534Y038879D01*
X05348Y038839D01*
X05356Y038879D01*
X05352Y038799D01*
X05356Y038719D01*
X05348Y038759D01*
X0534Y038719D01*
X0544D02*
X05444Y038799D01*
X0544Y038879D01*
X05448Y038839D01*
X05456Y038879D01*
X05452Y038799D01*
X05456Y038719D01*
X05448Y038759D01*
X0544Y038719D01*
X0554D02*
X05544Y038799D01*
X0554Y038879D01*
X05548Y038839D01*
X05556Y038879D01*
X05552Y038799D01*
X05556Y038719D01*
X05548Y038759D01*
X0554Y038719D01*
X0564D02*
X05644Y038799D01*
X0564Y038879D01*
X05648Y038839D01*
X05656Y038879D01*
X05652Y038799D01*
X05656Y038719D01*
X05648Y038759D01*
X0564Y038719D01*
X0574D02*
X05744Y038799D01*
X0574Y038879D01*
X05748Y038839D01*
X05756Y038879D01*
X05752Y038799D01*
X05756Y038719D01*
X05748Y038759D01*
X0574Y038719D01*
X0584D02*
X05844Y038799D01*
X0584Y038879D01*
X05848Y038839D01*
X05856Y038879D01*
X05852Y038799D01*
X05856Y038719D01*
X05848Y038759D01*
X0584Y038719D01*
X0594D02*
X05944Y038799D01*
X0594Y038879D01*
X05948Y038839D01*
X05956Y038879D01*
X05952Y038799D01*
X05956Y038719D01*
X05948Y038759D01*
X0594Y038719D01*
X0604D02*
X06044Y038799D01*
X0604Y038879D01*
X06048Y038839D01*
X06056Y038879D01*
X06052Y038799D01*
X06056Y038719D01*
X06048Y038759D01*
X0604Y038719D01*
X0614D02*
X06144Y038799D01*
X0614Y038879D01*
X06148Y038839D01*
X06156Y038879D01*
X06152Y038799D01*
X06156Y038719D01*
X06148Y038759D01*
X0614Y038719D01*
Y044794D02*
X06144Y044874D01*
X0614Y044954D01*
X06148Y044914D01*
X06156Y044954D01*
X06152Y044874D01*
X06156Y044794D01*
X06148Y044834D01*
X0614Y044794D01*
X0604D02*
X06044Y044874D01*
X0604Y044954D01*
X06048Y044914D01*
X06056Y044954D01*
X06052Y044874D01*
X06056Y044794D01*
X06048Y044834D01*
X0604Y044794D01*
X0594D02*
X05944Y044874D01*
X0594Y044954D01*
X05948Y044914D01*
X05956Y044954D01*
X05952Y044874D01*
X05956Y044794D01*
X05948Y044834D01*
X0594Y044794D01*
X0584D02*
X05844Y044874D01*
X0584Y044954D01*
X05848Y044914D01*
X05856Y044954D01*
X05852Y044874D01*
X05856Y044794D01*
X05848Y044834D01*
X0584Y044794D01*
X0574D02*
X05744Y044874D01*
X0574Y044954D01*
X05748Y044914D01*
X05756Y044954D01*
X05752Y044874D01*
X05756Y044794D01*
X05748Y044834D01*
X0574Y044794D01*
X0564D02*
X05644Y044874D01*
X0564Y044954D01*
X05648Y044914D01*
X05656Y044954D01*
X05652Y044874D01*
X05656Y044794D01*
X05648Y044834D01*
X0564Y044794D01*
X0554D02*
X05544Y044874D01*
X0554Y044954D01*
X05548Y044914D01*
X05556Y044954D01*
X05552Y044874D01*
X05556Y044794D01*
X05548Y044834D01*
X0554Y044794D01*
X0544D02*
X05444Y044874D01*
X0544Y044954D01*
X05448Y044914D01*
X05456Y044954D01*
X05452Y044874D01*
X05456Y044794D01*
X05448Y044834D01*
X0544Y044794D01*
X0534D02*
X05344Y044874D01*
X0534Y044954D01*
X05348Y044914D01*
X05356Y044954D01*
X05352Y044874D01*
X05356Y044794D01*
X05348Y044834D01*
X0534Y044794D01*
X0524D02*
X05244Y044874D01*
X0524Y044954D01*
X05248Y044914D01*
X05256Y044954D01*
X05252Y044874D01*
X05256Y044794D01*
X05248Y044834D01*
X0524Y044794D01*
X0514D02*
X05144Y044874D01*
X0514Y044954D01*
X05148Y044914D01*
X05156Y044954D01*
X05152Y044874D01*
X05156Y044794D01*
X05148Y044834D01*
X0514Y044794D01*
X0504D02*
X05044Y044874D01*
X0504Y044954D01*
X05048Y044914D01*
X05056Y044954D01*
X05052Y044874D01*
X05056Y044794D01*
X05048Y044834D01*
X0504Y044794D01*
X0494D02*
X04944Y044874D01*
X0494Y044954D01*
X04948Y044914D01*
X04956Y044954D01*
X04952Y044874D01*
X04956Y044794D01*
X04948Y044834D01*
X0494Y044794D01*
X0484D02*
X04844Y044874D01*
X0484Y044954D01*
X04848Y044914D01*
X04856Y044954D01*
X04852Y044874D01*
X04856Y044794D01*
X04848Y044834D01*
X0484Y044794D01*
X0474D02*
X04744Y044874D01*
X0474Y044954D01*
X04748Y044914D01*
X04756Y044954D01*
X04752Y044874D01*
X04756Y044794D01*
X04748Y044834D01*
X0474Y044794D01*
X0464D02*
X04644Y044874D01*
X0464Y044954D01*
X04648Y044914D01*
X04656Y044954D01*
X04652Y044874D01*
X04656Y044794D01*
X04648Y044834D01*
X0464Y044794D01*
X0454D02*
X04544Y044874D01*
X0454Y044954D01*
X04548Y044914D01*
X04556Y044954D01*
X04552Y044874D01*
X04556Y044794D01*
X04548Y044834D01*
X0454Y044794D01*
X0444D02*
X04444Y044874D01*
X0444Y044954D01*
X04448Y044914D01*
X04456Y044954D01*
X04452Y044874D01*
X04456Y044794D01*
X04448Y044834D01*
X0444Y044794D01*
X0434D02*
X04344Y044874D01*
X0434Y044954D01*
X04348Y044914D01*
X04356Y044954D01*
X04352Y044874D01*
X04356Y044794D01*
X04348Y044834D01*
X0434Y044794D01*
X0424D02*
X04244Y044874D01*
X0424Y044954D01*
X04248Y044914D01*
X04256Y044954D01*
X04252Y044874D01*
X04256Y044794D01*
X04248Y044834D01*
X0424Y044794D01*
X03933Y039743D02*
Y039703D01*
X03941D01*
Y039743D01*
X03945D01*
Y039823D01*
X03941D01*
Y039863D01*
X03933D01*
Y039823D01*
X03929D01*
Y039743D01*
X03933D01*
X04033D02*
Y039703D01*
X04041D01*
Y039743D01*
X04045D01*
Y039823D01*
X04041D01*
Y039863D01*
X04033D01*
Y039823D01*
X04029D01*
Y039743D01*
X04033D01*
X00664Y043837D02*
X00668D01*
X00672Y043877D01*
X00676Y043837D01*
X0068D01*
Y043877D01*
X00676Y043917D01*
X0068Y043957D01*
Y043997D01*
X00676D01*
X00672Y043957D01*
X00668Y043997D01*
X00664D01*
Y043957D01*
X00668Y043917D01*
X00664Y043877D01*
Y043837D01*
X013109Y042853D02*
X013149D01*
X013189Y042893D01*
X013229Y042853D01*
X013269D01*
Y042893D01*
X013229Y042933D01*
X013269Y042973D01*
Y043013D01*
X013229D01*
X013189Y042973D01*
X013149Y043013D01*
X013109D01*
Y042973D01*
X013149Y042933D01*
X013109Y042893D01*
Y042853D01*
Y042263D02*
X013149D01*
X013189Y042303D01*
X013229Y042263D01*
X013269D01*
Y042303D01*
X013229Y042343D01*
X013269Y042383D01*
Y042423D01*
X013229D01*
X013189Y042383D01*
X013149Y042423D01*
X013109D01*
Y042383D01*
X013149Y042343D01*
X013109Y042303D01*
Y042263D01*
Y041081D02*
X013149D01*
X013189Y041121D01*
X013229Y041081D01*
X013269D01*
Y041121D01*
X013229Y041161D01*
X013269Y041201D01*
Y041241D01*
X013229D01*
X013189Y041201D01*
X013149Y041241D01*
X013109D01*
Y041201D01*
X013149Y041161D01*
X013109Y041121D01*
Y041081D01*
X004451Y043721D02*
X004531Y043801D01*
X004611Y043721D01*
X004531Y043641D01*
X004451Y043721D01*
X00482Y03688D02*
X00486D01*
X0049Y03692D01*
X00494Y03688D01*
X00498D01*
Y03692D01*
X00494Y03696D01*
X00498Y037D01*
Y03704D01*
X00494D01*
X0049Y037D01*
X00486Y03704D01*
X00482D01*
Y037D01*
X00486Y03696D01*
X00482Y03692D01*
Y03688D01*
X01726Y03957D02*
X0173D01*
X01734Y03961D01*
X01738Y03957D01*
X01742D01*
Y03961D01*
X01738Y03965D01*
X01742Y03969D01*
Y03973D01*
X01738D01*
X01734Y03969D01*
X0173Y03973D01*
X01726D01*
Y03969D01*
X0173Y03965D01*
X01726Y03961D01*
Y03957D01*
X0135Y04867D02*
X01354D01*
X01358Y04871D01*
X01362Y04867D01*
X01366D01*
Y04871D01*
X01362Y04875D01*
X01366Y04879D01*
Y04883D01*
X01362D01*
X01358Y04879D01*
X01354Y04883D01*
X0135D01*
Y04879D01*
X01354Y04875D01*
X0135Y04871D01*
Y04867D01*
X007254Y043673D02*
X007294D01*
X007334Y043713D01*
X007374Y043673D01*
X007414D01*
Y043713D01*
X007374Y043753D01*
X007414Y043793D01*
Y043833D01*
X007374D01*
X007334Y043793D01*
X007294Y043833D01*
X007254D01*
Y043793D01*
X007294Y043753D01*
X007254Y043713D01*
Y043673D01*
X00714Y0427D02*
X00718D01*
X00722Y04274D01*
X00726Y0427D01*
X0073D01*
Y04274D01*
X00726Y04278D01*
X0073Y04282D01*
Y04286D01*
X00726D01*
X00722Y04282D01*
X00718Y04286D01*
X00714D01*
Y04282D01*
X00718Y04278D01*
X00714Y04274D01*
Y0427D01*
X0544Y046593D02*
X05444D01*
X05448Y046633D01*
X05452Y046593D01*
X05456D01*
Y046633D01*
X05452Y046673D01*
X05456Y046713D01*
Y046753D01*
X05452D01*
X05448Y046713D01*
X05444Y046753D01*
X0544D01*
Y046713D01*
X05444Y046673D01*
X0544Y046633D01*
Y046593D01*
X06446Y04723D02*
X0645D01*
X06454Y04727D01*
X06458Y04723D01*
X06462D01*
Y04727D01*
X06458Y04731D01*
X06462Y04735D01*
Y04739D01*
X06458D01*
X06454Y04735D01*
X0645Y04739D01*
X06446D01*
Y04735D01*
X0645Y04731D01*
X06446Y04727D01*
Y04723D01*
X027489Y042146D02*
X027569Y042226D01*
X027649Y042146D01*
X027569Y042066D01*
X027489Y042146D01*
X05989Y04641D02*
X05993D01*
X05997Y04645D01*
X06001Y04641D01*
X06005D01*
Y04645D01*
X06001Y04649D01*
X06005Y04653D01*
Y04657D01*
X06001D01*
X05997Y04653D01*
X05993Y04657D01*
X05989D01*
Y04653D01*
X05993Y04649D01*
X05989Y04645D01*
Y04641D01*
X06271Y03705D02*
X06275D01*
X06279Y03709D01*
X06283Y03705D01*
X06287D01*
Y03709D01*
X06283Y03713D01*
X06287Y03717D01*
Y03721D01*
X06283D01*
X06279Y03717D01*
X06275Y03721D01*
X06271D01*
Y03717D01*
X06275Y03713D01*
X06271Y03709D01*
Y03705D01*
X016259Y03674D02*
X016299D01*
X016339Y03678D01*
X016379Y03674D01*
X016419D01*
Y03678D01*
X016379Y03682D01*
X016419Y03686D01*
Y0369D01*
X016379D01*
X016339Y03686D01*
X016299Y0369D01*
X016259D01*
Y03686D01*
X016299Y03682D01*
X016259Y03678D01*
Y03674D01*
X015968Y04009D02*
X016048Y04017D01*
X016128Y04009D01*
X016048Y04001D01*
X015968Y04009D01*
X0075Y040885D02*
X00754D01*
X00758Y040925D01*
X00762Y040885D01*
X00766D01*
Y040925D01*
X00762Y040965D01*
X00766Y041005D01*
Y041045D01*
X00762D01*
X00758Y041005D01*
X00754Y041045D01*
X0075D01*
Y041005D01*
X00754Y040965D01*
X0075Y040925D01*
Y040885D01*
D58*
X034332Y040571D02*
G03*
X034332Y040571I-00008J0D01*
G01*
Y041571D02*
G03*
X034332Y041571I-00008J0D01*
G01*
Y042571D02*
G03*
X034332Y042571I-00008J0D01*
G01*
Y043571D02*
G03*
X034332Y043571I-00008J0D01*
G01*
X037332Y040571D02*
G03*
X037332Y040571I-00008J0D01*
G01*
Y041571D02*
G03*
X037332Y041571I-00008J0D01*
G01*
Y042571D02*
G03*
X037332Y042571I-00008J0D01*
G01*
Y043571D02*
G03*
X037332Y043571I-00008J0D01*
G01*
X071399Y041752D02*
G03*
X071399Y041752I-00008J0D01*
G01*
X073899Y043752D02*
G03*
X073899Y043752I-00008J0D01*
G01*
Y041752D02*
G03*
X073899Y041752I-00008J0D01*
G01*
X071399Y043752D02*
G03*
X071399Y043752I-00008J0D01*
G01*
Y037815D02*
G03*
X071399Y037815I-00008J0D01*
G01*
X073899Y039815D02*
G03*
X073899Y039815I-00008J0D01*
G01*
Y037815D02*
G03*
X073899Y037815I-00008J0D01*
G01*
X071399Y039815D02*
G03*
X071399Y039815I-00008J0D01*
G01*
X07134Y033878D02*
G03*
X07134Y033878I-00008J0D01*
G01*
X07384Y035878D02*
G03*
X07384Y035878I-00008J0D01*
G01*
Y033878D02*
G03*
X07384Y033878I-00008J0D01*
G01*
X07134Y035878D02*
G03*
X07134Y035878I-00008J0D01*
G01*
M02*
