G04*
G04 #@! TF.GenerationSoftware,Altium Limited,Altium Designer,18.0.7 (293)*
G04*
G04 Layer_Color=128*
%FSTAX24Y24*%
%MOIN*%
G70*
G01*
G75*
%ADD15R,0.0500X0.0550*%
%ADD45R,0.0550X0.0500*%
%ADD46R,0.0591X0.0591*%
%ADD47R,0.0670X0.0210*%
D15*
X02725Y036831D02*
D03*
X02815D02*
D03*
X030202Y047461D02*
D03*
X031102D02*
D03*
X030202Y036831D02*
D03*
X031102D02*
D03*
X02725Y047461D02*
D03*
X02815D02*
D03*
X024213D02*
D03*
X025113D02*
D03*
X02126Y036831D02*
D03*
X02216D02*
D03*
X024297D02*
D03*
X025197D02*
D03*
X009533Y046673D02*
D03*
X010433D02*
D03*
X012486D02*
D03*
X013386D02*
D03*
X009533Y037618D02*
D03*
X010433D02*
D03*
X012486D02*
D03*
X013386D02*
D03*
X015439D02*
D03*
X016339D02*
D03*
X018391Y046673D02*
D03*
X019291D02*
D03*
X015354D02*
D03*
X016254D02*
D03*
X02216Y047461D02*
D03*
X02126D02*
D03*
X018391Y037618D02*
D03*
X019291D02*
D03*
D45*
X048622Y036437D02*
D03*
Y037337D02*
D03*
X060433Y036437D02*
D03*
Y037337D02*
D03*
X038386Y046673D02*
D03*
Y047573D02*
D03*
X055118Y037337D02*
D03*
Y036437D02*
D03*
X051772D02*
D03*
Y037337D02*
D03*
X053346Y036437D02*
D03*
Y037337D02*
D03*
X063976Y047573D02*
D03*
Y046673D02*
D03*
X050591Y047573D02*
D03*
Y046673D02*
D03*
X062402Y047573D02*
D03*
Y046673D02*
D03*
X050197Y036437D02*
D03*
Y037337D02*
D03*
X036811Y036634D02*
D03*
Y037534D02*
D03*
X042913Y037337D02*
D03*
Y036437D02*
D03*
X041339Y037337D02*
D03*
Y036437D02*
D03*
X034055Y036634D02*
D03*
Y037534D02*
D03*
X061024Y046673D02*
D03*
Y047573D02*
D03*
X062008Y037337D02*
D03*
Y036437D02*
D03*
X063583Y037337D02*
D03*
Y036437D02*
D03*
X065354Y046673D02*
D03*
Y047573D02*
D03*
X053543Y046673D02*
D03*
Y047573D02*
D03*
X052165Y046673D02*
D03*
Y047573D02*
D03*
X039961Y046673D02*
D03*
Y047573D02*
D03*
X041339Y046673D02*
D03*
Y047573D02*
D03*
X039961Y037337D02*
D03*
Y036437D02*
D03*
X044291Y046673D02*
D03*
Y047573D02*
D03*
X042913Y046673D02*
D03*
Y047573D02*
D03*
X003937Y046673D02*
D03*
Y047573D02*
D03*
X001969Y037534D02*
D03*
Y036634D02*
D03*
X003937Y037534D02*
D03*
Y036634D02*
D03*
X005906Y037534D02*
D03*
Y036634D02*
D03*
X007874Y046673D02*
D03*
Y047573D02*
D03*
X005906Y046673D02*
D03*
Y047573D02*
D03*
X065354Y037337D02*
D03*
Y036437D02*
D03*
X049213Y046673D02*
D03*
Y047573D02*
D03*
X044291Y037337D02*
D03*
Y036437D02*
D03*
X007874Y037534D02*
D03*
Y036634D02*
D03*
X001969Y046673D02*
D03*
Y047573D02*
D03*
D46*
X056496Y036437D02*
D03*
X057874D02*
D03*
D47*
X005386Y040465D02*
D03*
Y040965D02*
D03*
Y041465D02*
D03*
Y041965D02*
D03*
Y042465D02*
D03*
Y042965D02*
D03*
Y043465D02*
D03*
Y043965D02*
D03*
X003346D02*
D03*
Y043465D02*
D03*
Y042965D02*
D03*
Y042465D02*
D03*
Y041965D02*
D03*
Y041465D02*
D03*
Y040965D02*
D03*
Y040465D02*
D03*
X017054Y043965D02*
D03*
Y043465D02*
D03*
Y042965D02*
D03*
Y042465D02*
D03*
Y041965D02*
D03*
Y041465D02*
D03*
Y040965D02*
D03*
Y040465D02*
D03*
X019094D02*
D03*
Y040965D02*
D03*
Y041465D02*
D03*
Y041965D02*
D03*
Y042465D02*
D03*
Y042965D02*
D03*
Y043465D02*
D03*
Y043965D02*
D03*
X010362Y040449D02*
D03*
Y040949D02*
D03*
Y041449D02*
D03*
Y041949D02*
D03*
Y042449D02*
D03*
Y042949D02*
D03*
Y043449D02*
D03*
Y043949D02*
D03*
X012402D02*
D03*
Y043449D02*
D03*
Y042949D02*
D03*
Y042449D02*
D03*
Y041949D02*
D03*
Y041449D02*
D03*
Y040949D02*
D03*
Y040449D02*
D03*
M02*
