M48
;Layer_Color=9474304
;FILE_FORMAT=2:4
INCH,LZ
;TYPE=PLATED
T1F00S00C0.0157
T2F00S00C0.0276
T3F00S00C0.0280
T4F00S00C0.0310
T5F00S00C0.0320
T6F00S00C0.0335
T7F00S00C0.0450
%
T01
X0049Y03696
X00758Y040965
X00722Y04278
X007334Y043753
X00672Y043917
X013189Y042933
Y042343
Y041161
X01734Y03965
X016339Y03682
X05448Y046673
X05997Y04649
X06279Y03713
X06454Y04731
X01358Y04875
T02
X004531Y043721
X016048Y04009
X027569Y042146
T03
X004268Y035059
X005268
X006268
X007268
X008268
X015928
X016928
X017928
X018928
X019928
X027612Y035109
X028612
X029612
X030612
X031612
X039247Y035059
X040247
X041247
X042247
X043247
X050932Y035109
X051932
X052932
X053932
X054932
X062567Y035059
X063567
X064567
X065567
X066567
Y049059
X065567
X064567
X063567
X062567
X054932Y049109
X053932
X052932
X051932
X050932
X043247Y049059
X042247
X041247
X040247
X039247
X031612Y049109
X030612
X029612
X028612
X027612
X019928Y049059
X018928
X017928
X016928
X015928
X008268
X007268
X006268
X005268
X004268
T04
X034252Y040571
Y041571
Y042571
Y043571
X037252
Y042571
Y041571
Y040571
X071319Y039815
Y041752
Y043752
X073819
Y041752
Y039815
Y037815
X07376Y035878
Y033878
X07126
Y035878
X071319Y037815
T05
X03937Y039783
X04037
T06
X04248Y038799
X04348
X04448
X04548
X04648
Y044874
X04548
X04448
X04348
X04248
X04748
X04848
X04948
X05048
X05148
X05248
X05348
X05448
X05548
X05648
X05748
X05848
X05948
X06048
X06148
Y038799
X06048
X05948
X05848
X05748
X05648
X05548
X05448
X05348
X05248
X05148
X05048
X04948
X04848
X04748
T07
X023531Y042146
X031496
M30
