G04*
G04 #@! TF.GenerationSoftware,Altium Limited,Altium Designer,18.0.7 (293)*
G04*
G04 Layer_Color=16711935*
%FSTAX24Y24*%
%MOIN*%
G70*
G01*
G75*
%ADD13C,0.0050*%
%ADD52C,0.0079*%
%ADD55C,0.0000*%
D13*
X041793Y039174D02*
X062168D01*
X041793Y044499D02*
X062168D01*
Y039174D02*
Y044499D01*
X041793Y039174D02*
Y044499D01*
D52*
X04252Y045535D02*
G03*
X04252Y045535I-000039J0D01*
G01*
D55*
X004486Y040245D02*
G03*
X004246Y040245I-00012J0D01*
G01*
X017954Y044185D02*
G03*
X018194Y044185I00012J0D01*
G01*
X011502Y040229D02*
G03*
X011262Y040229I-00012J0D01*
G01*
X003576Y040245D02*
Y044185D01*
Y040245D02*
X004246D01*
X004486D01*
X005156D01*
Y044185D01*
X003576D02*
X005156D01*
Y040365D02*
X005586D01*
Y040565D01*
X005156D02*
X005586D01*
X005156Y040365D02*
Y040565D01*
Y040865D02*
X005586D01*
Y041065D01*
X005156D02*
X005586D01*
X005156Y040865D02*
Y041065D01*
Y041365D02*
X005586D01*
Y041565D01*
X005156D02*
X005586D01*
X005156Y041365D02*
Y041565D01*
Y041865D02*
X005586D01*
Y042065D01*
X005156D02*
X005586D01*
X005156Y041865D02*
Y042065D01*
Y042365D02*
X005586D01*
Y042565D01*
X005156D02*
X005586D01*
X005156Y042365D02*
Y042565D01*
Y042865D02*
X005586D01*
Y043065D01*
X005156D02*
X005586D01*
X005156Y042865D02*
Y043065D01*
Y043365D02*
X005586D01*
Y043565D01*
X005156D02*
X005586D01*
X005156Y043365D02*
Y043565D01*
Y043865D02*
X005586D01*
Y044065D01*
X005156D02*
X005586D01*
X005156Y043865D02*
Y044065D01*
X003146D02*
X003576D01*
X003146Y043865D02*
Y044065D01*
Y043865D02*
X003576D01*
Y044065D01*
X003146Y043565D02*
X003576D01*
X003146Y043365D02*
Y043565D01*
Y043365D02*
X003576D01*
Y043565D01*
X003146Y043065D02*
X003576D01*
X003146Y042865D02*
Y043065D01*
Y042865D02*
X003576D01*
Y043065D01*
X003146Y042565D02*
X003576D01*
X003146Y042365D02*
Y042565D01*
Y042365D02*
X003576D01*
Y042565D01*
X003146Y042065D02*
X003576D01*
X003146Y041865D02*
Y042065D01*
Y041865D02*
X003576D01*
Y042065D01*
X003146Y041565D02*
X003576D01*
X003146Y041365D02*
Y041565D01*
Y041365D02*
X003576D01*
Y041565D01*
X003146Y041065D02*
X003576D01*
X003146Y040865D02*
Y041065D01*
Y040865D02*
X003576D01*
Y041065D01*
X003146Y040565D02*
X003576D01*
X003146Y040365D02*
Y040565D01*
Y040365D02*
X003576D01*
Y040565D01*
X018864Y040245D02*
Y044185D01*
X018194D02*
X018864D01*
X017954D02*
X018194D01*
X017284D02*
X017954D01*
X017284Y040245D02*
Y044185D01*
Y040245D02*
X018864D01*
X016854Y044065D02*
X017284D01*
X016854Y043865D02*
Y044065D01*
Y043865D02*
X017284D01*
Y044065D01*
X016854Y043565D02*
X017284D01*
X016854Y043365D02*
Y043565D01*
Y043365D02*
X017284D01*
Y043565D01*
X016854Y043065D02*
X017284D01*
X016854Y042865D02*
Y043065D01*
Y042865D02*
X017284D01*
Y043065D01*
X016854Y042565D02*
X017284D01*
X016854Y042365D02*
Y042565D01*
Y042365D02*
X017284D01*
Y042565D01*
X016854Y042065D02*
X017284D01*
X016854Y041865D02*
Y042065D01*
Y041865D02*
X017284D01*
Y042065D01*
X016854Y041565D02*
X017284D01*
X016854Y041365D02*
Y041565D01*
Y041365D02*
X017284D01*
Y041565D01*
X016854Y041065D02*
X017284D01*
X016854Y040865D02*
Y041065D01*
Y040865D02*
X017284D01*
Y041065D01*
X016854Y040565D02*
X017284D01*
X016854Y040365D02*
Y040565D01*
Y040365D02*
X017284D01*
Y040565D01*
X018864Y040365D02*
X019294D01*
Y040565D01*
X018864D02*
X019294D01*
X018864Y040365D02*
Y040565D01*
Y040865D02*
X019294D01*
Y041065D01*
X018864D02*
X019294D01*
X018864Y040865D02*
Y041065D01*
Y041365D02*
X019294D01*
Y041565D01*
X018864D02*
X019294D01*
X018864Y041365D02*
Y041565D01*
Y041865D02*
X019294D01*
Y042065D01*
X018864D02*
X019294D01*
X018864Y041865D02*
Y042065D01*
Y042365D02*
X019294D01*
Y042565D01*
X018864D02*
X019294D01*
X018864Y042365D02*
Y042565D01*
Y042865D02*
X019294D01*
Y043065D01*
X018864D02*
X019294D01*
X018864Y042865D02*
Y043065D01*
Y043365D02*
X019294D01*
Y043565D01*
X018864D02*
X019294D01*
X018864Y043365D02*
Y043565D01*
Y043865D02*
X019294D01*
Y044065D01*
X018864D02*
X019294D01*
X018864Y043865D02*
Y044065D01*
X010592Y040349D02*
Y040549D01*
X010162Y040349D02*
X010592D01*
X010162D02*
Y040549D01*
X010592D01*
Y040849D02*
Y041049D01*
X010162Y040849D02*
X010592D01*
X010162D02*
Y041049D01*
X010592D01*
Y041349D02*
Y041549D01*
X010162Y041349D02*
X010592D01*
X010162D02*
Y041549D01*
X010592D01*
Y041849D02*
Y042049D01*
X010162Y041849D02*
X010592D01*
X010162D02*
Y042049D01*
X010592D01*
Y042349D02*
Y042549D01*
X010162Y042349D02*
X010592D01*
X010162D02*
Y042549D01*
X010592D01*
Y042849D02*
Y043049D01*
X010162Y042849D02*
X010592D01*
X010162D02*
Y043049D01*
X010592D01*
Y043349D02*
Y043549D01*
X010162Y043349D02*
X010592D01*
X010162D02*
Y043549D01*
X010592D01*
Y043849D02*
Y044049D01*
X010162Y043849D02*
X010592D01*
X010162D02*
Y044049D01*
X010592D01*
X012172Y043849D02*
Y044049D01*
X012602D01*
Y043849D02*
Y044049D01*
X012172Y043849D02*
X012602D01*
X012172Y043349D02*
Y043549D01*
X012602D01*
Y043349D02*
Y043549D01*
X012172Y043349D02*
X012602D01*
X012172Y042849D02*
Y043049D01*
X012602D01*
Y042849D02*
Y043049D01*
X012172Y042849D02*
X012602D01*
X012172Y042349D02*
Y042549D01*
X012602D01*
Y042349D02*
Y042549D01*
X012172Y042349D02*
X012602D01*
X012172Y041849D02*
Y042049D01*
X012602D01*
Y041849D02*
Y042049D01*
X012172Y041849D02*
X012602D01*
X012172Y041349D02*
Y041549D01*
X012602D01*
Y041349D02*
Y041549D01*
X012172Y041349D02*
X012602D01*
X012172Y040849D02*
Y041049D01*
X012602D01*
Y040849D02*
Y041049D01*
X012172Y040849D02*
X012602D01*
X012172Y040349D02*
Y040549D01*
X012602D01*
Y040349D02*
Y040549D01*
X012172Y040349D02*
X012602D01*
X010592Y044169D02*
X012172D01*
Y040229D02*
Y044169D01*
X011502Y040229D02*
X012172D01*
X011262D02*
X011502D01*
X010592D02*
X011262D01*
X010592D02*
Y044169D01*
M02*
