G04*
G04 #@! TF.GenerationSoftware,Altium Limited,Altium Designer,18.0.7 (293)*
G04*
G04 Layer_Color=32896*
%FSTAX24Y24*%
%MOIN*%
G70*
G01*
G75*
%ADD10C,0.0060*%
%ADD11C,0.0100*%
%ADD12C,0.0040*%
%ADD13C,0.0050*%
%ADD14C,0.0070*%
%ADD51C,0.0150*%
%ADD52C,0.0079*%
%ADD53R,0.0920X0.0290*%
D10*
X004486Y040245D02*
G03*
X004246Y040245I-00012J0D01*
G01*
X017954Y044185D02*
G03*
X018194Y044185I00012J0D01*
G01*
X011502Y040229D02*
G03*
X011262Y040229I-00012J0D01*
G01*
X003746Y040245D02*
X004246D01*
X004486D01*
X004986D01*
X003746Y044185D02*
X004986D01*
X018194D02*
X018694D01*
X017954D02*
X018194D01*
X017454D02*
X017954D01*
X017454Y040245D02*
X018694D01*
X010762Y044169D02*
X012002D01*
X011502Y040229D02*
X012002D01*
X011262D02*
X011502D01*
X010762D02*
X011262D01*
D11*
X057296Y036728D02*
Y037327D01*
X056996D01*
X056896Y037228D01*
Y037028D01*
X056996Y036928D01*
X057296D01*
X057096D02*
X056896Y036728D01*
X056296Y037327D02*
X056696D01*
Y037028D01*
X056496Y037128D01*
X056396D01*
X056296Y037028D01*
Y036828D01*
X056396Y036728D01*
X056596D01*
X056696Y036828D01*
X055696Y037327D02*
X056096D01*
Y037028D01*
X055896Y037128D01*
X055796D01*
X055696Y037028D01*
Y036828D01*
X055796Y036728D01*
X055996D01*
X056096Y036828D01*
X03707Y03817D02*
Y03877D01*
X03677D01*
X03667Y03867D01*
Y03847D01*
X03677Y03837D01*
X03707D01*
X03687D02*
X03667Y03817D01*
X03607Y03877D02*
X03647D01*
Y03847D01*
X03627Y03857D01*
X03617D01*
X03607Y03847D01*
Y03827D01*
X03617Y03817D01*
X03637D01*
X03647Y03827D01*
X035471Y03817D02*
X03587D01*
X035471Y03857D01*
Y03867D01*
X03557Y03877D01*
X03577D01*
X03587Y03867D01*
X02535Y048127D02*
Y048727D01*
X02505D01*
X02495Y048627D01*
Y048427D01*
X02505Y048327D01*
X02535D01*
X02515D02*
X02495Y048127D01*
X02435D02*
X02475D01*
X02435Y048527D01*
Y048627D01*
X02445Y048727D01*
X02465D01*
X02475Y048627D01*
X02415D02*
X02405Y048727D01*
X02385D01*
X023751Y048627D01*
Y048527D01*
X02385Y048427D01*
X02395D01*
X02385D01*
X023751Y048327D01*
Y048227D01*
X02385Y048127D01*
X02405D01*
X02415Y048227D01*
X02239Y037497D02*
Y038097D01*
X02209D01*
X02199Y037997D01*
Y037797D01*
X02209Y037697D01*
X02239D01*
X02219D02*
X02199Y037497D01*
X02139D02*
X02179D01*
X02139Y037897D01*
Y037997D01*
X02149Y038097D01*
X02169D01*
X02179Y037997D01*
X020791Y037497D02*
X02119D01*
X020791Y037897D01*
Y037997D01*
X02089Y038097D01*
X02109D01*
X02119Y037997D01*
X02543Y037497D02*
Y038097D01*
X02513D01*
X02503Y037997D01*
Y037797D01*
X02513Y037697D01*
X02543D01*
X02523D02*
X02503Y037497D01*
X02443D02*
X02483D01*
X02443Y037897D01*
Y037997D01*
X02453Y038097D01*
X02473D01*
X02483Y037997D01*
X02423Y037497D02*
X02403D01*
X02413D01*
Y038097D01*
X02423Y037997D01*
X01067Y047337D02*
Y047937D01*
X01037D01*
X01027Y047837D01*
Y047637D01*
X01037Y047537D01*
X01067D01*
X01047D02*
X01027Y047337D01*
X00967D02*
X01007D01*
X00967Y047737D01*
Y047837D01*
X00977Y047937D01*
X00997D01*
X01007Y047837D01*
X00947D02*
X00937Y047937D01*
X00917D01*
X009071Y047837D01*
Y047437D01*
X00917Y047337D01*
X00937D01*
X00947Y047437D01*
Y047837D01*
X01362Y047337D02*
Y047937D01*
X01332D01*
X01322Y047837D01*
Y047637D01*
X01332Y047537D01*
X01362D01*
X01342D02*
X01322Y047337D01*
X01302D02*
X01282D01*
X01292D01*
Y047937D01*
X01302Y047837D01*
X01252Y047437D02*
X01242Y047337D01*
X01222D01*
X01212Y047437D01*
Y047837D01*
X01222Y047937D01*
X01242D01*
X01252Y047837D01*
Y047737D01*
X01242Y047637D01*
X01212D01*
X01067Y038287D02*
Y038887D01*
X01037D01*
X01027Y038787D01*
Y038587D01*
X01037Y038487D01*
X01067D01*
X01047D02*
X01027Y038287D01*
X01007D02*
X00987D01*
X00997D01*
Y038887D01*
X01007Y038787D01*
X00957D02*
X00947Y038887D01*
X00927D01*
X00917Y038787D01*
Y038687D01*
X00927Y038587D01*
X00917Y038487D01*
Y038387D01*
X00927Y038287D01*
X00947D01*
X00957Y038387D01*
Y038487D01*
X00947Y038587D01*
X00957Y038687D01*
Y038787D01*
X00947Y038587D02*
X00927D01*
X01362Y038287D02*
Y038887D01*
X01332D01*
X01322Y038787D01*
Y038587D01*
X01332Y038487D01*
X01362D01*
X01342D02*
X01322Y038287D01*
X01302D02*
X01282D01*
X01292D01*
Y038887D01*
X01302Y038787D01*
X01252Y038887D02*
X01212D01*
Y038787D01*
X01252Y038387D01*
Y038287D01*
X04067Y045207D02*
X04027Y044607D01*
Y045207D02*
X04067Y044607D01*
X04007D02*
X03987D01*
X03997D01*
Y045207D01*
X04007Y045107D01*
X06218Y04651D02*
Y04601D01*
X06208Y04591D01*
X06188D01*
X06178Y04601D01*
Y04651D01*
X06128Y04591D02*
Y04651D01*
X06158Y04621D01*
X06118D01*
X01937Y04511D02*
Y04461D01*
X01927Y04451D01*
X01907D01*
X01897Y04461D01*
Y04511D01*
X01877Y04501D02*
X01867Y04511D01*
X01847D01*
X01837Y04501D01*
Y04491D01*
X01847Y04481D01*
X01857D01*
X01847D01*
X01837Y04471D01*
Y04461D01*
X01847Y04451D01*
X01867D01*
X01877Y04461D01*
X01268Y045097D02*
Y044597D01*
X01258Y044497D01*
X01238D01*
X01228Y044597D01*
Y045097D01*
X01168Y044497D02*
X01208D01*
X01168Y044897D01*
Y044997D01*
X01178Y045097D01*
X01198D01*
X01208Y044997D01*
X00566Y04511D02*
Y04461D01*
X00556Y04451D01*
X00536D01*
X00526Y04461D01*
Y04511D01*
X00506Y04451D02*
X00486D01*
X00496D01*
Y04511D01*
X00506Y04501D01*
X03865Y04822D02*
Y04882D01*
X03835D01*
X03825Y04872D01*
Y04852D01*
X03835Y04842D01*
X03865D01*
X03845D02*
X03825Y04822D01*
X03765Y04882D02*
X03805D01*
Y04852D01*
X03785Y04862D01*
X03775D01*
X03765Y04852D01*
Y04832D01*
X03775Y04822D01*
X03795D01*
X03805Y04832D01*
X03715Y04822D02*
Y04882D01*
X03745Y04852D01*
X037051D01*
X03431Y03817D02*
Y03877D01*
X03401D01*
X03391Y03867D01*
Y03847D01*
X03401Y03837D01*
X03431D01*
X03411D02*
X03391Y03817D01*
X03331Y03877D02*
X03371D01*
Y03847D01*
X03351Y03857D01*
X03341D01*
X03331Y03847D01*
Y03827D01*
X03341Y03817D01*
X03361D01*
X03371Y03827D01*
X03311Y03867D02*
X03301Y03877D01*
X03281D01*
X032711Y03867D01*
Y03857D01*
X03281Y03847D01*
X03291D01*
X03281D01*
X032711Y03837D01*
Y03827D01*
X03281Y03817D01*
X03301D01*
X03311Y03827D01*
X06128Y04821D02*
Y04881D01*
X06098D01*
X06088Y04871D01*
Y04851D01*
X06098Y04841D01*
X06128D01*
X06108D02*
X06088Y04821D01*
X06038D02*
Y04881D01*
X06068Y04851D01*
X06028D01*
X06008Y04871D02*
X05998Y04881D01*
X05978D01*
X059681Y04871D01*
Y04861D01*
X05978Y04851D01*
X059681Y04841D01*
Y04831D01*
X05978Y04821D01*
X05998D01*
X06008Y04831D01*
Y04841D01*
X05998Y04851D01*
X06008Y04861D01*
Y04871D01*
X05998Y04851D02*
X05978D01*
X06374Y04821D02*
Y04881D01*
X06344D01*
X06334Y04871D01*
Y04851D01*
X06344Y04841D01*
X06374D01*
X06354D02*
X06334Y04821D01*
X06284D02*
Y04881D01*
X06314Y04851D01*
X06274D01*
X06254Y04881D02*
X062141D01*
Y04871D01*
X06254Y04831D01*
Y04821D01*
X06178Y03798D02*
Y03858D01*
X06148D01*
X06138Y03848D01*
Y03828D01*
X06148Y03818D01*
X06178D01*
X06158D02*
X06138Y03798D01*
X06088D02*
Y03858D01*
X06118Y03828D01*
X06078D01*
X060181Y03858D02*
X06038Y03848D01*
X06058Y03828D01*
Y03808D01*
X06048Y03798D01*
X06028D01*
X060181Y03808D01*
Y03818D01*
X06028Y03828D01*
X06058D01*
X06227Y03798D02*
Y03858D01*
X06197D01*
X06187Y03848D01*
Y03828D01*
X06197Y03818D01*
X06227D01*
X06207D02*
X06187Y03798D01*
X06137D02*
Y03858D01*
X06167Y03828D01*
X06127D01*
X060671Y03858D02*
X06107D01*
Y03828D01*
X06087Y03838D01*
X06077D01*
X060671Y03828D01*
Y03808D01*
X06077Y03798D01*
X06097D01*
X06107Y03808D01*
X06385Y03798D02*
Y03858D01*
X06355D01*
X06345Y03848D01*
Y03828D01*
X06355Y03818D01*
X06385D01*
X06365D02*
X06345Y03798D01*
X06295D02*
Y03858D01*
X06325Y03828D01*
X06285D01*
X06235Y03798D02*
Y03858D01*
X06265Y03828D01*
X062251D01*
X06561Y04821D02*
Y04881D01*
X06531D01*
X06521Y04871D01*
Y04851D01*
X06531Y04841D01*
X06561D01*
X06541D02*
X06521Y04821D01*
X06471D02*
Y04881D01*
X06501Y04851D01*
X06461D01*
X06441Y04871D02*
X06431Y04881D01*
X06411D01*
X064011Y04871D01*
Y04861D01*
X06411Y04851D01*
X06421D01*
X06411D01*
X064011Y04841D01*
Y04831D01*
X06411Y04821D01*
X06431D01*
X06441Y04831D01*
X06531Y04821D02*
Y04881D01*
X06501D01*
X06491Y04871D01*
Y04851D01*
X06501Y04841D01*
X06531D01*
X06511D02*
X06491Y04821D01*
X06441D02*
Y04881D01*
X06471Y04851D01*
X06431D01*
X063711Y04821D02*
X06411D01*
X063711Y04861D01*
Y04871D01*
X06381Y04881D01*
X06401D01*
X06411Y04871D01*
X05449Y03798D02*
Y03858D01*
X05419D01*
X05409Y03848D01*
Y03828D01*
X05419Y03818D01*
X05449D01*
X05429D02*
X05409Y03798D01*
X05359D02*
Y03858D01*
X05389Y03828D01*
X05349D01*
X05329Y03798D02*
X05309D01*
X05319D01*
Y03858D01*
X05329Y03848D01*
X05312Y03798D02*
Y03858D01*
X05282D01*
X05272Y03848D01*
Y03828D01*
X05282Y03818D01*
X05312D01*
X05292D02*
X05272Y03798D01*
X05222D02*
Y03858D01*
X05252Y03828D01*
X05212D01*
X05192Y03848D02*
X05182Y03858D01*
X05162D01*
X051521Y03848D01*
Y03808D01*
X05162Y03798D01*
X05182D01*
X05192Y03808D01*
Y03848D01*
X0538Y04821D02*
Y04881D01*
X0535D01*
X0534Y04871D01*
Y04851D01*
X0535Y04841D01*
X0538D01*
X0536D02*
X0534Y04821D01*
X0532Y04871D02*
X0531Y04881D01*
X0529D01*
X0528Y04871D01*
Y04861D01*
X0529Y04851D01*
X053D01*
X0529D01*
X0528Y04841D01*
Y04831D01*
X0529Y04821D01*
X0531D01*
X0532Y04831D01*
X0526D02*
X0525Y04821D01*
X0523D01*
X052201Y04831D01*
Y04871D01*
X0523Y04881D01*
X0525D01*
X0526Y04871D01*
Y04861D01*
X0525Y04851D01*
X052201D01*
X05242Y04821D02*
Y04881D01*
X05212D01*
X05202Y04871D01*
Y04851D01*
X05212Y04841D01*
X05242D01*
X05222D02*
X05202Y04821D01*
X05182Y04871D02*
X05172Y04881D01*
X05152D01*
X05142Y04871D01*
Y04861D01*
X05152Y04851D01*
X05162D01*
X05152D01*
X05142Y04841D01*
Y04831D01*
X05152Y04821D01*
X05172D01*
X05182Y04831D01*
X05122Y04871D02*
X05112Y04881D01*
X05092D01*
X050821Y04871D01*
Y04861D01*
X05092Y04851D01*
X050821Y04841D01*
Y04831D01*
X05092Y04821D01*
X05112D01*
X05122Y04831D01*
Y04841D01*
X05112Y04851D01*
X05122Y04861D01*
Y04871D01*
X05112Y04851D02*
X05092D01*
X05193Y04821D02*
Y04881D01*
X05163D01*
X05153Y04871D01*
Y04851D01*
X05163Y04841D01*
X05193D01*
X05173D02*
X05153Y04821D01*
X05133Y04871D02*
X05123Y04881D01*
X05103D01*
X05093Y04871D01*
Y04861D01*
X05103Y04851D01*
X05113D01*
X05103D01*
X05093Y04841D01*
Y04831D01*
X05103Y04821D01*
X05123D01*
X05133Y04831D01*
X05073Y04881D02*
X050331D01*
Y04871D01*
X05073Y04831D01*
Y04821D01*
X04997Y03798D02*
Y03858D01*
X04967D01*
X04957Y03848D01*
Y03828D01*
X04967Y03818D01*
X04997D01*
X04977D02*
X04957Y03798D01*
X04937Y03848D02*
X04927Y03858D01*
X04907D01*
X04897Y03848D01*
Y03838D01*
X04907Y03828D01*
X04917D01*
X04907D01*
X04897Y03818D01*
Y03808D01*
X04907Y03798D01*
X04927D01*
X04937Y03808D01*
X048371Y03858D02*
X04857Y03848D01*
X04877Y03828D01*
Y03808D01*
X04867Y03798D01*
X04847D01*
X048371Y03808D01*
Y03818D01*
X04847Y03828D01*
X04877D01*
X05154Y03798D02*
Y03858D01*
X05124D01*
X05114Y03848D01*
Y03828D01*
X05124Y03818D01*
X05154D01*
X05134D02*
X05114Y03798D01*
X05094Y03848D02*
X05084Y03858D01*
X05064D01*
X05054Y03848D01*
Y03838D01*
X05064Y03828D01*
X05074D01*
X05064D01*
X05054Y03818D01*
Y03808D01*
X05064Y03798D01*
X05084D01*
X05094Y03808D01*
X049941Y03858D02*
X05034D01*
Y03828D01*
X05014Y03838D01*
X05004D01*
X049941Y03828D01*
Y03808D01*
X05004Y03798D01*
X05024D01*
X05034Y03808D01*
X04022Y04821D02*
Y04881D01*
X03992D01*
X03982Y04871D01*
Y04851D01*
X03992Y04841D01*
X04022D01*
X04002D02*
X03982Y04821D01*
X03962Y04871D02*
X03952Y04881D01*
X03932D01*
X03922Y04871D01*
Y04861D01*
X03932Y04851D01*
X03942D01*
X03932D01*
X03922Y04841D01*
Y04831D01*
X03932Y04821D01*
X03952D01*
X03962Y04831D01*
X03872Y04821D02*
Y04881D01*
X03902Y04851D01*
X038621D01*
X04159Y04821D02*
Y04881D01*
X04129D01*
X04119Y04871D01*
Y04851D01*
X04129Y04841D01*
X04159D01*
X04139D02*
X04119Y04821D01*
X04099Y04871D02*
X04089Y04881D01*
X04069D01*
X04059Y04871D01*
Y04861D01*
X04069Y04851D01*
X04079D01*
X04069D01*
X04059Y04841D01*
Y04831D01*
X04069Y04821D01*
X04089D01*
X04099Y04831D01*
X04039Y04871D02*
X04029Y04881D01*
X04009D01*
X039991Y04871D01*
Y04861D01*
X04009Y04851D01*
X04019D01*
X04009D01*
X039991Y04841D01*
Y04831D01*
X04009Y04821D01*
X04029D01*
X04039Y04831D01*
X04023Y03798D02*
Y03858D01*
X03993D01*
X03983Y03848D01*
Y03828D01*
X03993Y03818D01*
X04023D01*
X04003D02*
X03983Y03798D01*
X03963Y03848D02*
X03953Y03858D01*
X03933D01*
X03923Y03848D01*
Y03838D01*
X03933Y03828D01*
X03943D01*
X03933D01*
X03923Y03818D01*
Y03808D01*
X03933Y03798D01*
X03953D01*
X03963Y03808D01*
X038631Y03798D02*
X03903D01*
X038631Y03838D01*
Y03848D01*
X03873Y03858D01*
X03893D01*
X03903Y03848D01*
X0416Y03798D02*
Y03858D01*
X0413D01*
X0412Y03848D01*
Y03828D01*
X0413Y03818D01*
X0416D01*
X0414D02*
X0412Y03798D01*
X041Y03848D02*
X0409Y03858D01*
X0407D01*
X0406Y03848D01*
Y03838D01*
X0407Y03828D01*
X0408D01*
X0407D01*
X0406Y03818D01*
Y03808D01*
X0407Y03798D01*
X0409D01*
X041Y03808D01*
X0404Y03798D02*
X0402D01*
X0403D01*
Y03858D01*
X0404Y03848D01*
X04318Y03798D02*
Y03858D01*
X04288D01*
X04278Y03848D01*
Y03828D01*
X04288Y03818D01*
X04318D01*
X04298D02*
X04278Y03798D01*
X04258Y03848D02*
X04248Y03858D01*
X04228D01*
X04218Y03848D01*
Y03838D01*
X04228Y03828D01*
X04238D01*
X04228D01*
X04218Y03818D01*
Y03808D01*
X04228Y03798D01*
X04248D01*
X04258Y03808D01*
X04198Y03848D02*
X04188Y03858D01*
X04168D01*
X041581Y03848D01*
Y03808D01*
X04168Y03798D01*
X04188D01*
X04198Y03808D01*
Y03848D01*
X04455Y04821D02*
Y04881D01*
X04425D01*
X04415Y04871D01*
Y04851D01*
X04425Y04841D01*
X04455D01*
X04435D02*
X04415Y04821D01*
X04355D02*
X04395D01*
X04355Y04861D01*
Y04871D01*
X04365Y04881D01*
X04385D01*
X04395Y04871D01*
X04335Y04831D02*
X04325Y04821D01*
X04305D01*
X042951Y04831D01*
Y04871D01*
X04305Y04881D01*
X04325D01*
X04335Y04871D01*
Y04861D01*
X04325Y04851D01*
X042951D01*
X04317Y04821D02*
Y04881D01*
X04287D01*
X04277Y04871D01*
Y04851D01*
X04287Y04841D01*
X04317D01*
X04297D02*
X04277Y04821D01*
X04217D02*
X04257D01*
X04217Y04861D01*
Y04871D01*
X04227Y04881D01*
X04247D01*
X04257Y04871D01*
X04197D02*
X04187Y04881D01*
X04167D01*
X041571Y04871D01*
Y04861D01*
X04167Y04851D01*
X041571Y04841D01*
Y04831D01*
X04167Y04821D01*
X04187D01*
X04197Y04831D01*
Y04841D01*
X04187Y04851D01*
X04197Y04861D01*
Y04871D01*
X04187Y04851D02*
X04167D01*
X03134Y037497D02*
Y038097D01*
X03104D01*
X03094Y037997D01*
Y037797D01*
X03104Y037697D01*
X03134D01*
X03114D02*
X03094Y037497D01*
X03034D02*
X03074D01*
X03034Y037897D01*
Y037997D01*
X03044Y038097D01*
X03064D01*
X03074Y037997D01*
X03014Y038097D02*
X029741D01*
Y037997D01*
X03014Y037597D01*
Y037497D01*
X02838D02*
Y038097D01*
X02808D01*
X02798Y037997D01*
Y037797D01*
X02808Y037697D01*
X02838D01*
X02818D02*
X02798Y037497D01*
X02738D02*
X02778D01*
X02738Y037897D01*
Y037997D01*
X02748Y038097D01*
X02768D01*
X02778Y037997D01*
X026781Y038097D02*
X02698Y037997D01*
X02718Y037797D01*
Y037597D01*
X02708Y037497D01*
X02688D01*
X026781Y037597D01*
Y037697D01*
X02688Y037797D01*
X02718D01*
X03134Y048127D02*
Y048727D01*
X03104D01*
X03094Y048627D01*
Y048427D01*
X03104Y048327D01*
X03134D01*
X03114D02*
X03094Y048127D01*
X03034D02*
X03074D01*
X03034Y048527D01*
Y048627D01*
X03044Y048727D01*
X03064D01*
X03074Y048627D01*
X029741Y048727D02*
X03014D01*
Y048427D01*
X02994Y048527D01*
X02984D01*
X029741Y048427D01*
Y048227D01*
X02984Y048127D01*
X03004D01*
X03014Y048227D01*
X02838Y048127D02*
Y048727D01*
X02808D01*
X02798Y048627D01*
Y048427D01*
X02808Y048327D01*
X02838D01*
X02818D02*
X02798Y048127D01*
X02738D02*
X02778D01*
X02738Y048527D01*
Y048627D01*
X02748Y048727D01*
X02768D01*
X02778Y048627D01*
X02688Y048127D02*
Y048727D01*
X02718Y048427D01*
X026781D01*
X01657Y038287D02*
Y038887D01*
X01627D01*
X01617Y038787D01*
Y038587D01*
X01627Y038487D01*
X01657D01*
X01637D02*
X01617Y038287D01*
X01597D02*
X01577D01*
X01587D01*
Y038887D01*
X01597Y038787D01*
X01507Y038887D02*
X01527Y038787D01*
X01547Y038587D01*
Y038387D01*
X01537Y038287D01*
X01517D01*
X01507Y038387D01*
Y038487D01*
X01517Y038587D01*
X01547D01*
X01953Y047337D02*
Y047937D01*
X01923D01*
X01913Y047837D01*
Y047637D01*
X01923Y047537D01*
X01953D01*
X01933D02*
X01913Y047337D01*
X01893D02*
X01873D01*
X01883D01*
Y047937D01*
X01893Y047837D01*
X01803Y047937D02*
X01843D01*
Y047637D01*
X01823Y047737D01*
X01813D01*
X01803Y047637D01*
Y047437D01*
X01813Y047337D01*
X01833D01*
X01843Y047437D01*
X01649Y047337D02*
Y047937D01*
X01619D01*
X01609Y047837D01*
Y047637D01*
X01619Y047537D01*
X01649D01*
X01629D02*
X01609Y047337D01*
X01589D02*
X01569D01*
X01579D01*
Y047937D01*
X01589Y047837D01*
X01509Y047337D02*
Y047937D01*
X01539Y047637D01*
X01499D01*
X00419Y048207D02*
Y048807D01*
X00389D01*
X00379Y048707D01*
Y048507D01*
X00389Y048407D01*
X00419D01*
X00399D02*
X00379Y048207D01*
X00359D02*
X00339D01*
X00349D01*
Y048807D01*
X00359Y048707D01*
X00269Y048207D02*
X00309D01*
X00269Y048607D01*
Y048707D01*
X00279Y048807D01*
X00299D01*
X00309Y048707D01*
X00223Y038177D02*
Y038777D01*
X00193D01*
X00183Y038677D01*
Y038477D01*
X00193Y038377D01*
X00223D01*
X00203D02*
X00183Y038177D01*
X00163D02*
X00143D01*
X00153D01*
Y038777D01*
X00163Y038677D01*
X00113Y038177D02*
X00093D01*
X00103D01*
Y038777D01*
X00113Y038677D01*
X0042Y038177D02*
Y038777D01*
X0039D01*
X0038Y038677D01*
Y038477D01*
X0039Y038377D01*
X0042D01*
X004D02*
X0038Y038177D01*
X0036D02*
X0034D01*
X0035D01*
Y038777D01*
X0036Y038677D01*
X0031D02*
X003Y038777D01*
X0028D01*
X0027Y038677D01*
Y038277D01*
X0028Y038177D01*
X003D01*
X0031Y038277D01*
Y038677D01*
X00617Y038177D02*
Y038777D01*
X00587D01*
X00577Y038677D01*
Y038477D01*
X00587Y038377D01*
X00617D01*
X00597D02*
X00577Y038177D01*
X00557Y038277D02*
X00547Y038177D01*
X00527D01*
X00517Y038277D01*
Y038677D01*
X00527Y038777D01*
X00547D01*
X00557Y038677D01*
Y038577D01*
X00547Y038477D01*
X00517D01*
X00813Y048207D02*
Y048807D01*
X00783D01*
X00773Y048707D01*
Y048507D01*
X00783Y048407D01*
X00813D01*
X00793D02*
X00773Y048207D01*
X00753Y048707D02*
X00743Y048807D01*
X00723D01*
X00713Y048707D01*
Y048607D01*
X00723Y048507D01*
X00713Y048407D01*
Y048307D01*
X00723Y048207D01*
X00743D01*
X00753Y048307D01*
Y048407D01*
X00743Y048507D01*
X00753Y048607D01*
Y048707D01*
X00743Y048507D02*
X00723D01*
X00616Y048207D02*
Y048807D01*
X00586D01*
X00576Y048707D01*
Y048507D01*
X00586Y048407D01*
X00616D01*
X00596D02*
X00576Y048207D01*
X00556Y048807D02*
X00516D01*
Y048707D01*
X00556Y048307D01*
Y048207D01*
X00222D02*
Y048807D01*
X00192D01*
X00182Y048707D01*
Y048507D01*
X00192Y048407D01*
X00222D01*
X00202D02*
X00182Y048207D01*
X00162D02*
X00142D01*
X00152D01*
Y048807D01*
X00162Y048707D01*
X00112D02*
X00102Y048807D01*
X00082D01*
X00072Y048707D01*
Y048607D01*
X00082Y048507D01*
X00092D01*
X00082D01*
X00072Y048407D01*
Y048307D01*
X00082Y048207D01*
X00102D01*
X00112Y048307D01*
X06562Y03798D02*
Y03858D01*
X06532D01*
X06522Y03848D01*
Y03828D01*
X06532Y03818D01*
X06562D01*
X06542D02*
X06522Y03798D01*
X06462Y03858D02*
X06502D01*
Y03828D01*
X06482Y03838D01*
X06472D01*
X06462Y03828D01*
Y03808D01*
X06472Y03798D01*
X06492D01*
X06502Y03808D01*
X04947Y04821D02*
Y04881D01*
X04917D01*
X04907Y04871D01*
Y04851D01*
X04917Y04841D01*
X04947D01*
X04927D02*
X04907Y04821D01*
X04857D02*
Y04881D01*
X04887Y04851D01*
X04847D01*
X04456Y03798D02*
Y03858D01*
X04426D01*
X04416Y03848D01*
Y03828D01*
X04426Y03818D01*
X04456D01*
X04436D02*
X04416Y03798D01*
X04396Y03848D02*
X04386Y03858D01*
X04366D01*
X04356Y03848D01*
Y03838D01*
X04366Y03828D01*
X04376D01*
X04366D01*
X04356Y03818D01*
Y03808D01*
X04366Y03798D01*
X04386D01*
X04396Y03808D01*
X0224Y048117D02*
Y048717D01*
X0221D01*
X022Y048617D01*
Y048417D01*
X0221Y048317D01*
X0224D01*
X0222D02*
X022Y048117D01*
X0214Y048717D02*
X0216Y048617D01*
X0218Y048417D01*
Y048217D01*
X0217Y048117D01*
X0215D01*
X0214Y048217D01*
Y048317D01*
X0215Y048417D01*
X0218D01*
X01953Y038287D02*
Y038887D01*
X01923D01*
X01913Y038787D01*
Y038587D01*
X01923Y038487D01*
X01953D01*
X01933D02*
X01913Y038287D01*
X01853D02*
X01893D01*
X01853Y038687D01*
Y038787D01*
X01863Y038887D01*
X01883D01*
X01893Y038787D01*
X00814Y038177D02*
Y038777D01*
X00784D01*
X00774Y038677D01*
Y038477D01*
X00784Y038377D01*
X00814D01*
X00794D02*
X00774Y038177D01*
X00754D02*
X00734D01*
X00744D01*
Y038777D01*
X00754Y038677D01*
X03769Y04501D02*
X03749D01*
X03759D01*
Y04441D01*
X03769D01*
X03749D01*
X03679Y04491D02*
X03689Y04501D01*
X03709D01*
X03719Y04491D01*
Y04451D01*
X03709Y04441D01*
X03689D01*
X03679Y04451D01*
X03659Y04441D02*
X03639D01*
X03649D01*
Y04501D01*
X03659Y04491D01*
X056884Y036925D02*
Y037524D01*
X057183D01*
X057283Y037424D01*
Y037024D01*
X057183Y036925D01*
X056884D01*
X057483Y037524D02*
X057683D01*
X057583D01*
Y036925D01*
X057483Y037024D01*
X03206Y047817D02*
Y047217D01*
X03176D01*
X03166Y047317D01*
Y047417D01*
X03176Y047517D01*
X03206D01*
X03176D01*
X03166Y047617D01*
Y047717D01*
X03176Y047817D01*
X03206D01*
X03136Y047617D02*
X03116D01*
X03106Y047517D01*
Y047217D01*
X03136D01*
X03146Y047317D01*
X03136Y047417D01*
X03106D01*
X03076Y047717D02*
Y047617D01*
X03086D01*
X03066D01*
X03076D01*
Y047317D01*
X03066Y047217D01*
X030261Y047717D02*
Y047617D01*
X030361D01*
X030161D01*
X030261D01*
Y047317D01*
X030161Y047217D01*
X029561D02*
X029761D01*
X029861Y047317D01*
Y047517D01*
X029761Y047617D01*
X029561D01*
X029461Y047517D01*
Y047417D01*
X029861D01*
X029261Y047617D02*
Y047217D01*
Y047417D01*
X029161Y047517D01*
X029061Y047617D01*
X028961D01*
X028661D02*
Y047317D01*
X028561Y047217D01*
X028261D01*
Y047117D01*
X028361Y047017D01*
X028461D01*
X028261Y047217D02*
Y047617D01*
X028061Y047217D02*
X027861D01*
X027961D01*
Y047817D01*
X028061Y047717D01*
D12*
X048372Y036717D02*
Y037057D01*
X048872Y036717D02*
Y037057D01*
X060183Y036717D02*
Y037057D01*
X060683Y036717D02*
Y037057D01*
X038136Y046953D02*
Y047293D01*
X038636Y046953D02*
Y047293D01*
X055368Y036717D02*
Y037057D01*
X054868Y036717D02*
Y037057D01*
X051522Y036717D02*
Y037057D01*
X052022Y036717D02*
Y037057D01*
X053096Y036717D02*
Y037057D01*
X053596Y036717D02*
Y037057D01*
X064226Y046953D02*
Y047293D01*
X063726Y046953D02*
Y047293D01*
X050841Y046953D02*
Y047293D01*
X050341Y046953D02*
Y047293D01*
X062652Y046953D02*
Y047293D01*
X062152Y046953D02*
Y047293D01*
X049947Y036717D02*
Y037057D01*
X050447Y036717D02*
Y037057D01*
X036561Y036914D02*
Y037254D01*
X037061Y036914D02*
Y037254D01*
X043163Y036717D02*
Y037057D01*
X042663Y036717D02*
Y037057D01*
X041589Y036717D02*
Y037057D01*
X041089Y036717D02*
Y037057D01*
X02753Y037081D02*
X02787D01*
X02753Y036581D02*
X02787D01*
X030482Y047711D02*
X030822D01*
X030482Y047211D02*
X030822D01*
X033805Y036914D02*
Y037254D01*
X034305Y036914D02*
Y037254D01*
X060774Y046953D02*
Y047293D01*
X061274Y046953D02*
Y047293D01*
X062258Y036717D02*
Y037057D01*
X061758Y036717D02*
Y037057D01*
X063833Y036717D02*
Y037057D01*
X063333Y036717D02*
Y037057D01*
X065104Y046953D02*
Y047293D01*
X065604Y046953D02*
Y047293D01*
X053293Y046953D02*
Y047293D01*
X053793Y046953D02*
Y047293D01*
X051915Y046953D02*
Y047293D01*
X052415Y046953D02*
Y047293D01*
X039711Y046953D02*
Y047293D01*
X040211Y046953D02*
Y047293D01*
X041089Y046953D02*
Y047293D01*
X041589Y046953D02*
Y047293D01*
X040211Y036717D02*
Y037057D01*
X039711Y036717D02*
Y037057D01*
X044041Y046953D02*
Y047293D01*
X044541Y046953D02*
Y047293D01*
X042663Y046953D02*
Y047293D01*
X043163Y046953D02*
Y047293D01*
X030482Y037081D02*
X030822D01*
X030482Y036581D02*
X030822D01*
X02753Y047711D02*
X02787D01*
X02753Y047211D02*
X02787D01*
X024493Y047711D02*
X024833D01*
X024493Y047211D02*
X024833D01*
X02154Y037081D02*
X02188D01*
X02154Y036581D02*
X02188D01*
X024577Y037081D02*
X024917D01*
X024577Y036581D02*
X024917D01*
X009813Y046923D02*
X010153D01*
X009813Y046423D02*
X010153D01*
X012766Y046923D02*
X013106D01*
X012766Y046423D02*
X013106D01*
X009813Y037868D02*
X010153D01*
X009813Y037368D02*
X010153D01*
X012766Y037868D02*
X013106D01*
X012766Y037368D02*
X013106D01*
X015719Y037868D02*
X016059D01*
X015719Y037368D02*
X016059D01*
X018671Y046923D02*
X019011D01*
X018671Y046423D02*
X019011D01*
X015634Y046923D02*
X015974D01*
X015634Y046423D02*
X015974D01*
X003687Y046953D02*
Y047293D01*
X004187Y046953D02*
Y047293D01*
X002218Y036914D02*
Y037254D01*
X001718Y036914D02*
Y037254D01*
X004187Y036914D02*
Y037254D01*
X003687Y036914D02*
Y037254D01*
X006156Y036914D02*
Y037254D01*
X005656Y036914D02*
Y037254D01*
X007624Y046953D02*
Y047293D01*
X008124Y046953D02*
Y047293D01*
X005656Y046953D02*
Y047293D01*
X006156Y046953D02*
Y047293D01*
X065604Y036717D02*
Y037057D01*
X065104Y036717D02*
Y037057D01*
X048963Y046953D02*
Y047293D01*
X049463Y046953D02*
Y047293D01*
X044541Y036717D02*
Y037057D01*
X044041Y036717D02*
Y037057D01*
X02154Y047211D02*
X02188D01*
X02154Y047711D02*
X02188D01*
X018671Y037868D02*
X019011D01*
X018671Y037368D02*
X019011D01*
X008124Y036914D02*
Y037254D01*
X007624Y036914D02*
Y037254D01*
X001718Y046953D02*
Y047293D01*
X002218Y046953D02*
Y047293D01*
D13*
X048962Y036127D02*
Y037657D01*
X048292Y036127D02*
X048962D01*
X048292D02*
Y037657D01*
X048962D01*
X060773Y036127D02*
Y037657D01*
X060103Y036127D02*
X060773D01*
X060103D02*
Y037657D01*
X060773D01*
X038726Y046363D02*
Y047893D01*
X038056Y046363D02*
X038726D01*
X038056D02*
Y047893D01*
X038726D01*
X054778Y036117D02*
Y037647D01*
X055448D01*
Y036117D02*
Y037647D01*
X054778Y036117D02*
X055448D01*
X052112Y036127D02*
Y037657D01*
X051442Y036127D02*
X052112D01*
X051442D02*
Y037657D01*
X052112D01*
X053686Y036127D02*
Y037657D01*
X053016Y036127D02*
X053686D01*
X053016D02*
Y037657D01*
X053686D01*
X063636Y046353D02*
Y047883D01*
X064306D01*
Y046353D02*
Y047883D01*
X063636Y046353D02*
X064306D01*
X050251D02*
Y047883D01*
X050921D01*
Y046353D02*
Y047883D01*
X050251Y046353D02*
X050921D01*
X062062D02*
Y047883D01*
X062732D01*
Y046353D02*
Y047883D01*
X062062Y046353D02*
X062732D01*
X050537Y036127D02*
Y037657D01*
X049867Y036127D02*
X050537D01*
X049867D02*
Y037657D01*
X050537D01*
X036471Y036314D02*
X037141D01*
Y037844D01*
X036471D02*
X037141D01*
X036471Y036314D02*
Y037844D01*
X042583Y037657D02*
X043253D01*
X042583Y036127D02*
Y037657D01*
Y036127D02*
X043253D01*
Y037657D01*
X041009D02*
X041679D01*
X041009Y036127D02*
Y037657D01*
Y036127D02*
X041679D01*
Y037657D01*
X02693Y036501D02*
Y037171D01*
Y036501D02*
X02846D01*
Y037171D01*
X02693D02*
X02846D01*
X029882Y047131D02*
Y047801D01*
Y047131D02*
X031412D01*
Y047801D01*
X029882D02*
X031412D01*
X033715Y036314D02*
X034385D01*
Y037844D01*
X033715D02*
X034385D01*
X033715Y036314D02*
Y037844D01*
X060684Y046353D02*
X061354D01*
Y047883D01*
X060684D02*
X061354D01*
X060684Y046353D02*
Y047883D01*
X061678Y037657D02*
X062348D01*
X061678Y036127D02*
Y037657D01*
Y036127D02*
X062348D01*
Y037657D01*
X063253D02*
X063923D01*
X063253Y036127D02*
Y037657D01*
Y036127D02*
X063923D01*
Y037657D01*
X065014Y046353D02*
X065684D01*
Y047883D01*
X065014D02*
X065684D01*
X065014Y046353D02*
Y047883D01*
X053203Y046353D02*
X053873D01*
Y047883D01*
X053203D02*
X053873D01*
X053203Y046353D02*
Y047883D01*
X051825Y046353D02*
X052495D01*
Y047883D01*
X051825D02*
X052495D01*
X051825Y046353D02*
Y047883D01*
X039621Y046353D02*
X040291D01*
Y047883D01*
X039621D02*
X040291D01*
X039621Y046353D02*
Y047883D01*
X040999Y046353D02*
X041669D01*
Y047883D01*
X040999D02*
X041669D01*
X040999Y046353D02*
Y047883D01*
X039631Y037657D02*
X040301D01*
X039631Y036127D02*
Y037657D01*
Y036127D02*
X040301D01*
Y037657D01*
X043951Y046353D02*
X044621D01*
Y047883D01*
X043951D02*
X044621D01*
X043951Y046353D02*
Y047883D01*
X042573Y046353D02*
X043243D01*
Y047883D01*
X042573D02*
X043243D01*
X042573Y046353D02*
Y047883D01*
X029882Y036501D02*
Y037171D01*
Y036501D02*
X031412D01*
Y037171D01*
X029882D02*
X031412D01*
X02693Y047131D02*
Y047801D01*
Y047131D02*
X02846D01*
Y047801D01*
X02693D02*
X02846D01*
X023893Y047131D02*
Y047801D01*
Y047131D02*
X025423D01*
Y047801D01*
X023893D02*
X025423D01*
X02094Y036501D02*
Y037171D01*
Y036501D02*
X02247D01*
Y037171D01*
X02094D02*
X02247D01*
X023977Y036501D02*
Y037171D01*
Y036501D02*
X025507D01*
Y037171D01*
X023977D02*
X025507D01*
X009213Y046343D02*
Y047013D01*
Y046343D02*
X010743D01*
Y047013D01*
X009213D02*
X010743D01*
X012166Y046343D02*
Y047013D01*
Y046343D02*
X013696D01*
Y047013D01*
X012166D02*
X013696D01*
X009213Y037288D02*
Y037958D01*
Y037288D02*
X010743D01*
Y037958D01*
X009213D02*
X010743D01*
X012166Y037288D02*
Y037958D01*
Y037288D02*
X013696D01*
Y037958D01*
X012166D02*
X013696D01*
X015119Y037288D02*
Y037958D01*
Y037288D02*
X016649D01*
Y037958D01*
X015119D02*
X016649D01*
X018071Y046343D02*
Y047013D01*
Y046343D02*
X019601D01*
Y047013D01*
X018071D02*
X019601D01*
X015034Y046343D02*
Y047013D01*
Y046343D02*
X016564D01*
Y047013D01*
X015034D02*
X016564D01*
X003597Y046353D02*
X004267D01*
Y047883D01*
X003597D02*
X004267D01*
X003597Y046353D02*
Y047883D01*
X001638Y037854D02*
X002308D01*
X001638Y036324D02*
Y037854D01*
Y036324D02*
X002308D01*
Y037854D01*
X003607D02*
X004277D01*
X003607Y036324D02*
Y037854D01*
Y036324D02*
X004277D01*
Y037854D01*
X005576D02*
X006246D01*
X005576Y036324D02*
Y037854D01*
Y036324D02*
X006246D01*
Y037854D01*
X007534Y046353D02*
X008204D01*
Y047883D01*
X007534D02*
X008204D01*
X007534Y046353D02*
Y047883D01*
X005566Y046353D02*
X006236D01*
Y047883D01*
X005566D02*
X006236D01*
X005566Y046353D02*
Y047883D01*
X065024Y037657D02*
X065694D01*
X065024Y036127D02*
Y037657D01*
Y036127D02*
X065694D01*
Y037657D01*
X048873Y046353D02*
X049543D01*
Y047883D01*
X048873D02*
X049543D01*
X048873Y046353D02*
Y047883D01*
X043961Y037657D02*
X044631D01*
X043961Y036127D02*
Y037657D01*
Y036127D02*
X044631D01*
Y037657D01*
X02248Y047121D02*
Y047791D01*
X02095D02*
X02248D01*
X02095Y047121D02*
Y047791D01*
Y047121D02*
X02248D01*
X018071Y037288D02*
Y037958D01*
Y037288D02*
X019601D01*
Y037958D01*
X018071D02*
X019601D01*
X007544Y037854D02*
X008214D01*
X007544Y036324D02*
Y037854D01*
Y036324D02*
X008214D01*
Y037854D01*
X001629Y046353D02*
X002298D01*
Y047883D01*
X001629D02*
X002298D01*
X001629Y046353D02*
Y047883D01*
X062168Y039174D02*
Y044499D01*
X041793Y039174D02*
Y044499D01*
Y039174D02*
X042087D01*
X061874Y044499D02*
X062168D01*
X041793D02*
X042087D01*
X061874Y039174D02*
X062168D01*
D14*
X035252Y044071D02*
G03*
X036252Y044075I0005J-000013D01*
G01*
X030846Y043695D02*
G03*
X030843Y040564I-004274J-001561D01*
G01*
X036252Y044071D02*
X037752D01*
X033752D02*
X035242D01*
X037752Y040071D02*
Y044071D01*
X033752Y040071D02*
X037752D01*
X033752D02*
Y044071D01*
X035252Y041051D02*
X036252D01*
Y043061D01*
X035252D02*
X036252D01*
X035252Y041051D02*
Y043061D01*
X030843Y040584D02*
X032122D01*
Y043684D01*
X030859D02*
X032122D01*
X031262Y042724D02*
Y043344D01*
X031782D01*
Y040894D02*
Y043344D01*
X031252Y040894D02*
X031782D01*
X031252D02*
Y041504D01*
X04037Y040283D02*
Y040783D01*
X03937Y040283D02*
Y040783D01*
X04037D02*
X04073D01*
Y044273D01*
X03907D02*
X04073D01*
X03907Y040783D02*
Y044273D01*
Y040783D02*
X03937D01*
X03986Y041293D02*
Y042153D01*
X03941D02*
X04027D01*
X03941Y042923D02*
X04027D01*
X03985Y042933D02*
Y043793D01*
D51*
X036562Y043561D02*
G03*
X036562Y043561I-00008J0D01*
G01*
D52*
X04252Y045535D02*
G03*
X04252Y045535I-000039J0D01*
G01*
X057579Y035984D02*
X058248D01*
Y03689D02*
X058445Y036732D01*
X058248Y035984D02*
X058445Y036142D01*
X057579Y03689D02*
X058248D01*
X058445Y036142D02*
Y036732D01*
X056043Y035984D02*
Y03689D01*
Y035984D02*
X056791D01*
X056043Y03689D02*
X056791D01*
D53*
X03983Y042548D02*
D03*
M02*
