G04*
G04 #@! TF.GenerationSoftware,Altium Limited,Altium Designer,18.0.7 (293)*
G04*
G04 Layer_Color=255*
%FSTAX24Y24*%
%MOIN*%
G70*
G01*
G75*
%ADD15R,0.0500X0.0550*%
%ADD31O,0.0700X0.1000*%
%ADD32R,0.0700X0.1000*%
%ADD33O,0.0900X0.0600*%
%ADD34R,0.0900X0.0600*%
%ADD35C,0.0750*%
%ADD36C,0.1000*%
%ADD37R,0.1000X0.1000*%
%ADD38R,0.1000X0.1600*%
%ADD39R,0.1600X0.1000*%
%ADD40C,0.0535*%
%ADD41R,0.0535X0.0535*%
%ADD42C,0.0591*%
%ADD45R,0.0550X0.0500*%
%ADD46R,0.0591X0.0591*%
%ADD47R,0.0670X0.0210*%
D15*
X02725Y036831D02*
D03*
X02815D02*
D03*
X030202Y047461D02*
D03*
X031102D02*
D03*
X030202Y036831D02*
D03*
X031102D02*
D03*
X02725Y047461D02*
D03*
X02815D02*
D03*
X024213D02*
D03*
X025113D02*
D03*
X02126Y036831D02*
D03*
X02216D02*
D03*
X024297D02*
D03*
X025197D02*
D03*
X009533Y046673D02*
D03*
X010433D02*
D03*
X012486D02*
D03*
X013386D02*
D03*
X009533Y037618D02*
D03*
X010433D02*
D03*
X012486D02*
D03*
X013386D02*
D03*
X015439D02*
D03*
X016339D02*
D03*
X018391Y046673D02*
D03*
X019291D02*
D03*
X015354D02*
D03*
X016254D02*
D03*
X02216Y047461D02*
D03*
X02126D02*
D03*
X018391Y037618D02*
D03*
X019291D02*
D03*
D31*
X050932Y035109D02*
D03*
X051932D02*
D03*
X052932D02*
D03*
X053932D02*
D03*
X054932D02*
D03*
X050932Y049109D02*
D03*
X051932D02*
D03*
X052932D02*
D03*
X053932D02*
D03*
X043247Y049059D02*
D03*
X042247D02*
D03*
X041247D02*
D03*
X040247D02*
D03*
X039247D02*
D03*
X043247Y035059D02*
D03*
X042247D02*
D03*
X041247D02*
D03*
X040247D02*
D03*
X030612Y049109D02*
D03*
X029612D02*
D03*
X028612D02*
D03*
X027612D02*
D03*
X031612Y035109D02*
D03*
X030612D02*
D03*
X029612D02*
D03*
X028612D02*
D03*
X027612D02*
D03*
X019928Y049059D02*
D03*
X018928D02*
D03*
X017928D02*
D03*
X016928D02*
D03*
X015928D02*
D03*
X019928Y035059D02*
D03*
X018928D02*
D03*
X017928D02*
D03*
X016928D02*
D03*
X063567D02*
D03*
X064567D02*
D03*
X065567D02*
D03*
X066567D02*
D03*
X062567Y049059D02*
D03*
X063567D02*
D03*
X064567D02*
D03*
X065567D02*
D03*
X066567D02*
D03*
X008268D02*
D03*
X007268D02*
D03*
X006268D02*
D03*
X005268D02*
D03*
X004268D02*
D03*
X008268Y035059D02*
D03*
X007268D02*
D03*
X006268D02*
D03*
X005268D02*
D03*
D32*
X054932Y049109D02*
D03*
X039247Y035059D02*
D03*
X031612Y049109D02*
D03*
X015928Y035059D02*
D03*
X062567D02*
D03*
X004268D02*
D03*
D33*
X034252Y040571D02*
D03*
Y041571D02*
D03*
Y042571D02*
D03*
Y043571D02*
D03*
X037252Y040571D02*
D03*
Y041571D02*
D03*
Y042571D02*
D03*
D34*
Y043571D02*
D03*
D35*
X071319Y041752D02*
D03*
X073819Y043752D02*
D03*
Y041752D02*
D03*
X071319Y043752D02*
D03*
Y037815D02*
D03*
X073819Y039815D02*
D03*
Y037815D02*
D03*
X071319Y039815D02*
D03*
X07126Y033878D02*
D03*
X07376Y035878D02*
D03*
Y033878D02*
D03*
X07126Y035878D02*
D03*
D36*
X023531Y042146D02*
D03*
D37*
X031496D02*
D03*
D38*
X070835Y046945D02*
D03*
D39*
X072835Y048445D02*
D03*
Y045945D02*
D03*
D40*
X04248Y038799D02*
D03*
X04348D02*
D03*
X04448D02*
D03*
X04548D02*
D03*
X04648D02*
D03*
X04748D02*
D03*
X04848D02*
D03*
X04948D02*
D03*
X05048D02*
D03*
X05148D02*
D03*
X05248D02*
D03*
X05348D02*
D03*
X05448D02*
D03*
X05548D02*
D03*
X05648D02*
D03*
X05748D02*
D03*
X05848D02*
D03*
X05948D02*
D03*
X06048D02*
D03*
X06148D02*
D03*
Y044874D02*
D03*
X06048D02*
D03*
X05948D02*
D03*
X05848D02*
D03*
X05748D02*
D03*
X05648D02*
D03*
X05548D02*
D03*
X05448D02*
D03*
X05348D02*
D03*
X05248D02*
D03*
X05148D02*
D03*
X05048D02*
D03*
X04948D02*
D03*
X04848D02*
D03*
X04748D02*
D03*
X04648D02*
D03*
X04548D02*
D03*
X04448D02*
D03*
X04348D02*
D03*
D41*
X04248D02*
D03*
D42*
X03937Y039783D02*
D03*
X04037D02*
D03*
D45*
X048622Y036437D02*
D03*
Y037337D02*
D03*
X060433Y036437D02*
D03*
Y037337D02*
D03*
X038386Y046673D02*
D03*
Y047573D02*
D03*
X055118Y037337D02*
D03*
Y036437D02*
D03*
X051772D02*
D03*
Y037337D02*
D03*
X053346Y036437D02*
D03*
Y037337D02*
D03*
X063976Y047573D02*
D03*
Y046673D02*
D03*
X050591Y047573D02*
D03*
Y046673D02*
D03*
X062402Y047573D02*
D03*
Y046673D02*
D03*
X050197Y036437D02*
D03*
Y037337D02*
D03*
X036811Y036634D02*
D03*
Y037534D02*
D03*
X042913Y037337D02*
D03*
Y036437D02*
D03*
X041339Y037337D02*
D03*
Y036437D02*
D03*
X034055Y036634D02*
D03*
Y037534D02*
D03*
X061024Y046673D02*
D03*
Y047573D02*
D03*
X062008Y037337D02*
D03*
Y036437D02*
D03*
X063583Y037337D02*
D03*
Y036437D02*
D03*
X065354Y046673D02*
D03*
Y047573D02*
D03*
X053543Y046673D02*
D03*
Y047573D02*
D03*
X052165Y046673D02*
D03*
Y047573D02*
D03*
X039961Y046673D02*
D03*
Y047573D02*
D03*
X041339Y046673D02*
D03*
Y047573D02*
D03*
X039961Y037337D02*
D03*
Y036437D02*
D03*
X044291Y046673D02*
D03*
Y047573D02*
D03*
X042913Y046673D02*
D03*
Y047573D02*
D03*
X003937Y046673D02*
D03*
Y047573D02*
D03*
X001969Y037534D02*
D03*
Y036634D02*
D03*
X003937Y037534D02*
D03*
Y036634D02*
D03*
X005906Y037534D02*
D03*
Y036634D02*
D03*
X007874Y046673D02*
D03*
Y047573D02*
D03*
X005906Y046673D02*
D03*
Y047573D02*
D03*
X065354Y037337D02*
D03*
Y036437D02*
D03*
X049213Y046673D02*
D03*
Y047573D02*
D03*
X044291Y037337D02*
D03*
Y036437D02*
D03*
X007874Y037534D02*
D03*
Y036634D02*
D03*
X001969Y046673D02*
D03*
Y047573D02*
D03*
D46*
X056496Y036437D02*
D03*
X057874D02*
D03*
D47*
X005386Y040465D02*
D03*
Y040965D02*
D03*
Y041465D02*
D03*
Y041965D02*
D03*
Y042465D02*
D03*
Y042965D02*
D03*
Y043465D02*
D03*
Y043965D02*
D03*
X003346D02*
D03*
Y043465D02*
D03*
Y042965D02*
D03*
Y042465D02*
D03*
Y041965D02*
D03*
Y041465D02*
D03*
Y040965D02*
D03*
Y040465D02*
D03*
X017054Y043965D02*
D03*
Y043465D02*
D03*
Y042965D02*
D03*
Y042465D02*
D03*
Y041965D02*
D03*
Y041465D02*
D03*
Y040965D02*
D03*
Y040465D02*
D03*
X019094D02*
D03*
Y040965D02*
D03*
Y041465D02*
D03*
Y041965D02*
D03*
Y042465D02*
D03*
Y042965D02*
D03*
Y043465D02*
D03*
Y043965D02*
D03*
X010362Y040449D02*
D03*
Y040949D02*
D03*
Y041449D02*
D03*
Y041949D02*
D03*
Y042449D02*
D03*
Y042949D02*
D03*
Y043449D02*
D03*
Y043949D02*
D03*
X012402D02*
D03*
Y043449D02*
D03*
Y042949D02*
D03*
Y042449D02*
D03*
Y041949D02*
D03*
Y041449D02*
D03*
Y040949D02*
D03*
Y040449D02*
D03*
M02*
