G04*
G04 #@! TF.GenerationSoftware,Altium Limited,Altium Designer,18.0.7 (293)*
G04*
G04 Layer_Color=8388736*
%FSTAX24Y24*%
%MOIN*%
G70*
G01*
G75*
%ADD16R,0.0580X0.0630*%
%ADD17O,0.0780X0.1080*%
%ADD18R,0.0780X0.1080*%
%ADD19O,0.0980X0.0680*%
%ADD20R,0.0980X0.0680*%
%ADD21C,0.0830*%
%ADD22C,0.1080*%
%ADD23R,0.1080X0.1080*%
%ADD24R,0.1080X0.1680*%
%ADD25R,0.1680X0.1080*%
%ADD26C,0.0615*%
%ADD27R,0.0615X0.0615*%
%ADD28C,0.0671*%
D16*
X071344Y040768D02*
D03*
X072244D02*
D03*
X071344Y044705D02*
D03*
X072244D02*
D03*
X072244Y036831D02*
D03*
X071344D02*
D03*
D17*
X050932Y035109D02*
D03*
X051932D02*
D03*
X052932D02*
D03*
X053932D02*
D03*
X054932D02*
D03*
X050932Y049109D02*
D03*
X051932D02*
D03*
X052932D02*
D03*
X053932D02*
D03*
X043247Y049059D02*
D03*
X042247D02*
D03*
X041247D02*
D03*
X040247D02*
D03*
X039247D02*
D03*
X043247Y035059D02*
D03*
X042247D02*
D03*
X041247D02*
D03*
X040247D02*
D03*
X030612Y049109D02*
D03*
X029612D02*
D03*
X028612D02*
D03*
X027612D02*
D03*
X031612Y035109D02*
D03*
X030612D02*
D03*
X029612D02*
D03*
X028612D02*
D03*
X027612D02*
D03*
X019928Y049059D02*
D03*
X018928D02*
D03*
X017928D02*
D03*
X016928D02*
D03*
X015928D02*
D03*
X019928Y035059D02*
D03*
X018928D02*
D03*
X017928D02*
D03*
X016928D02*
D03*
X063567D02*
D03*
X064567D02*
D03*
X065567D02*
D03*
X066567D02*
D03*
X062567Y049059D02*
D03*
X063567D02*
D03*
X064567D02*
D03*
X065567D02*
D03*
X066567D02*
D03*
X008268D02*
D03*
X007268D02*
D03*
X006268D02*
D03*
X005268D02*
D03*
X004268D02*
D03*
X008268Y035059D02*
D03*
X007268D02*
D03*
X006268D02*
D03*
X005268D02*
D03*
D18*
X054932Y049109D02*
D03*
X039247Y035059D02*
D03*
X031612Y049109D02*
D03*
X015928Y035059D02*
D03*
X062567D02*
D03*
X004268D02*
D03*
D19*
X034252Y040571D02*
D03*
Y041571D02*
D03*
Y042571D02*
D03*
Y043571D02*
D03*
X037252Y040571D02*
D03*
Y041571D02*
D03*
Y042571D02*
D03*
D20*
Y043571D02*
D03*
D21*
X071319Y041752D02*
D03*
X073819Y043752D02*
D03*
Y041752D02*
D03*
X071319Y043752D02*
D03*
Y037815D02*
D03*
X073819Y039815D02*
D03*
Y037815D02*
D03*
X071319Y039815D02*
D03*
X07126Y033878D02*
D03*
X07376Y035878D02*
D03*
Y033878D02*
D03*
X07126Y035878D02*
D03*
D22*
X023531Y042146D02*
D03*
D23*
X031496D02*
D03*
D24*
X070835Y046945D02*
D03*
D25*
X072835Y048445D02*
D03*
Y045945D02*
D03*
D26*
X04248Y038799D02*
D03*
X04348D02*
D03*
X04448D02*
D03*
X04548D02*
D03*
X04648D02*
D03*
X04748D02*
D03*
X04848D02*
D03*
X04948D02*
D03*
X05048D02*
D03*
X05148D02*
D03*
X05248D02*
D03*
X05348D02*
D03*
X05448D02*
D03*
X05548D02*
D03*
X05648D02*
D03*
X05748D02*
D03*
X05848D02*
D03*
X05948D02*
D03*
X06048D02*
D03*
X06148D02*
D03*
Y044874D02*
D03*
X06048D02*
D03*
X05948D02*
D03*
X05848D02*
D03*
X05748D02*
D03*
X05648D02*
D03*
X05548D02*
D03*
X05448D02*
D03*
X05348D02*
D03*
X05248D02*
D03*
X05148D02*
D03*
X05048D02*
D03*
X04948D02*
D03*
X04848D02*
D03*
X04748D02*
D03*
X04648D02*
D03*
X04548D02*
D03*
X04448D02*
D03*
X04348D02*
D03*
D27*
X04248D02*
D03*
D28*
X03937Y039783D02*
D03*
X04037D02*
D03*
M02*
